%TF.GenerationSoftware,KiCad,Pcbnew,8.0.8*%
%TF.CreationDate,2025-01-22T22:14:13-04:00*%
%TF.ProjectId,Breadboard-3.3V-5V-power-supply,42726561-6462-46f6-9172-642d332e3356,1*%
%TF.SameCoordinates,Original*%
%TF.FileFunction,Plated,1,2,PTH,Mixed*%
%TF.FilePolarity,Positive*%
%FSLAX46Y46*%
G04 Gerber Fmt 4.6, Leading zero omitted, Abs format (unit mm)*
G04 Created by KiCad (PCBNEW 8.0.8) date 2025-01-22 22:14:13*
%MOMM*%
%LPD*%
G01*
G04 APERTURE LIST*
%TA.AperFunction,ComponentDrill*%
%ADD10C,0.700000*%
%TD*%
%TA.AperFunction,ComponentDrill*%
%ADD11C,0.800000*%
%TD*%
%TA.AperFunction,ComponentDrill*%
%ADD12C,0.900000*%
%TD*%
%TA.AperFunction,ComponentDrill*%
%ADD13C,0.950000*%
%TD*%
G04 aperture for slot hole*
%TA.AperFunction,ComponentDrill*%
%ADD14C,1.000000*%
%TD*%
%TA.AperFunction,ComponentDrill*%
%ADD15C,1.000000*%
%TD*%
%TA.AperFunction,ComponentDrill*%
%ADD16C,1.100000*%
%TD*%
%TA.AperFunction,ComponentDrill*%
%ADD17C,1.520000*%
%TD*%
%TA.AperFunction,ComponentDrill*%
%ADD18C,2.300000*%
%TD*%
G04 APERTURE END LIST*
D10*
%TO.C,R1*%
X141545400Y-91035400D03*
X141545400Y-98655400D03*
%TO.C,R2*%
X147985000Y-83034400D03*
X147985000Y-90654400D03*
%TO.C,R3*%
X153065000Y-83034400D03*
X153065000Y-90654400D03*
D11*
%TO.C,C1*%
X147923400Y-102617800D03*
X150423400Y-102617800D03*
%TO.C,C2*%
X153823400Y-102516200D03*
X156323400Y-102516200D03*
%TO.C,C3*%
X158348200Y-85650600D03*
X158348200Y-88150600D03*
D12*
%TO.C,D1*%
X135310400Y-93570400D03*
X135310400Y-96110400D03*
%TO.C,SW1*%
X138345400Y-102897200D03*
X138345400Y-105397200D03*
X138345400Y-107897200D03*
X141645400Y-102897200D03*
X141645400Y-105397200D03*
X141645400Y-107897200D03*
D13*
%TO.C,J1*%
X142926400Y-76840200D03*
X142926400Y-79340200D03*
X142926400Y-81340200D03*
X142926400Y-83840200D03*
D14*
%TO.C,J2*%
X136800600Y-118032600D02*
X136800600Y-116032600D01*
X140800600Y-121732600D02*
X138800600Y-121732600D01*
X142800600Y-118032600D02*
X142800600Y-116032600D01*
D15*
%TO.C,J3*%
X148620000Y-73636400D03*
X148620000Y-76176400D03*
X148620000Y-78716400D03*
%TO.C,J6*%
X148620000Y-116932600D03*
X148620000Y-119472600D03*
X148620000Y-122012600D03*
%TO.C,J4*%
X166400000Y-73636400D03*
X166400000Y-76176400D03*
%TO.C,J7*%
X166400000Y-119432600D03*
X166400000Y-121972600D03*
D16*
%TO.C,U1*%
X149585200Y-94540600D03*
%TO.C,U2*%
X149585200Y-110466400D03*
%TO.C,U1*%
X152125200Y-94540600D03*
%TO.C,U2*%
X152125200Y-110466400D03*
%TO.C,U1*%
X154665200Y-94540600D03*
%TO.C,U2*%
X154665200Y-110466400D03*
D17*
%TO.C,J5*%
X154335000Y-75836400D03*
%TO.C,J8*%
X154335000Y-119782600D03*
%TO.C,J5*%
X159415000Y-75836400D03*
%TO.C,J8*%
X159415000Y-119782600D03*
D18*
%TO.C,J1*%
X140216400Y-73770200D03*
X140216400Y-86910200D03*
M02*
