%TF.GenerationSoftware,KiCad,Pcbnew,8.0.8*%
%TF.CreationDate,2025-01-22T21:37:18-04:00*%
%TF.ProjectId,Breadboard-3.3V-5V-power-supply,42726561-6462-46f6-9172-642d332e3356,1*%
%TF.SameCoordinates,Original*%
%TF.FileFunction,Copper,L1,Top*%
%TF.FilePolarity,Positive*%
%FSLAX46Y46*%
G04 Gerber Fmt 4.6, Leading zero omitted, Abs format (unit mm)*
G04 Created by KiCad (PCBNEW 8.0.8) date 2025-01-22 21:37:18*
%MOMM*%
%LPD*%
G01*
G04 APERTURE LIST*
G04 Aperture macros list*
%AMRoundRect*
0 Rectangle with rounded corners*
0 $1 Rounding radius*
0 $2 $3 $4 $5 $6 $7 $8 $9 X,Y pos of 4 corners*
0 Add a 4 corners polygon primitive as box body*
4,1,4,$2,$3,$4,$5,$6,$7,$8,$9,$2,$3,0*
0 Add four circle primitives for the rounded corners*
1,1,$1+$1,$2,$3*
1,1,$1+$1,$4,$5*
1,1,$1+$1,$6,$7*
1,1,$1+$1,$8,$9*
0 Add four rect primitives between the rounded corners*
20,1,$1+$1,$2,$3,$4,$5,0*
20,1,$1+$1,$4,$5,$6,$7,0*
20,1,$1+$1,$6,$7,$8,$9,0*
20,1,$1+$1,$8,$9,$2,$3,0*%
G04 Aperture macros list end*
%TA.AperFunction,ComponentPad*%
%ADD10R,1.800000X1.800000*%
%TD*%
%TA.AperFunction,ComponentPad*%
%ADD11C,1.800000*%
%TD*%
%TA.AperFunction,ComponentPad*%
%ADD12C,1.400000*%
%TD*%
%TA.AperFunction,ComponentPad*%
%ADD13O,1.400000X1.400000*%
%TD*%
%TA.AperFunction,ComponentPad*%
%ADD14R,1.700000X1.700000*%
%TD*%
%TA.AperFunction,ComponentPad*%
%ADD15O,1.700000X1.700000*%
%TD*%
%TA.AperFunction,ComponentPad*%
%ADD16R,1.500000X1.600000*%
%TD*%
%TA.AperFunction,ComponentPad*%
%ADD17C,1.600000*%
%TD*%
%TA.AperFunction,ComponentPad*%
%ADD18C,3.000000*%
%TD*%
%TA.AperFunction,ComponentPad*%
%ADD19R,1.905000X2.000000*%
%TD*%
%TA.AperFunction,ComponentPad*%
%ADD20O,1.905000X2.000000*%
%TD*%
%TA.AperFunction,ComponentPad*%
%ADD21RoundRect,0.250000X0.450000X-0.450000X0.450000X0.450000X-0.450000X0.450000X-0.450000X-0.450000X0*%
%TD*%
%TA.AperFunction,ComponentPad*%
%ADD22R,3.000000X3.000000*%
%TD*%
%TA.AperFunction,ComponentPad*%
%ADD23R,3.500000X3.500000*%
%TD*%
%TA.AperFunction,ComponentPad*%
%ADD24RoundRect,0.750000X-0.750000X-1.000000X0.750000X-1.000000X0.750000X1.000000X-0.750000X1.000000X0*%
%TD*%
%TA.AperFunction,ComponentPad*%
%ADD25RoundRect,0.875000X-0.875000X-0.875000X0.875000X-0.875000X0.875000X0.875000X-0.875000X0.875000X0*%
%TD*%
%TA.AperFunction,Conductor*%
%ADD26C,0.350000*%
%TD*%
G04 APERTURE END LIST*
D10*
%TO.P,D1,1,K*%
%TO.N,GND*%
X135310400Y-93570400D03*
D11*
%TO.P,D1,2,A*%
%TO.N,Net-(D1-A)*%
X135310400Y-96110400D03*
%TD*%
D12*
%TO.P,R2,1*%
%TO.N,/3.3V*%
X147985000Y-90654400D03*
D13*
%TO.P,R2,2*%
%TO.N,Net-(U1-ADJ)*%
X147985000Y-83034400D03*
%TD*%
D14*
%TO.P,J6,1,Pin_1*%
%TO.N,/3.3V*%
X148620000Y-116932600D03*
D15*
%TO.P,J6,2,Pin_2*%
%TO.N,/PWR_OUT*%
X148620000Y-119472600D03*
%TO.P,J6,3,Pin_3*%
%TO.N,/5V*%
X148620000Y-122012600D03*
%TD*%
D16*
%TO.P,J1,1,VBUS*%
%TO.N,/USB_IN*%
X142926400Y-76840200D03*
D17*
%TO.P,J1,2,D-*%
%TO.N,unconnected-(J1-D--Pad2)*%
X142926400Y-79340200D03*
%TO.P,J1,3,D+*%
%TO.N,unconnected-(J1-D+-Pad3)*%
X142926400Y-81340200D03*
%TO.P,J1,4,GND*%
%TO.N,GND*%
X142926400Y-83840200D03*
D18*
%TO.P,J1,5,Shield*%
%TO.N,unconnected-(J1-Shield-Pad5)_1*%
X140216400Y-73770200D03*
%TO.N,unconnected-(J1-Shield-Pad5)*%
X140216400Y-86910200D03*
%TD*%
D19*
%TO.P,U1,1,ADJ*%
%TO.N,Net-(U1-ADJ)*%
X154665200Y-94540600D03*
D20*
%TO.P,U1,2,VO*%
%TO.N,/3.3V*%
X152125200Y-94540600D03*
%TO.P,U1,3,VI*%
%TO.N,/12V*%
X149585200Y-94540600D03*
%TD*%
D19*
%TO.P,U2,1,VI*%
%TO.N,/12V*%
X149585200Y-110466400D03*
D20*
%TO.P,U2,2,GND*%
%TO.N,GND*%
X152125200Y-110466400D03*
%TO.P,U2,3,VO*%
%TO.N,/5V*%
X154665200Y-110466400D03*
%TD*%
D17*
%TO.P,C3,1*%
%TO.N,/3.3V*%
X158348200Y-85650600D03*
%TO.P,C3,2*%
%TO.N,GND*%
X158348200Y-88150600D03*
%TD*%
D12*
%TO.P,R1,1*%
%TO.N,/12V*%
X141545400Y-91035400D03*
D13*
%TO.P,R1,2*%
%TO.N,Net-(D1-A)*%
X141545400Y-98655400D03*
%TD*%
D21*
%TO.P,SW1,1,A*%
%TO.N,/5V*%
X138345400Y-107897200D03*
D12*
%TO.P,SW1,2,B*%
%TO.N,/USB_IN*%
X138345400Y-105397200D03*
%TO.P,SW1,3,C*%
%TO.N,unconnected-(SW1A-C-Pad3)*%
X138345400Y-102897200D03*
%TO.P,SW1,4,A*%
%TO.N,/12V*%
X141645400Y-102897200D03*
%TO.P,SW1,5,B*%
%TO.N,/PWR_IN*%
X141645400Y-105397200D03*
%TO.P,SW1,6,C*%
%TO.N,unconnected-(SW1B-C-Pad6)*%
X141645400Y-107897200D03*
%TD*%
D22*
%TO.P,J8,1,Pin_1*%
%TO.N,GND*%
X154335000Y-119782600D03*
D18*
%TO.P,J8,2,Pin_2*%
%TO.N,/PWR_OUT*%
X159415000Y-119782600D03*
%TD*%
D14*
%TO.P,J3,1,Pin_1*%
%TO.N,/3.3V*%
X148620000Y-73636400D03*
D15*
%TO.P,J3,2,Pin_2*%
%TO.N,/PWR_OUT*%
X148620000Y-76176400D03*
%TO.P,J3,3,Pin_3*%
%TO.N,/5V*%
X148620000Y-78716400D03*
%TD*%
D14*
%TO.P,J4,1,Pin_1*%
%TO.N,GND*%
X166400000Y-73636400D03*
D15*
%TO.P,J4,2,Pin_2*%
%TO.N,/PWR_OUT*%
X166400000Y-76176400D03*
%TD*%
D14*
%TO.P,J7,1,Pin_1*%
%TO.N,GND*%
X166400000Y-119432600D03*
D15*
%TO.P,J7,2,Pin_2*%
%TO.N,/PWR_OUT*%
X166400000Y-121972600D03*
%TD*%
D12*
%TO.P,R3,1*%
%TO.N,Net-(U1-ADJ)*%
X153065000Y-83034400D03*
D13*
%TO.P,R3,2*%
%TO.N,GND*%
X153065000Y-90654400D03*
%TD*%
D22*
%TO.P,J5,1,Pin_1*%
%TO.N,GND*%
X154335000Y-75836400D03*
D18*
%TO.P,J5,2,Pin_2*%
%TO.N,/PWR_OUT*%
X159415000Y-75836400D03*
%TD*%
D23*
%TO.P,J2,1*%
%TO.N,/PWR_IN*%
X142800600Y-117032600D03*
D24*
%TO.P,J2,2*%
%TO.N,GND*%
X136800600Y-117032600D03*
D25*
%TO.P,J2,3*%
X139800600Y-121732600D03*
%TD*%
D17*
%TO.P,C1,1*%
%TO.N,/12V*%
X147923400Y-102617800D03*
%TO.P,C1,2*%
%TO.N,GND*%
X150423400Y-102617800D03*
%TD*%
%TO.P,C2,1*%
%TO.N,/5V*%
X156323400Y-102516200D03*
%TO.P,C2,2*%
%TO.N,GND*%
X153823400Y-102516200D03*
%TD*%
D26*
%TO.N,/12V*%
X145821400Y-100515800D02*
X147923400Y-102617800D01*
X147923400Y-102617800D02*
X147644000Y-102897200D01*
X141924800Y-102617800D02*
X141645400Y-102897200D01*
X147923400Y-108804600D02*
X149585200Y-110466400D01*
X147923400Y-102617800D02*
X141924800Y-102617800D01*
X142670400Y-92160400D02*
X141545400Y-91035400D01*
X145821400Y-98304400D02*
X145821400Y-100515800D01*
X141645400Y-102897200D02*
X142670400Y-101872200D01*
X147923400Y-102617800D02*
X147923400Y-108804600D01*
X147644000Y-102897200D02*
X141645400Y-102897200D01*
X149585200Y-94540600D02*
X145821400Y-98304400D01*
X142670400Y-101872200D02*
X142670400Y-92160400D01*
%TO.N,/5V*%
X138345400Y-107897200D02*
X139470400Y-106772200D01*
X154665200Y-104174400D02*
X156323400Y-102516200D01*
X139470400Y-106772200D02*
X139470400Y-90933000D01*
X154665200Y-110466400D02*
X154665200Y-104174400D01*
X146860000Y-80476400D02*
X148620000Y-78716400D01*
X142411376Y-120747600D02*
X143535400Y-120747600D01*
X138345400Y-107897200D02*
X140625600Y-110177400D01*
X143535400Y-120747600D02*
X144805000Y-120747600D01*
X146860000Y-83543400D02*
X146860000Y-80476400D01*
X147345000Y-118207600D02*
X147345000Y-114046400D01*
X147355000Y-120747600D02*
X143535400Y-120747600D01*
X139470400Y-90933000D02*
X146860000Y-83543400D01*
X153240200Y-111891400D02*
X154665200Y-110466400D01*
X149500000Y-111891400D02*
X153240200Y-111891400D01*
X140625600Y-110177400D02*
X140625600Y-118961824D01*
X147345000Y-114046400D02*
X149500000Y-111891400D01*
X144805000Y-120747600D02*
X147345000Y-118207600D01*
X148620000Y-122012600D02*
X147355000Y-120747600D01*
X140625600Y-118961824D02*
X142411376Y-120747600D01*
%TO.N,/PWR_IN*%
X142800600Y-117032600D02*
X142800600Y-106552400D01*
X142800600Y-106552400D02*
X141645400Y-105397200D01*
%TO.N,/PWR_OUT*%
X157123200Y-88658012D02*
X157123200Y-78128200D01*
X159415000Y-75836400D02*
X166060000Y-75836400D01*
X157490000Y-117857600D02*
X159415000Y-119782600D01*
X159415000Y-119782600D02*
X159415000Y-90949812D01*
X157490000Y-77761400D02*
X159415000Y-75836400D01*
X164210000Y-119782600D02*
X166400000Y-121972600D01*
X166060000Y-75836400D02*
X166400000Y-76176400D01*
X159415000Y-119782600D02*
X164210000Y-119782600D01*
X148620000Y-119472600D02*
X150235000Y-117857600D01*
X148620000Y-76176400D02*
X150205000Y-77761400D01*
X159415000Y-90949812D02*
X157123200Y-88658012D01*
X150205000Y-77761400D02*
X157490000Y-77761400D01*
X150235000Y-117857600D02*
X157490000Y-117857600D01*
X157123200Y-78128200D02*
X159415000Y-75836400D01*
%TO.N,/USB_IN*%
X136635400Y-83131200D02*
X136635400Y-103687200D01*
X136635400Y-103687200D02*
X138345400Y-105397200D01*
X142926400Y-76840200D02*
X136635400Y-83131200D01*
%TD*%
M02*
