%TF.GenerationSoftware,KiCad,Pcbnew,8.0.8*%
%TF.CreationDate,2025-01-22T22:17:37-04:00*%
%TF.ProjectId,Breadboard-3.3V-5V-power-supply,42726561-6462-46f6-9172-642d332e3356,1*%
%TF.SameCoordinates,Original*%
%TF.FileFunction,Soldermask,Top*%
%TF.FilePolarity,Negative*%
%FSLAX46Y46*%
G04 Gerber Fmt 4.6, Leading zero omitted, Abs format (unit mm)*
G04 Created by KiCad (PCBNEW 8.0.8) date 2025-01-22 22:17:37*
%MOMM*%
%LPD*%
G01*
G04 APERTURE LIST*
G04 Aperture macros list*
%AMRoundRect*
0 Rectangle with rounded corners*
0 $1 Rounding radius*
0 $2 $3 $4 $5 $6 $7 $8 $9 X,Y pos of 4 corners*
0 Add a 4 corners polygon primitive as box body*
4,1,4,$2,$3,$4,$5,$6,$7,$8,$9,$2,$3,0*
0 Add four circle primitives for the rounded corners*
1,1,$1+$1,$2,$3*
1,1,$1+$1,$4,$5*
1,1,$1+$1,$6,$7*
1,1,$1+$1,$8,$9*
0 Add four rect primitives between the rounded corners*
20,1,$1+$1,$2,$3,$4,$5,0*
20,1,$1+$1,$4,$5,$6,$7,0*
20,1,$1+$1,$6,$7,$8,$9,0*
20,1,$1+$1,$8,$9,$2,$3,0*%
G04 Aperture macros list end*
%ADD10R,1.800000X1.800000*%
%ADD11C,1.800000*%
%ADD12C,1.400000*%
%ADD13O,1.400000X1.400000*%
%ADD14R,1.700000X1.700000*%
%ADD15O,1.700000X1.700000*%
%ADD16R,1.500000X1.600000*%
%ADD17C,1.600000*%
%ADD18C,3.000000*%
%ADD19R,1.905000X2.000000*%
%ADD20O,1.905000X2.000000*%
%ADD21RoundRect,0.250000X0.450000X-0.450000X0.450000X0.450000X-0.450000X0.450000X-0.450000X-0.450000X0*%
%ADD22R,3.000000X3.000000*%
%ADD23R,3.500000X3.500000*%
%ADD24RoundRect,0.750000X-0.750000X-1.000000X0.750000X-1.000000X0.750000X1.000000X-0.750000X1.000000X0*%
%ADD25RoundRect,0.875000X-0.875000X-0.875000X0.875000X-0.875000X0.875000X0.875000X-0.875000X0.875000X0*%
G04 APERTURE END LIST*
D10*
%TO.C,D1*%
X135310400Y-93570400D03*
D11*
X135310400Y-96110400D03*
%TD*%
D12*
%TO.C,R2*%
X147985000Y-90654400D03*
D13*
X147985000Y-83034400D03*
%TD*%
D14*
%TO.C,J6*%
X148620000Y-116932600D03*
D15*
X148620000Y-119472600D03*
X148620000Y-122012600D03*
%TD*%
D16*
%TO.C,J1*%
X142926400Y-76840200D03*
D17*
X142926400Y-79340200D03*
X142926400Y-81340200D03*
X142926400Y-83840200D03*
D18*
X140216400Y-73770200D03*
X140216400Y-86910200D03*
%TD*%
D19*
%TO.C,U1*%
X154665200Y-94540600D03*
D20*
X152125200Y-94540600D03*
X149585200Y-94540600D03*
%TD*%
D19*
%TO.C,U2*%
X149585200Y-110466400D03*
D20*
X152125200Y-110466400D03*
X154665200Y-110466400D03*
%TD*%
D17*
%TO.C,C3*%
X158348200Y-85650600D03*
X158348200Y-88150600D03*
%TD*%
D12*
%TO.C,R1*%
X141545400Y-91035400D03*
D13*
X141545400Y-98655400D03*
%TD*%
D21*
%TO.C,SW1*%
X138345400Y-107897200D03*
D12*
X138345400Y-105397200D03*
X138345400Y-102897200D03*
X141645400Y-102897200D03*
X141645400Y-105397200D03*
X141645400Y-107897200D03*
%TD*%
D22*
%TO.C,J8*%
X154335000Y-119782600D03*
D18*
X159415000Y-119782600D03*
%TD*%
D14*
%TO.C,J3*%
X148620000Y-73636400D03*
D15*
X148620000Y-76176400D03*
X148620000Y-78716400D03*
%TD*%
D14*
%TO.C,J4*%
X166400000Y-73636400D03*
D15*
X166400000Y-76176400D03*
%TD*%
D14*
%TO.C,J7*%
X166400000Y-119432600D03*
D15*
X166400000Y-121972600D03*
%TD*%
D12*
%TO.C,R3*%
X153065000Y-83034400D03*
D13*
X153065000Y-90654400D03*
%TD*%
D22*
%TO.C,J5*%
X159415000Y-75836400D03*
D18*
X154335000Y-75836400D03*
%TD*%
D23*
%TO.C,J2*%
X142800600Y-117032600D03*
D24*
X136800600Y-117032600D03*
D25*
X139800600Y-121732600D03*
%TD*%
D17*
%TO.C,C1*%
X147923400Y-102617800D03*
X150423400Y-102617800D03*
%TD*%
%TO.C,C2*%
X156323400Y-102516200D03*
X153823400Y-102516200D03*
%TD*%
M02*
