%TF.GenerationSoftware,KiCad,Pcbnew,8.0.8*%
%TF.CreationDate,2025-02-03T21:22:42-04:00*%
%TF.ProjectId,ATMega328P-512K-Datalogger-2L,41544d65-6761-4333-9238-502d3531324b,1*%
%TF.SameCoordinates,Original*%
%TF.FileFunction,Copper,L2,Bot*%
%TF.FilePolarity,Positive*%
%FSLAX46Y46*%
G04 Gerber Fmt 4.6, Leading zero omitted, Abs format (unit mm)*
G04 Created by KiCad (PCBNEW 8.0.8) date 2025-02-03 21:22:42*
%MOMM*%
%LPD*%
G01*
G04 APERTURE LIST*
%TA.AperFunction,ComponentPad*%
%ADD10R,1.700000X1.700000*%
%TD*%
%TA.AperFunction,ComponentPad*%
%ADD11O,1.700000X1.700000*%
%TD*%
%TA.AperFunction,ViaPad*%
%ADD12C,0.600000*%
%TD*%
%TA.AperFunction,ViaPad*%
%ADD13C,0.900000*%
%TD*%
%TA.AperFunction,Conductor*%
%ADD14C,0.200000*%
%TD*%
%TA.AperFunction,Conductor*%
%ADD15C,0.350000*%
%TD*%
G04 APERTURE END LIST*
D10*
%TO.P,ICSP,1,Pin_1*%
%TO.N,/MISO*%
X168402000Y-99530000D03*
D11*
%TO.P,ICSP,2,Pin_2*%
%TO.N,/VCC*%
X170942000Y-99530000D03*
%TO.P,ICSP,3,Pin_3*%
%TO.N,/SCK*%
X168402000Y-102070000D03*
%TO.P,ICSP,4,Pin_4*%
%TO.N,/MOSI*%
X170942000Y-102070000D03*
%TO.P,ICSP,5,Pin_5*%
%TO.N,/RESET*%
X168402000Y-104610000D03*
%TO.P,ICSP,6,Pin_6*%
%TO.N,GND*%
X170942000Y-104610000D03*
%TD*%
D10*
%TO.P,BT1,1,+*%
%TO.N,/VCC*%
X124968000Y-96438000D03*
D11*
%TO.P,BT1,2,-*%
%TO.N,GND*%
X124968000Y-98978000D03*
%TD*%
D10*
%TO.P,Serial,1,Pin_1*%
%TO.N,GND*%
X158242000Y-89370000D03*
D11*
%TO.P,Serial,2,Pin_2*%
%TO.N,/VCC*%
X160782000Y-89370000D03*
%TO.P,Serial,3,Pin_3*%
%TO.N,/TX*%
X163322000Y-89370000D03*
%TO.P,Serial,4,Pin_4*%
%TO.N,/RX*%
X165862000Y-89370000D03*
%TD*%
D10*
%TO.P,GPIO,1,Pin_1*%
%TO.N,/D2*%
X139192000Y-114770000D03*
D11*
%TO.P,GPIO,2,Pin_2*%
%TO.N,/D3*%
X141732000Y-114770000D03*
%TO.P,GPIO,3,Pin_3*%
%TO.N,/D4*%
X144272000Y-114770000D03*
%TO.P,GPIO,4,Pin_4*%
%TO.N,/D5*%
X146812000Y-114770000D03*
%TO.P,GPIO,5,Pin_5*%
%TO.N,/D6*%
X149352000Y-114770000D03*
%TO.P,GPIO,6,Pin_6*%
%TO.N,/D7*%
X151892000Y-114770000D03*
%TO.P,GPIO,7,Pin_7*%
%TO.N,/D8*%
X154432000Y-114770000D03*
%TO.P,GPIO,8,Pin_8*%
%TO.N,GND*%
X156972000Y-114770000D03*
%TO.P,GPIO,9,Pin_9*%
%TO.N,/VCC*%
X159512000Y-114770000D03*
%TD*%
D10*
%TO.P,I2C,1,Pin_1*%
%TO.N,GND*%
X131350000Y-89370000D03*
D11*
%TO.P,I2C,2,Pin_2*%
%TO.N,/VCC*%
X133890000Y-89370000D03*
%TO.P,I2C,3,Pin_3*%
%TO.N,/SDA*%
X136430000Y-89370000D03*
%TO.P,I2C,4,Pin_4*%
%TO.N,/SCL*%
X138970000Y-89370000D03*
%TD*%
D12*
%TO.N,/SCK*%
X153365200Y-97866200D03*
X155041600Y-104851200D03*
D13*
%TO.N,GND*%
X147066000Y-101346000D03*
X146431000Y-112141000D03*
X136144000Y-95250000D03*
X135890000Y-104140000D03*
X142748000Y-89408000D03*
X152781000Y-112268000D03*
X141605000Y-101727000D03*
X166624000Y-107442000D03*
X168656000Y-95504000D03*
X130556000Y-96520000D03*
X154432000Y-111506000D03*
D12*
%TO.N,Net-(U1-PB6)*%
X146304000Y-104394000D03*
X150241000Y-107950000D03*
X153703000Y-109093000D03*
X147812000Y-107791211D03*
D13*
%TO.N,/VCC*%
X143510000Y-112014000D03*
X141097000Y-99695000D03*
D12*
%TO.N,/SCL*%
X138176000Y-96012000D03*
X141986000Y-94742000D03*
X136906000Y-103303000D03*
X162052000Y-101346000D03*
X151892000Y-100076000D03*
%TO.N,/SDA*%
X141986000Y-97282000D03*
X165100000Y-98552000D03*
X137414000Y-105118000D03*
X136144000Y-97028000D03*
X137922000Y-91948000D03*
X132080000Y-112014000D03*
X150368000Y-96012000D03*
%TO.N,/D2*%
X145034000Y-98044000D03*
%TO.N,/D4*%
X142408186Y-105087120D03*
X142367000Y-109093000D03*
%TO.N,/D3*%
X141287500Y-104140000D03*
X141478000Y-111760000D03*
%TO.N,/D6*%
X147193000Y-111289000D03*
X149352000Y-112268000D03*
%TO.N,/D7*%
X150749000Y-112141000D03*
X147955000Y-104521000D03*
%TO.N,/D8*%
X154432000Y-112776000D03*
X150241000Y-104521000D03*
%TO.N,/RX*%
X147866003Y-99314000D03*
%TO.N,/TX*%
X147066000Y-99314000D03*
%TO.N,/MISO*%
X153670000Y-106680000D03*
%TO.N,/RESET*%
X151221735Y-107985265D03*
X169799000Y-107442000D03*
X149606000Y-99822000D03*
%TO.N,/MOSI*%
X153670000Y-107696000D03*
%TD*%
D14*
%TO.N,/SCK*%
X154221914Y-104851200D02*
X155041600Y-104851200D01*
X151292000Y-101921286D02*
X154221914Y-104851200D01*
X151292000Y-99827471D02*
X151292000Y-101921286D01*
X153253271Y-97866200D02*
X151292000Y-99827471D01*
X153365200Y-97866200D02*
X153253271Y-97866200D01*
%TO.N,/SCL*%
X152984200Y-102539800D02*
X154178000Y-101346000D01*
X154178000Y-101346000D02*
X162052000Y-101346000D01*
X152476200Y-102539800D02*
X152984200Y-102539800D01*
X151892000Y-101955600D02*
X152476200Y-102539800D01*
X151892000Y-100076000D02*
X151892000Y-101955600D01*
%TO.N,/SCK*%
X157822800Y-102070000D02*
X155041600Y-104851200D01*
X168402000Y-102070000D02*
X157822800Y-102070000D01*
%TO.N,/MISO*%
X169552000Y-100680000D02*
X168402000Y-99530000D01*
X168878346Y-103460000D02*
X169552000Y-102786346D01*
X163981600Y-105360000D02*
X165881600Y-103460000D01*
X169552000Y-102786346D02*
X169552000Y-100680000D01*
X155440314Y-105360000D02*
X163981600Y-105360000D01*
X165881600Y-103460000D02*
X168878346Y-103460000D01*
X154120314Y-106680000D02*
X155440314Y-105360000D01*
X153670000Y-106680000D02*
X154120314Y-106680000D01*
D15*
%TO.N,GND*%
X124968000Y-98978000D02*
X124968000Y-109474000D01*
X170942000Y-104610000D02*
X170942000Y-109982000D01*
X133490000Y-92596000D02*
X136144000Y-95250000D01*
X170942000Y-109982000D02*
X164879000Y-116045000D01*
X158917000Y-90045000D02*
X158917000Y-89431877D01*
X131350000Y-92596000D02*
X133490000Y-92596000D01*
X155956000Y-111506000D02*
X154432000Y-111506000D01*
X172217000Y-93644000D02*
X170262000Y-93644000D01*
X156972000Y-112522000D02*
X155956000Y-111506000D01*
X168110000Y-107442000D02*
X166624000Y-107442000D01*
X151554000Y-113495000D02*
X152781000Y-112268000D01*
X131350000Y-92596000D02*
X131350000Y-89370000D01*
X155410000Y-116332000D02*
X156972000Y-114770000D01*
X124968000Y-98978000D02*
X131350000Y-92596000D01*
X158242000Y-89370000D02*
X158917000Y-90045000D01*
X168656000Y-95250000D02*
X168656000Y-95504000D01*
X131350000Y-95726000D02*
X131350000Y-92596000D01*
X146685000Y-101727000D02*
X147066000Y-101346000D01*
X124968000Y-102362000D02*
X126746000Y-104140000D01*
X164879000Y-116045000D02*
X158247000Y-116045000D01*
X170942000Y-104610000D02*
X168110000Y-107442000D01*
X170180000Y-93726000D02*
X168656000Y-95250000D01*
X124968000Y-98978000D02*
X124968000Y-102362000D01*
X124968000Y-109474000D02*
X131826000Y-116332000D01*
X156972000Y-114770000D02*
X156972000Y-112522000D01*
X172217000Y-93644000D02*
X172217000Y-103335000D01*
X164376000Y-95504000D02*
X168656000Y-95504000D01*
X158247000Y-116045000D02*
X156972000Y-114770000D01*
X170262000Y-93644000D02*
X170180000Y-93726000D01*
X130556000Y-96520000D02*
X131350000Y-95726000D01*
X131826000Y-116332000D02*
X155410000Y-116332000D01*
X147785000Y-113495000D02*
X151554000Y-113495000D01*
X126746000Y-104140000D02*
X135890000Y-104140000D01*
X146431000Y-112141000D02*
X147785000Y-113495000D01*
X158242000Y-89370000D02*
X164376000Y-95504000D01*
X141605000Y-101727000D02*
X146685000Y-101727000D01*
X142786000Y-89370000D02*
X142748000Y-89408000D01*
X172217000Y-103335000D02*
X170942000Y-104610000D01*
D14*
%TO.N,Net-(U1-PB6)*%
X151384000Y-109093000D02*
X153703000Y-109093000D01*
X146558000Y-104648000D02*
X146304000Y-104394000D01*
X147812000Y-107791211D02*
X146558000Y-106537211D01*
X150241000Y-107950000D02*
X151384000Y-109093000D01*
X146558000Y-106537211D02*
X146558000Y-104648000D01*
D15*
%TO.N,/VCC*%
X143510000Y-112014000D02*
X141605000Y-110109000D01*
X141605000Y-110109000D02*
X141605000Y-104865000D01*
X142012500Y-104457500D02*
X142012500Y-103649195D01*
X138031000Y-103271933D02*
X141097000Y-100205933D01*
X142012500Y-103649195D02*
X141778305Y-103415000D01*
X141778305Y-103415000D02*
X138174067Y-103415000D01*
X138174067Y-103415000D02*
X138031000Y-103271933D01*
X141605000Y-104865000D02*
X142012500Y-104457500D01*
X141097000Y-100205933D02*
X141097000Y-99695000D01*
D14*
%TO.N,/SCL*%
X138970000Y-91726000D02*
X141986000Y-94742000D01*
X135382000Y-98806000D02*
X138176000Y-96012000D01*
X135382000Y-101779000D02*
X135382000Y-98806000D01*
X136906000Y-103303000D02*
X135382000Y-101779000D01*
X138970000Y-89370000D02*
X138970000Y-91726000D01*
%TO.N,/SDA*%
X149098000Y-97282000D02*
X150368000Y-96012000D01*
X137414000Y-105118000D02*
X137506000Y-105026000D01*
X138424529Y-95412000D02*
X138084000Y-95412000D01*
X138776000Y-95763471D02*
X138424529Y-95412000D01*
X163068000Y-96012000D02*
X150368000Y-96012000D01*
X137414000Y-105118000D02*
X132080000Y-110452000D01*
X132080000Y-110452000D02*
X132080000Y-112014000D01*
X138776000Y-101784471D02*
X138776000Y-95763471D01*
X138084000Y-95412000D02*
X137922000Y-95250000D01*
X137922000Y-91948000D02*
X137922000Y-95250000D01*
X137506000Y-103054471D02*
X138776000Y-101784471D01*
X165100000Y-98552000D02*
X165100000Y-98044000D01*
X141986000Y-97282000D02*
X149098000Y-97282000D01*
X137506000Y-105026000D02*
X137506000Y-103054471D01*
X165100000Y-98044000D02*
X163068000Y-96012000D01*
X137922000Y-95250000D02*
X136144000Y-97028000D01*
%TO.N,/D2*%
X148060529Y-107191211D02*
X148412000Y-107542682D01*
X147777686Y-107191211D02*
X148060529Y-107191211D01*
X148466003Y-101654683D02*
X146958000Y-103162686D01*
X146958000Y-103162686D02*
X146958000Y-106371525D01*
X148412000Y-107542682D02*
X148412000Y-108243371D01*
X147444532Y-98044000D02*
X148466003Y-99065471D01*
X141148000Y-112814000D02*
X139192000Y-114770000D01*
X148466003Y-99065471D02*
X148466003Y-101654683D01*
X143841371Y-112814000D02*
X141148000Y-112814000D01*
X145034000Y-98044000D02*
X147444532Y-98044000D01*
X146958000Y-106371525D02*
X147777686Y-107191211D01*
X148412000Y-108243371D02*
X143841371Y-112814000D01*
%TO.N,/D4*%
X142367000Y-109093000D02*
X142408186Y-109051814D01*
X142408186Y-109051814D02*
X142408186Y-105087120D01*
%TO.N,/D3*%
X140970000Y-111252000D02*
X141478000Y-111760000D01*
X141287500Y-104140000D02*
X140970000Y-104457500D01*
X140970000Y-104457500D02*
X140970000Y-111252000D01*
%TO.N,/D6*%
X148373000Y-111289000D02*
X147193000Y-111289000D01*
X149352000Y-112268000D02*
X148373000Y-111289000D01*
%TO.N,/D7*%
X150749000Y-112141000D02*
X150749000Y-111633000D01*
X149241000Y-110125000D02*
X149241000Y-105807000D01*
X150749000Y-111633000D02*
X149241000Y-110125000D01*
X149241000Y-105807000D02*
X147955000Y-104521000D01*
%TO.N,/D8*%
X149992471Y-107350000D02*
X149641000Y-107701471D01*
X153632000Y-111174629D02*
X153632000Y-111976000D01*
X153508000Y-109693000D02*
X154100629Y-110285629D01*
X149641000Y-107701471D02*
X149641000Y-108198529D01*
X154100629Y-110706000D02*
X153632000Y-111174629D01*
X153632000Y-111976000D02*
X154432000Y-112776000D01*
X154100629Y-110285629D02*
X154100629Y-110706000D01*
X150892000Y-105045000D02*
X150892000Y-106791000D01*
X150892000Y-106791000D02*
X150333000Y-107350000D01*
X150333000Y-107350000D02*
X149992471Y-107350000D01*
X151135471Y-109693000D02*
X153508000Y-109693000D01*
X150241000Y-104521000D02*
X150368000Y-104521000D01*
X150368000Y-104521000D02*
X150892000Y-105045000D01*
X149641000Y-108198529D02*
X151135471Y-109693000D01*
%TO.N,/RX*%
X143548000Y-94028529D02*
X143548000Y-89370000D01*
X145288000Y-87630000D02*
X164122000Y-87630000D01*
X143036314Y-99914000D02*
X140986000Y-97863686D01*
X164122000Y-87630000D02*
X165862000Y-89370000D01*
X143548000Y-89370000D02*
X145288000Y-87630000D01*
X147866003Y-99314000D02*
X147866003Y-99362526D01*
X147314529Y-99914000D02*
X143036314Y-99914000D01*
X147866003Y-99362526D02*
X147314529Y-99914000D01*
X140986000Y-97863686D02*
X140986000Y-96590529D01*
X140986000Y-96590529D02*
X143548000Y-94028529D01*
%TO.N,/TX*%
X141386000Y-97698000D02*
X143002000Y-99314000D01*
X141386000Y-97033471D02*
X144272000Y-94147471D01*
X144272000Y-94147471D02*
X144272000Y-89408000D01*
X144272000Y-89408000D02*
X145542000Y-88138000D01*
X145542000Y-88138000D02*
X162090000Y-88138000D01*
X141386000Y-97033471D02*
X141386000Y-97698000D01*
X143002000Y-99314000D02*
X147066000Y-99314000D01*
X162090000Y-88138000D02*
X163322000Y-89370000D01*
%TO.N,/RESET*%
X151721735Y-105153206D02*
X151721735Y-106596265D01*
X151721735Y-106596265D02*
X153421471Y-108296000D01*
X149733000Y-101854000D02*
X149733000Y-103164471D01*
X149606000Y-101727000D02*
X149733000Y-101854000D01*
X149606000Y-99822000D02*
X149606000Y-101727000D01*
X151221735Y-107985265D02*
X151221735Y-107096265D01*
X168945000Y-108296000D02*
X169799000Y-107442000D01*
X153421471Y-108296000D02*
X168945000Y-108296000D01*
X151221735Y-107096265D02*
X151721735Y-106596265D01*
X149733000Y-103164471D02*
X151721735Y-105153206D01*
%TO.N,/MOSI*%
X155606000Y-105760000D02*
X168878346Y-105760000D01*
X169552000Y-103460000D02*
X170942000Y-102070000D01*
X153670000Y-107696000D02*
X155606000Y-105760000D01*
X168878346Y-105760000D02*
X169552000Y-105086346D01*
X169552000Y-105086346D02*
X169552000Y-103460000D01*
%TD*%
%TA.AperFunction,Conductor*%
%TO.N,GND*%
G36*
X144505941Y-87350185D02*
G01*
X144551696Y-87402989D01*
X144561640Y-87472147D01*
X144532615Y-87535703D01*
X144526583Y-87542181D01*
X143067481Y-89001282D01*
X143067479Y-89001284D01*
X143052059Y-89027993D01*
X143045541Y-89039284D01*
X142988423Y-89138215D01*
X142947499Y-89290943D01*
X142947499Y-89290945D01*
X142947499Y-89459046D01*
X142947500Y-89459059D01*
X142947500Y-93728432D01*
X142927815Y-93795471D01*
X142911181Y-93816113D01*
X142636085Y-94091208D01*
X142574762Y-94124693D01*
X142505070Y-94119709D01*
X142482432Y-94108521D01*
X142335521Y-94016210D01*
X142165249Y-93956630D01*
X142078330Y-93946837D01*
X142013916Y-93919770D01*
X142004533Y-93911298D01*
X139606819Y-91513584D01*
X139573334Y-91452261D01*
X139570500Y-91425903D01*
X139570500Y-90664601D01*
X140930500Y-90664601D01*
X140930500Y-91425881D01*
X141085119Y-91580500D01*
X141949500Y-91580500D01*
X141949500Y-90469891D01*
X141938202Y-90461360D01*
X141773852Y-90311535D01*
X141758436Y-90294625D01*
X141624414Y-90117152D01*
X141612368Y-90097696D01*
X141602810Y-90078500D01*
X141211505Y-90078500D01*
X141202259Y-90113008D01*
X141200744Y-90118205D01*
X141190895Y-90149440D01*
X141189154Y-90154568D01*
X141174253Y-90195500D01*
X141172295Y-90200535D01*
X141159777Y-90230756D01*
X141157598Y-90235708D01*
X141039328Y-90489337D01*
X141036936Y-90494188D01*
X141021829Y-90523209D01*
X141019229Y-90527949D01*
X140997451Y-90565673D01*
X140994642Y-90570302D01*
X140977050Y-90597916D01*
X140974044Y-90602415D01*
X140930500Y-90664601D01*
X139570500Y-90664601D01*
X139570500Y-90659090D01*
X139590185Y-90592051D01*
X139642101Y-90546706D01*
X139647830Y-90544035D01*
X139841401Y-90408495D01*
X140008495Y-90241401D01*
X140144035Y-90047830D01*
X140243903Y-89833663D01*
X140305063Y-89605408D01*
X140325659Y-89370000D01*
X140305063Y-89134592D01*
X140243903Y-88906337D01*
X140144035Y-88692171D01*
X140138425Y-88684158D01*
X140008494Y-88498597D01*
X139841402Y-88331506D01*
X139841395Y-88331501D01*
X139647834Y-88195967D01*
X139647830Y-88195965D01*
X139647828Y-88195964D01*
X139433663Y-88096097D01*
X139433659Y-88096096D01*
X139433655Y-88096094D01*
X139205413Y-88034938D01*
X139205403Y-88034936D01*
X138970001Y-88014341D01*
X138969999Y-88014341D01*
X138734596Y-88034936D01*
X138734586Y-88034938D01*
X138506344Y-88096094D01*
X138506335Y-88096098D01*
X138292171Y-88195964D01*
X138292169Y-88195965D01*
X138098597Y-88331505D01*
X137931505Y-88498597D01*
X137801575Y-88684158D01*
X137746998Y-88727783D01*
X137677500Y-88734977D01*
X137615145Y-88703454D01*
X137598425Y-88684158D01*
X137468494Y-88498597D01*
X137301402Y-88331506D01*
X137301395Y-88331501D01*
X137107834Y-88195967D01*
X137107830Y-88195965D01*
X137107828Y-88195964D01*
X136893663Y-88096097D01*
X136893659Y-88096096D01*
X136893655Y-88096094D01*
X136665413Y-88034938D01*
X136665403Y-88034936D01*
X136430001Y-88014341D01*
X136429999Y-88014341D01*
X136194596Y-88034936D01*
X136194586Y-88034938D01*
X135966344Y-88096094D01*
X135966335Y-88096098D01*
X135752171Y-88195964D01*
X135752169Y-88195965D01*
X135558597Y-88331505D01*
X135391505Y-88498597D01*
X135261575Y-88684158D01*
X135206998Y-88727783D01*
X135137500Y-88734977D01*
X135075145Y-88703454D01*
X135058425Y-88684158D01*
X134928494Y-88498597D01*
X134761402Y-88331506D01*
X134761395Y-88331501D01*
X134567834Y-88195967D01*
X134567830Y-88195965D01*
X134567828Y-88195964D01*
X134353663Y-88096097D01*
X134353659Y-88096096D01*
X134353655Y-88096094D01*
X134125413Y-88034938D01*
X134125403Y-88034936D01*
X133890001Y-88014341D01*
X133889999Y-88014341D01*
X133654596Y-88034936D01*
X133654586Y-88034938D01*
X133426344Y-88096094D01*
X133426335Y-88096098D01*
X133212171Y-88195964D01*
X133212169Y-88195965D01*
X133018600Y-88331503D01*
X132896284Y-88453819D01*
X132834961Y-88487303D01*
X132765269Y-88482319D01*
X132709336Y-88440447D01*
X132692421Y-88409470D01*
X132643354Y-88277913D01*
X132643350Y-88277906D01*
X132557190Y-88162812D01*
X132557187Y-88162809D01*
X132442093Y-88076649D01*
X132442086Y-88076645D01*
X132307379Y-88026403D01*
X132307372Y-88026401D01*
X132247844Y-88020000D01*
X131600000Y-88020000D01*
X131600000Y-88936988D01*
X131542993Y-88904075D01*
X131415826Y-88870000D01*
X131284174Y-88870000D01*
X131157007Y-88904075D01*
X131100000Y-88936988D01*
X131100000Y-88020000D01*
X130452155Y-88020000D01*
X130392627Y-88026401D01*
X130392620Y-88026403D01*
X130257913Y-88076645D01*
X130257906Y-88076649D01*
X130142812Y-88162809D01*
X130142809Y-88162812D01*
X130056649Y-88277906D01*
X130056645Y-88277913D01*
X130006403Y-88412620D01*
X130006401Y-88412627D01*
X130000000Y-88472155D01*
X130000000Y-89120000D01*
X130916988Y-89120000D01*
X130884075Y-89177007D01*
X130850000Y-89304174D01*
X130850000Y-89435826D01*
X130884075Y-89562993D01*
X130916988Y-89620000D01*
X130000000Y-89620000D01*
X130000000Y-90267844D01*
X130006401Y-90327372D01*
X130006403Y-90327379D01*
X130056645Y-90462086D01*
X130056649Y-90462093D01*
X130142809Y-90577187D01*
X130142812Y-90577190D01*
X130257906Y-90663350D01*
X130257913Y-90663354D01*
X130392620Y-90713596D01*
X130392627Y-90713598D01*
X130452155Y-90719999D01*
X130452172Y-90720000D01*
X131100000Y-90720000D01*
X131100000Y-89803012D01*
X131157007Y-89835925D01*
X131284174Y-89870000D01*
X131415826Y-89870000D01*
X131542993Y-89835925D01*
X131600000Y-89803012D01*
X131600000Y-90720000D01*
X132247828Y-90720000D01*
X132247844Y-90719999D01*
X132307372Y-90713598D01*
X132307379Y-90713596D01*
X132442086Y-90663354D01*
X132442093Y-90663350D01*
X132557187Y-90577190D01*
X132557190Y-90577187D01*
X132643350Y-90462093D01*
X132643354Y-90462086D01*
X132692422Y-90330529D01*
X132734293Y-90274595D01*
X132799757Y-90250178D01*
X132868030Y-90265030D01*
X132896285Y-90286181D01*
X133018599Y-90408495D01*
X133115384Y-90476265D01*
X133212165Y-90544032D01*
X133212167Y-90544033D01*
X133212170Y-90544035D01*
X133426337Y-90643903D01*
X133654592Y-90705063D01*
X133825319Y-90720000D01*
X133889999Y-90725659D01*
X133890000Y-90725659D01*
X133890001Y-90725659D01*
X133954681Y-90720000D01*
X134125408Y-90705063D01*
X134353663Y-90643903D01*
X134567830Y-90544035D01*
X134761401Y-90408495D01*
X134928495Y-90241401D01*
X135058425Y-90055842D01*
X135113002Y-90012217D01*
X135182500Y-90005023D01*
X135244855Y-90036546D01*
X135261575Y-90055842D01*
X135391500Y-90241395D01*
X135391505Y-90241401D01*
X135558599Y-90408495D01*
X135655384Y-90476265D01*
X135752165Y-90544032D01*
X135752167Y-90544033D01*
X135752170Y-90544035D01*
X135966337Y-90643903D01*
X136194592Y-90705063D01*
X136365319Y-90720000D01*
X136429999Y-90725659D01*
X136430000Y-90725659D01*
X136430001Y-90725659D01*
X136494681Y-90720000D01*
X136665408Y-90705063D01*
X136893663Y-90643903D01*
X137107830Y-90544035D01*
X137301401Y-90408495D01*
X137468495Y-90241401D01*
X137598425Y-90055842D01*
X137653002Y-90012217D01*
X137722500Y-90005023D01*
X137784855Y-90036546D01*
X137801575Y-90055842D01*
X137931500Y-90241395D01*
X137931505Y-90241401D01*
X138098599Y-90408495D01*
X138195384Y-90476265D01*
X138292165Y-90544032D01*
X138292167Y-90544033D01*
X138292170Y-90544035D01*
X138297898Y-90546706D01*
X138350339Y-90592872D01*
X138369500Y-90659090D01*
X138369500Y-91081732D01*
X138349815Y-91148771D01*
X138297011Y-91194526D01*
X138227853Y-91204470D01*
X138204546Y-91198774D01*
X138101257Y-91162632D01*
X138101249Y-91162630D01*
X137922004Y-91142435D01*
X137921996Y-91142435D01*
X137742750Y-91162630D01*
X137742745Y-91162631D01*
X137572476Y-91222211D01*
X137419737Y-91318184D01*
X137292184Y-91445737D01*
X137196211Y-91598476D01*
X137136631Y-91768745D01*
X137136630Y-91768750D01*
X137116435Y-91947996D01*
X137116435Y-91948003D01*
X137136630Y-92127249D01*
X137136631Y-92127254D01*
X137196211Y-92297523D01*
X137292185Y-92450263D01*
X137294445Y-92453097D01*
X137295334Y-92455275D01*
X137295889Y-92456158D01*
X137295734Y-92456255D01*
X137320855Y-92517783D01*
X137321500Y-92530412D01*
X137321500Y-94949902D01*
X137301815Y-95016941D01*
X137285181Y-95037583D01*
X136125465Y-96197298D01*
X136064142Y-96230783D01*
X136051668Y-96232837D01*
X135964750Y-96242630D01*
X135794478Y-96302210D01*
X135641737Y-96398184D01*
X135514184Y-96525737D01*
X135418211Y-96678476D01*
X135358631Y-96848745D01*
X135358630Y-96848750D01*
X135338435Y-97027996D01*
X135338435Y-97028003D01*
X135358630Y-97207249D01*
X135358631Y-97207254D01*
X135418211Y-97377523D01*
X135486348Y-97485961D01*
X135514184Y-97530262D01*
X135547400Y-97563478D01*
X135573662Y-97589740D01*
X135607146Y-97651064D01*
X135602161Y-97720755D01*
X135573661Y-97765102D01*
X135013286Y-98325478D01*
X134901481Y-98437282D01*
X134901479Y-98437285D01*
X134855631Y-98516698D01*
X134855630Y-98516699D01*
X134822423Y-98574214D01*
X134822423Y-98574215D01*
X134781499Y-98726943D01*
X134781499Y-98726945D01*
X134781499Y-98895046D01*
X134781500Y-98895059D01*
X134781500Y-101692330D01*
X134781499Y-101692348D01*
X134781499Y-101858054D01*
X134781498Y-101858054D01*
X134805198Y-101946500D01*
X134822423Y-102010785D01*
X134825578Y-102016250D01*
X134825580Y-102016256D01*
X134825582Y-102016256D01*
X134901477Y-102147712D01*
X134901481Y-102147717D01*
X135020349Y-102266585D01*
X135020355Y-102266590D01*
X136075298Y-103321533D01*
X136108783Y-103382856D01*
X136110837Y-103395330D01*
X136120630Y-103482249D01*
X136180210Y-103652521D01*
X136234502Y-103738926D01*
X136276184Y-103805262D01*
X136403738Y-103932816D01*
X136444840Y-103958642D01*
X136553326Y-104026809D01*
X136556478Y-104028789D01*
X136726745Y-104088368D01*
X136795384Y-104096101D01*
X136859796Y-104123166D01*
X136899352Y-104180760D01*
X136905500Y-104219321D01*
X136905500Y-104443060D01*
X136885815Y-104510099D01*
X136869181Y-104530741D01*
X136784184Y-104615737D01*
X136688210Y-104768478D01*
X136628630Y-104938750D01*
X136618837Y-105025668D01*
X136591770Y-105090082D01*
X136583298Y-105099465D01*
X131711286Y-109971478D01*
X131599481Y-110083282D01*
X131599479Y-110083285D01*
X131549361Y-110170094D01*
X131549359Y-110170096D01*
X131520425Y-110220209D01*
X131520424Y-110220210D01*
X131520423Y-110220215D01*
X131479499Y-110372943D01*
X131479499Y-110372945D01*
X131479499Y-110541046D01*
X131479500Y-110541059D01*
X131479500Y-111431587D01*
X131459815Y-111498626D01*
X131452450Y-111508896D01*
X131450186Y-111511734D01*
X131354211Y-111664476D01*
X131294631Y-111834745D01*
X131294630Y-111834750D01*
X131274435Y-112013996D01*
X131274435Y-112014003D01*
X131294630Y-112193249D01*
X131294631Y-112193254D01*
X131354211Y-112363523D01*
X131412646Y-112456521D01*
X131450184Y-112516262D01*
X131577738Y-112643816D01*
X131668080Y-112700582D01*
X131730124Y-112739567D01*
X131730478Y-112739789D01*
X131886927Y-112794533D01*
X131900745Y-112799368D01*
X131900750Y-112799369D01*
X132079996Y-112819565D01*
X132080000Y-112819565D01*
X132080004Y-112819565D01*
X132259249Y-112799369D01*
X132259252Y-112799368D01*
X132259255Y-112799368D01*
X132429522Y-112739789D01*
X132582262Y-112643816D01*
X132709816Y-112516262D01*
X132805789Y-112363522D01*
X132865368Y-112193255D01*
X132865369Y-112193249D01*
X132885565Y-112014003D01*
X132885565Y-112013996D01*
X132865369Y-111834750D01*
X132865368Y-111834745D01*
X132850228Y-111791478D01*
X132805789Y-111664478D01*
X132789615Y-111638738D01*
X132753022Y-111580500D01*
X132709816Y-111511738D01*
X132709814Y-111511736D01*
X132709813Y-111511734D01*
X132707550Y-111508896D01*
X132706659Y-111506715D01*
X132706111Y-111505842D01*
X132706264Y-111505745D01*
X132681144Y-111444209D01*
X132680500Y-111431587D01*
X132680500Y-111114117D01*
X133678500Y-111114117D01*
X133678500Y-111179942D01*
X133689608Y-111200041D01*
X133692801Y-111206221D01*
X133717105Y-111256688D01*
X133719945Y-111263035D01*
X133736053Y-111301921D01*
X133738535Y-111308422D01*
X133816616Y-111531566D01*
X133818728Y-111538193D01*
X133830381Y-111578642D01*
X133830860Y-111580500D01*
X134932500Y-111580500D01*
X135930500Y-111580500D01*
X137432500Y-111580500D01*
X138430500Y-111580500D01*
X139403131Y-111580500D01*
X139397048Y-111557798D01*
X139395206Y-111549895D01*
X139385628Y-111501743D01*
X139384306Y-111493741D01*
X139375773Y-111428941D01*
X139374978Y-111420864D01*
X139371765Y-111371854D01*
X139371499Y-111363742D01*
X139371499Y-111144585D01*
X139371500Y-111144546D01*
X139371500Y-110078500D01*
X138430500Y-110078500D01*
X138430500Y-111580500D01*
X137432500Y-111580500D01*
X137432500Y-110078500D01*
X135930500Y-110078500D01*
X135930500Y-111580500D01*
X134932500Y-111580500D01*
X134932500Y-110078500D01*
X134714117Y-110078500D01*
X133678500Y-111114117D01*
X132680500Y-111114117D01*
X132680500Y-110752096D01*
X132700185Y-110685057D01*
X132716814Y-110664420D01*
X134519118Y-108862116D01*
X135930500Y-108862116D01*
X135930500Y-109080500D01*
X137432500Y-109080500D01*
X138430500Y-109080500D01*
X139371500Y-109080500D01*
X139371500Y-107578500D01*
X138430500Y-107578500D01*
X138430500Y-109080500D01*
X137432500Y-109080500D01*
X137432500Y-107578500D01*
X137214116Y-107578500D01*
X135930500Y-108862116D01*
X134519118Y-108862116D01*
X136800733Y-106580500D01*
X138466880Y-106580500D01*
X139371500Y-106580500D01*
X139371500Y-105088500D01*
X139217523Y-105088500D01*
X139217565Y-105089993D01*
X139217565Y-105146007D01*
X139217370Y-105152961D01*
X139215010Y-105194979D01*
X139214425Y-105201908D01*
X139187958Y-105436820D01*
X139186986Y-105443707D01*
X139179938Y-105485191D01*
X139178582Y-105492011D01*
X139166119Y-105546621D01*
X139164381Y-105553358D01*
X139152728Y-105593807D01*
X139150616Y-105600434D01*
X139072535Y-105823578D01*
X139070053Y-105830079D01*
X139053945Y-105868965D01*
X139051105Y-105875312D01*
X139026801Y-105925779D01*
X139023608Y-105931959D01*
X139003252Y-105968790D01*
X138999719Y-105974780D01*
X138873944Y-106174948D01*
X138870078Y-106180733D01*
X138845720Y-106215061D01*
X138841538Y-106220618D01*
X138806614Y-106264410D01*
X138802127Y-106269724D01*
X138774087Y-106301100D01*
X138769309Y-106306153D01*
X138602153Y-106473309D01*
X138597100Y-106478087D01*
X138565724Y-106506127D01*
X138560410Y-106510614D01*
X138516618Y-106545538D01*
X138511061Y-106549720D01*
X138476733Y-106574078D01*
X138470948Y-106577944D01*
X138466880Y-106580500D01*
X136800733Y-106580500D01*
X137432535Y-105948698D01*
X137493856Y-105915215D01*
X137506311Y-105913163D01*
X137593255Y-105903368D01*
X137763522Y-105843789D01*
X137916262Y-105747816D01*
X138043816Y-105620262D01*
X138139789Y-105467522D01*
X138199368Y-105297255D01*
X138199369Y-105297249D01*
X138219565Y-105118003D01*
X138219565Y-105117996D01*
X138199369Y-104938750D01*
X138199366Y-104938737D01*
X138139790Y-104768481D01*
X138139789Y-104768478D01*
X138125505Y-104745745D01*
X138106500Y-104679775D01*
X138106500Y-104214500D01*
X138126185Y-104147461D01*
X138178989Y-104101706D01*
X138230500Y-104090500D01*
X138240598Y-104090500D01*
X140285054Y-104090500D01*
X140352093Y-104110185D01*
X140397848Y-104162989D01*
X140407792Y-104232147D01*
X140404830Y-104246584D01*
X140369499Y-104378443D01*
X140369499Y-104378445D01*
X140369499Y-104546546D01*
X140369500Y-104546559D01*
X140369500Y-111165330D01*
X140369499Y-111165348D01*
X140369499Y-111331054D01*
X140369498Y-111331054D01*
X140369499Y-111331057D01*
X140407995Y-111474725D01*
X140410423Y-111483784D01*
X140410423Y-111483785D01*
X140414298Y-111490498D01*
X140414300Y-111490500D01*
X140489477Y-111620712D01*
X140489481Y-111620717D01*
X140608349Y-111739585D01*
X140608355Y-111739590D01*
X140647298Y-111778533D01*
X140680783Y-111839856D01*
X140682837Y-111852330D01*
X140692630Y-111939249D01*
X140752210Y-112109522D01*
X140796467Y-112179956D01*
X140815467Y-112247193D01*
X140795099Y-112314028D01*
X140779154Y-112333609D01*
X139729582Y-113383181D01*
X139668259Y-113416666D01*
X139641901Y-113419500D01*
X138294129Y-113419500D01*
X138294123Y-113419501D01*
X138234516Y-113425908D01*
X138099671Y-113476202D01*
X138099664Y-113476206D01*
X137984455Y-113562452D01*
X137984452Y-113562455D01*
X137898206Y-113677664D01*
X137898202Y-113677671D01*
X137847908Y-113812517D01*
X137841501Y-113872116D01*
X137841500Y-113872135D01*
X137841500Y-115667870D01*
X137841501Y-115667876D01*
X137847908Y-115727483D01*
X137898202Y-115862328D01*
X137898206Y-115862335D01*
X137984452Y-115977544D01*
X137984455Y-115977547D01*
X138099664Y-116063793D01*
X138099671Y-116063797D01*
X138234517Y-116114091D01*
X138234516Y-116114091D01*
X138241444Y-116114835D01*
X138294127Y-116120500D01*
X140089872Y-116120499D01*
X140149483Y-116114091D01*
X140284331Y-116063796D01*
X140399546Y-115977546D01*
X140485796Y-115862331D01*
X140534810Y-115730916D01*
X140576681Y-115674984D01*
X140642145Y-115650566D01*
X140710418Y-115665417D01*
X140738673Y-115686569D01*
X140860599Y-115808495D01*
X140957384Y-115876265D01*
X141054165Y-115944032D01*
X141054167Y-115944033D01*
X141054170Y-115944035D01*
X141268337Y-116043903D01*
X141496592Y-116105063D01*
X141673034Y-116120500D01*
X141731999Y-116125659D01*
X141732000Y-116125659D01*
X141732001Y-116125659D01*
X141790966Y-116120500D01*
X141967408Y-116105063D01*
X142195663Y-116043903D01*
X142409830Y-115944035D01*
X142603401Y-115808495D01*
X142770495Y-115641401D01*
X142900425Y-115455842D01*
X142955002Y-115412217D01*
X143024500Y-115405023D01*
X143086855Y-115436546D01*
X143103575Y-115455842D01*
X143233500Y-115641395D01*
X143233505Y-115641401D01*
X143400599Y-115808495D01*
X143497384Y-115876265D01*
X143594165Y-115944032D01*
X143594167Y-115944033D01*
X143594170Y-115944035D01*
X143808337Y-116043903D01*
X144036592Y-116105063D01*
X144213034Y-116120500D01*
X144271999Y-116125659D01*
X144272000Y-116125659D01*
X144272001Y-116125659D01*
X144330966Y-116120500D01*
X144507408Y-116105063D01*
X144735663Y-116043903D01*
X144949830Y-115944035D01*
X145143401Y-115808495D01*
X145310495Y-115641401D01*
X145440425Y-115455842D01*
X145495002Y-115412217D01*
X145564500Y-115405023D01*
X145626855Y-115436546D01*
X145643575Y-115455842D01*
X145773500Y-115641395D01*
X145773505Y-115641401D01*
X145940599Y-115808495D01*
X146037384Y-115876265D01*
X146134165Y-115944032D01*
X146134167Y-115944033D01*
X146134170Y-115944035D01*
X146348337Y-116043903D01*
X146576592Y-116105063D01*
X146753034Y-116120500D01*
X146811999Y-116125659D01*
X146812000Y-116125659D01*
X146812001Y-116125659D01*
X146870966Y-116120500D01*
X147047408Y-116105063D01*
X147275663Y-116043903D01*
X147489830Y-115944035D01*
X147683401Y-115808495D01*
X147850495Y-115641401D01*
X147980425Y-115455842D01*
X148035002Y-115412217D01*
X148104500Y-115405023D01*
X148166855Y-115436546D01*
X148183575Y-115455842D01*
X148313500Y-115641395D01*
X148313505Y-115641401D01*
X148480599Y-115808495D01*
X148577384Y-115876265D01*
X148674165Y-115944032D01*
X148674167Y-115944033D01*
X148674170Y-115944035D01*
X148888337Y-116043903D01*
X149116592Y-116105063D01*
X149293034Y-116120500D01*
X149351999Y-116125659D01*
X149352000Y-116125659D01*
X149352001Y-116125659D01*
X149410966Y-116120500D01*
X149587408Y-116105063D01*
X149815663Y-116043903D01*
X150029830Y-115944035D01*
X150223401Y-115808495D01*
X150390495Y-115641401D01*
X150520425Y-115455842D01*
X150575002Y-115412217D01*
X150644500Y-115405023D01*
X150706855Y-115436546D01*
X150723575Y-115455842D01*
X150853500Y-115641395D01*
X150853505Y-115641401D01*
X151020599Y-115808495D01*
X151117384Y-115876265D01*
X151214165Y-115944032D01*
X151214167Y-115944033D01*
X151214170Y-115944035D01*
X151428337Y-116043903D01*
X151656592Y-116105063D01*
X151833034Y-116120500D01*
X151891999Y-116125659D01*
X151892000Y-116125659D01*
X151892001Y-116125659D01*
X151950966Y-116120500D01*
X152127408Y-116105063D01*
X152355663Y-116043903D01*
X152569830Y-115944035D01*
X152763401Y-115808495D01*
X152930495Y-115641401D01*
X153060425Y-115455842D01*
X153115002Y-115412217D01*
X153184500Y-115405023D01*
X153246855Y-115436546D01*
X153263575Y-115455842D01*
X153393500Y-115641395D01*
X153393505Y-115641401D01*
X153560599Y-115808495D01*
X153657384Y-115876265D01*
X153754165Y-115944032D01*
X153754167Y-115944033D01*
X153754170Y-115944035D01*
X153968337Y-116043903D01*
X154196592Y-116105063D01*
X154373034Y-116120500D01*
X154431999Y-116125659D01*
X154432000Y-116125659D01*
X154432001Y-116125659D01*
X154490966Y-116120500D01*
X154667408Y-116105063D01*
X154895663Y-116043903D01*
X155109830Y-115944035D01*
X155303401Y-115808495D01*
X155470495Y-115641401D01*
X155600730Y-115455405D01*
X155655307Y-115411781D01*
X155724805Y-115404587D01*
X155787160Y-115436110D01*
X155803879Y-115455405D01*
X155933890Y-115641078D01*
X156100917Y-115808105D01*
X156294421Y-115943600D01*
X156508507Y-116043429D01*
X156508516Y-116043433D01*
X156722000Y-116100634D01*
X156722000Y-115203012D01*
X156779007Y-115235925D01*
X156906174Y-115270000D01*
X157037826Y-115270000D01*
X157164993Y-115235925D01*
X157222000Y-115203012D01*
X157222000Y-116100633D01*
X157435483Y-116043433D01*
X157435492Y-116043429D01*
X157649578Y-115943600D01*
X157843082Y-115808105D01*
X158010105Y-115641082D01*
X158140119Y-115455405D01*
X158194696Y-115411781D01*
X158264195Y-115404588D01*
X158326549Y-115436110D01*
X158343269Y-115455405D01*
X158473505Y-115641401D01*
X158640599Y-115808495D01*
X158737384Y-115876265D01*
X158834165Y-115944032D01*
X158834167Y-115944033D01*
X158834170Y-115944035D01*
X159048337Y-116043903D01*
X159276592Y-116105063D01*
X159453034Y-116120500D01*
X159511999Y-116125659D01*
X159512000Y-116125659D01*
X159512001Y-116125659D01*
X159570966Y-116120500D01*
X159747408Y-116105063D01*
X159975663Y-116043903D01*
X160189830Y-115944035D01*
X160379109Y-115811500D01*
X161617624Y-115811500D01*
X162432500Y-115811500D01*
X163430500Y-115811500D01*
X164932500Y-115811500D01*
X165930500Y-115811500D01*
X167151000Y-115811500D01*
X167151000Y-115078500D01*
X165930500Y-115078500D01*
X165930500Y-115811500D01*
X164932500Y-115811500D01*
X164932500Y-115078500D01*
X163430500Y-115078500D01*
X163430500Y-115811500D01*
X162432500Y-115811500D01*
X162432500Y-115078500D01*
X161842480Y-115078500D01*
X161839367Y-115114085D01*
X161838778Y-115119461D01*
X161834507Y-115151904D01*
X161833684Y-115157251D01*
X161826121Y-115200146D01*
X161825066Y-115205454D01*
X161817981Y-115237412D01*
X161816695Y-115242666D01*
X161744259Y-115513008D01*
X161742744Y-115518205D01*
X161732895Y-115549440D01*
X161731154Y-115554568D01*
X161716253Y-115595500D01*
X161714295Y-115600535D01*
X161701777Y-115630756D01*
X161699598Y-115635708D01*
X161617624Y-115811500D01*
X160379109Y-115811500D01*
X160383401Y-115808495D01*
X160550495Y-115641401D01*
X160686035Y-115447830D01*
X160785903Y-115233663D01*
X160847063Y-115005408D01*
X160867659Y-114770000D01*
X160847063Y-114534592D01*
X160785903Y-114306337D01*
X160686035Y-114092171D01*
X160680731Y-114084595D01*
X160550494Y-113898597D01*
X160383402Y-113731506D01*
X160383395Y-113731501D01*
X160189834Y-113595967D01*
X160189830Y-113595965D01*
X160189821Y-113595961D01*
X159975663Y-113496097D01*
X159975659Y-113496096D01*
X159975655Y-113496094D01*
X159747413Y-113434938D01*
X159747403Y-113434936D01*
X159512001Y-113414341D01*
X159511999Y-113414341D01*
X159276596Y-113434936D01*
X159276586Y-113434938D01*
X159048344Y-113496094D01*
X159048335Y-113496098D01*
X158834171Y-113595964D01*
X158834169Y-113595965D01*
X158640597Y-113731505D01*
X158473508Y-113898594D01*
X158343269Y-114084595D01*
X158288692Y-114128219D01*
X158219193Y-114135412D01*
X158156839Y-114103890D01*
X158140119Y-114084594D01*
X158010113Y-113898926D01*
X158010108Y-113898920D01*
X157843082Y-113731894D01*
X157649578Y-113596399D01*
X157435492Y-113496570D01*
X157435486Y-113496567D01*
X157222000Y-113439364D01*
X157222000Y-114336988D01*
X157164993Y-114304075D01*
X157037826Y-114270000D01*
X156906174Y-114270000D01*
X156779007Y-114304075D01*
X156722000Y-114336988D01*
X156722000Y-113439364D01*
X156721999Y-113439364D01*
X156508513Y-113496567D01*
X156508507Y-113496570D01*
X156294422Y-113596399D01*
X156294420Y-113596400D01*
X156100926Y-113731886D01*
X156100920Y-113731891D01*
X155933891Y-113898920D01*
X155933890Y-113898922D01*
X155803880Y-114084595D01*
X155749303Y-114128219D01*
X155679804Y-114135412D01*
X155617450Y-114103890D01*
X155600730Y-114084594D01*
X155470494Y-113898597D01*
X155303402Y-113731506D01*
X155303395Y-113731501D01*
X155109834Y-113595967D01*
X155087383Y-113585498D01*
X155037966Y-113562454D01*
X155020913Y-113554502D01*
X154968474Y-113508329D01*
X154949323Y-113441135D01*
X154969539Y-113374254D01*
X154985629Y-113354448D01*
X155061816Y-113278262D01*
X155157789Y-113125522D01*
X155217368Y-112955255D01*
X155217621Y-112953012D01*
X155224016Y-112896254D01*
X160930500Y-112896254D01*
X160973678Y-112926488D01*
X160978042Y-112929689D01*
X161004022Y-112949625D01*
X161008243Y-112953012D01*
X161041610Y-112981012D01*
X161045678Y-112984580D01*
X161069794Y-113006680D01*
X161073698Y-113010418D01*
X161271590Y-113208309D01*
X161275330Y-113212216D01*
X161297449Y-113236354D01*
X161301020Y-113240426D01*
X161329018Y-113273795D01*
X161332403Y-113278012D01*
X161352323Y-113303973D01*
X161355521Y-113308335D01*
X161516040Y-113537581D01*
X161519046Y-113542080D01*
X161536628Y-113569679D01*
X161539433Y-113574301D01*
X161561212Y-113612022D01*
X161563814Y-113616765D01*
X161578930Y-113645801D01*
X161581324Y-113650655D01*
X161699598Y-113904292D01*
X161701777Y-113909244D01*
X161714295Y-113939465D01*
X161716253Y-113944500D01*
X161731154Y-113985432D01*
X161732895Y-113990560D01*
X161742744Y-114021795D01*
X161744259Y-114026992D01*
X161758596Y-114080500D01*
X162432500Y-114080500D01*
X163430500Y-114080500D01*
X164932500Y-114080500D01*
X165930500Y-114080500D01*
X167151000Y-114080500D01*
X167151000Y-112578500D01*
X165930500Y-112578500D01*
X165930500Y-114080500D01*
X164932500Y-114080500D01*
X164932500Y-112578500D01*
X163430500Y-112578500D01*
X163430500Y-114080500D01*
X162432500Y-114080500D01*
X162432500Y-112578500D01*
X160930500Y-112578500D01*
X160930500Y-112896254D01*
X155224016Y-112896254D01*
X155237565Y-112776003D01*
X155237565Y-112775996D01*
X155217369Y-112596750D01*
X155217368Y-112596745D01*
X155170773Y-112463585D01*
X155157789Y-112426478D01*
X155061816Y-112273738D01*
X154934262Y-112146184D01*
X154926005Y-112140996D01*
X154781521Y-112050210D01*
X154611249Y-111990630D01*
X154524330Y-111980837D01*
X154459916Y-111953770D01*
X154450533Y-111945298D01*
X154268819Y-111763584D01*
X154235334Y-111702261D01*
X154232500Y-111675903D01*
X154232500Y-111580500D01*
X155930500Y-111580500D01*
X157432500Y-111580500D01*
X158430500Y-111580500D01*
X159932500Y-111580500D01*
X160930500Y-111580500D01*
X162432500Y-111580500D01*
X163430500Y-111580500D01*
X164932500Y-111580500D01*
X165930500Y-111580500D01*
X167245924Y-111580500D01*
X167432500Y-111393924D01*
X167432500Y-111017000D01*
X168430500Y-111017000D01*
X169932500Y-111017000D01*
X170930500Y-111017000D01*
X171983500Y-111017000D01*
X171983500Y-110078500D01*
X170930500Y-110078500D01*
X170930500Y-111017000D01*
X169932500Y-111017000D01*
X169932500Y-110078500D01*
X168430500Y-110078500D01*
X168430500Y-111017000D01*
X167432500Y-111017000D01*
X167432500Y-110078500D01*
X165930500Y-110078500D01*
X165930500Y-111580500D01*
X164932500Y-111580500D01*
X164932500Y-110078500D01*
X163430500Y-110078500D01*
X163430500Y-111580500D01*
X162432500Y-111580500D01*
X162432500Y-110078500D01*
X160930500Y-110078500D01*
X160930500Y-111580500D01*
X159932500Y-111580500D01*
X159932500Y-110078500D01*
X158430500Y-110078500D01*
X158430500Y-111580500D01*
X157432500Y-111580500D01*
X157432500Y-110078500D01*
X155930500Y-110078500D01*
X155930500Y-111580500D01*
X154232500Y-111580500D01*
X154232500Y-111474725D01*
X154252185Y-111407686D01*
X154268815Y-111387048D01*
X154459135Y-111196727D01*
X154459140Y-111196724D01*
X154469343Y-111186520D01*
X154469345Y-111186520D01*
X154581149Y-111074716D01*
X154660206Y-110937784D01*
X154701129Y-110785057D01*
X154701129Y-110374688D01*
X154701130Y-110374675D01*
X154701130Y-110206574D01*
X154701130Y-110206572D01*
X154660206Y-110053844D01*
X154612653Y-109971480D01*
X154581149Y-109916913D01*
X154469345Y-109805109D01*
X154469344Y-109805108D01*
X154465014Y-109800778D01*
X154465003Y-109800768D01*
X154374447Y-109710212D01*
X154340962Y-109648889D01*
X154345946Y-109579197D01*
X154357135Y-109556558D01*
X154362748Y-109547626D01*
X154404871Y-109480587D01*
X154428788Y-109442524D01*
X154488368Y-109272254D01*
X154488369Y-109272249D01*
X154508565Y-109093003D01*
X154508565Y-109092996D01*
X154501961Y-109034383D01*
X154514016Y-108965561D01*
X154561365Y-108914182D01*
X154625181Y-108896500D01*
X168858331Y-108896500D01*
X168858347Y-108896501D01*
X168865943Y-108896501D01*
X169024054Y-108896501D01*
X169024057Y-108896501D01*
X169176785Y-108855577D01*
X169192499Y-108846504D01*
X170930500Y-108846504D01*
X170930500Y-109080500D01*
X171983500Y-109080500D01*
X171983500Y-107578500D01*
X171593500Y-107578500D01*
X171572958Y-107760820D01*
X171571986Y-107767707D01*
X171564938Y-107809191D01*
X171563582Y-107816011D01*
X171551119Y-107870621D01*
X171549381Y-107877358D01*
X171537728Y-107917807D01*
X171535616Y-107924434D01*
X171457535Y-108147578D01*
X171455053Y-108154079D01*
X171438945Y-108192965D01*
X171436105Y-108199312D01*
X171411801Y-108249779D01*
X171408608Y-108255959D01*
X171388252Y-108292790D01*
X171384719Y-108298780D01*
X171258944Y-108498948D01*
X171255078Y-108504733D01*
X171230720Y-108539061D01*
X171226538Y-108544618D01*
X171191614Y-108588410D01*
X171187127Y-108593724D01*
X171159087Y-108625100D01*
X171154309Y-108630153D01*
X170987153Y-108797309D01*
X170982100Y-108802087D01*
X170950724Y-108830127D01*
X170945410Y-108834614D01*
X170930500Y-108846504D01*
X169192499Y-108846504D01*
X169226904Y-108826639D01*
X169313716Y-108776520D01*
X169425520Y-108664716D01*
X169425520Y-108664714D01*
X169435728Y-108654507D01*
X169435730Y-108654504D01*
X169817535Y-108272698D01*
X169878856Y-108239215D01*
X169891311Y-108237163D01*
X169978255Y-108227368D01*
X170148522Y-108167789D01*
X170301262Y-108071816D01*
X170428816Y-107944262D01*
X170524789Y-107791522D01*
X170584368Y-107621255D01*
X170584369Y-107621249D01*
X170604565Y-107442003D01*
X170604565Y-107441996D01*
X170584369Y-107262750D01*
X170584368Y-107262745D01*
X170524788Y-107092476D01*
X170428815Y-106939737D01*
X170301262Y-106812184D01*
X170148523Y-106716211D01*
X169978254Y-106656631D01*
X169978249Y-106656630D01*
X169799004Y-106636435D01*
X169798996Y-106636435D01*
X169619750Y-106656630D01*
X169619745Y-106656631D01*
X169449476Y-106716211D01*
X169296737Y-106812184D01*
X169169184Y-106939737D01*
X169073210Y-107092478D01*
X169013630Y-107262750D01*
X169003837Y-107349668D01*
X168976770Y-107414082D01*
X168968299Y-107423465D01*
X168732582Y-107659182D01*
X168671262Y-107692666D01*
X168644903Y-107695500D01*
X154819097Y-107695500D01*
X154752058Y-107675815D01*
X154706303Y-107623011D01*
X154696359Y-107553853D01*
X154725384Y-107490297D01*
X154731416Y-107483819D01*
X155818416Y-106396819D01*
X155879739Y-106363334D01*
X155906097Y-106360500D01*
X168791677Y-106360500D01*
X168791693Y-106360501D01*
X168799289Y-106360501D01*
X168957400Y-106360501D01*
X168957403Y-106360501D01*
X169110131Y-106319577D01*
X169165655Y-106287520D01*
X169247062Y-106240520D01*
X169358866Y-106128716D01*
X169358866Y-106128714D01*
X169369070Y-106118511D01*
X169369073Y-106118506D01*
X169867518Y-105620063D01*
X169928838Y-105586580D01*
X169998530Y-105591564D01*
X170042877Y-105620065D01*
X170070917Y-105648105D01*
X170264421Y-105783600D01*
X170478507Y-105883429D01*
X170478516Y-105883433D01*
X170692000Y-105940634D01*
X170692000Y-105043012D01*
X170749007Y-105075925D01*
X170876174Y-105110000D01*
X171007826Y-105110000D01*
X171134993Y-105075925D01*
X171192000Y-105043012D01*
X171192000Y-105940633D01*
X171405483Y-105883433D01*
X171405492Y-105883429D01*
X171619578Y-105783600D01*
X171813082Y-105648105D01*
X171980105Y-105481082D01*
X172115600Y-105287578D01*
X172215429Y-105073492D01*
X172215432Y-105073486D01*
X172272636Y-104860000D01*
X171375012Y-104860000D01*
X171407925Y-104802993D01*
X171442000Y-104675826D01*
X171442000Y-104544174D01*
X171407925Y-104417007D01*
X171375012Y-104360000D01*
X172272636Y-104360000D01*
X172272635Y-104359999D01*
X172215432Y-104146513D01*
X172215429Y-104146507D01*
X172115600Y-103932422D01*
X172115599Y-103932420D01*
X171980113Y-103738926D01*
X171980108Y-103738920D01*
X171813078Y-103571890D01*
X171627405Y-103441879D01*
X171583780Y-103387302D01*
X171576588Y-103317804D01*
X171608110Y-103255449D01*
X171627406Y-103238730D01*
X171813401Y-103108495D01*
X171980495Y-102941401D01*
X172116035Y-102747830D01*
X172215903Y-102533663D01*
X172277063Y-102305408D01*
X172297659Y-102070000D01*
X172277063Y-101834592D01*
X172220158Y-101622216D01*
X172215905Y-101606344D01*
X172215904Y-101606343D01*
X172215903Y-101606337D01*
X172116035Y-101392171D01*
X172116034Y-101392169D01*
X171980494Y-101198597D01*
X171813402Y-101031506D01*
X171813396Y-101031501D01*
X171627842Y-100901575D01*
X171584217Y-100846998D01*
X171577023Y-100777500D01*
X171608546Y-100715145D01*
X171627842Y-100698425D01*
X171716231Y-100636534D01*
X171813401Y-100568495D01*
X171980495Y-100401401D01*
X172116035Y-100207830D01*
X172215903Y-99993663D01*
X172277063Y-99765408D01*
X172297659Y-99530000D01*
X172295792Y-99508666D01*
X172284369Y-99378099D01*
X172277063Y-99294592D01*
X172215903Y-99066337D01*
X172116035Y-98852171D01*
X172069007Y-98785007D01*
X171980494Y-98658597D01*
X171813402Y-98491506D01*
X171813395Y-98491501D01*
X171619834Y-98355967D01*
X171619830Y-98355965D01*
X171554455Y-98325480D01*
X171405663Y-98256097D01*
X171405659Y-98256096D01*
X171405655Y-98256094D01*
X171177413Y-98194938D01*
X171177403Y-98194936D01*
X170942001Y-98174341D01*
X170941999Y-98174341D01*
X170706596Y-98194936D01*
X170706586Y-98194938D01*
X170478344Y-98256094D01*
X170478335Y-98256098D01*
X170264171Y-98355964D01*
X170264169Y-98355965D01*
X170070600Y-98491503D01*
X169948673Y-98613430D01*
X169887350Y-98646914D01*
X169817658Y-98641930D01*
X169761725Y-98600058D01*
X169744810Y-98569081D01*
X169695797Y-98437671D01*
X169695793Y-98437664D01*
X169609547Y-98322455D01*
X169609544Y-98322452D01*
X169494335Y-98236206D01*
X169494328Y-98236202D01*
X169359482Y-98185908D01*
X169359483Y-98185908D01*
X169299883Y-98179501D01*
X169299881Y-98179500D01*
X169299873Y-98179500D01*
X169299864Y-98179500D01*
X167504129Y-98179500D01*
X167504123Y-98179501D01*
X167444516Y-98185908D01*
X167309671Y-98236202D01*
X167309664Y-98236206D01*
X167194455Y-98322452D01*
X167194452Y-98322455D01*
X167108206Y-98437664D01*
X167108202Y-98437671D01*
X167057908Y-98572517D01*
X167051501Y-98632116D01*
X167051500Y-98632135D01*
X167051500Y-100427870D01*
X167051501Y-100427876D01*
X167057908Y-100487483D01*
X167108202Y-100622328D01*
X167108206Y-100622335D01*
X167194452Y-100737544D01*
X167194455Y-100737547D01*
X167309664Y-100823793D01*
X167309671Y-100823797D01*
X167441081Y-100872810D01*
X167497015Y-100914681D01*
X167521432Y-100980145D01*
X167506580Y-101048418D01*
X167485430Y-101076673D01*
X167363503Y-101198600D01*
X167227965Y-101392170D01*
X167227962Y-101392175D01*
X167225289Y-101397909D01*
X167179115Y-101450346D01*
X167112909Y-101469500D01*
X162981565Y-101469500D01*
X162914526Y-101449815D01*
X162868771Y-101397011D01*
X162859159Y-101352828D01*
X162858345Y-101352920D01*
X162837369Y-101166750D01*
X162837368Y-101166745D01*
X162805850Y-101076673D01*
X162777789Y-100996478D01*
X162681816Y-100843738D01*
X162554262Y-100716184D01*
X162525999Y-100698425D01*
X162401523Y-100620211D01*
X162231254Y-100560631D01*
X162231249Y-100560630D01*
X162052004Y-100540435D01*
X162051996Y-100540435D01*
X161872750Y-100560630D01*
X161872745Y-100560631D01*
X161702476Y-100620211D01*
X161549736Y-100716185D01*
X161546903Y-100718445D01*
X161544724Y-100719334D01*
X161543842Y-100719889D01*
X161543744Y-100719734D01*
X161482217Y-100744855D01*
X161469588Y-100745500D01*
X154257057Y-100745500D01*
X154098943Y-100745500D01*
X153946215Y-100786423D01*
X153946214Y-100786423D01*
X153946212Y-100786424D01*
X153946209Y-100786425D01*
X153911066Y-100806716D01*
X153911064Y-100806717D01*
X153809290Y-100865475D01*
X153809282Y-100865481D01*
X152817881Y-101856883D01*
X152756558Y-101890368D01*
X152686866Y-101885384D01*
X152642519Y-101856883D01*
X152528819Y-101743183D01*
X152495334Y-101681860D01*
X152492500Y-101655502D01*
X152492500Y-100658412D01*
X152512185Y-100591373D01*
X152519555Y-100581097D01*
X152521810Y-100578267D01*
X152521816Y-100578262D01*
X152617789Y-100425522D01*
X152677368Y-100255255D01*
X152677799Y-100251429D01*
X152697565Y-100076003D01*
X152697565Y-100075996D01*
X152677369Y-99896750D01*
X152677368Y-99896745D01*
X152651215Y-99822003D01*
X152617789Y-99726478D01*
X152617788Y-99726477D01*
X152617787Y-99726473D01*
X152525479Y-99579567D01*
X152506478Y-99512331D01*
X152526845Y-99445496D01*
X152542787Y-99425918D01*
X152888205Y-99080500D01*
X155930500Y-99080500D01*
X157432500Y-99080500D01*
X158430500Y-99080500D01*
X159932500Y-99080500D01*
X160930500Y-99080500D01*
X162432500Y-99080500D01*
X162432500Y-97637119D01*
X162405881Y-97610500D01*
X160930500Y-97610500D01*
X160930500Y-99080500D01*
X159932500Y-99080500D01*
X159932500Y-97610500D01*
X158430500Y-97610500D01*
X158430500Y-99080500D01*
X157432500Y-99080500D01*
X157432500Y-97610500D01*
X155930500Y-97610500D01*
X155930500Y-99080500D01*
X152888205Y-99080500D01*
X153261627Y-98707077D01*
X153322950Y-98673593D01*
X153358235Y-98671792D01*
X153358235Y-98671765D01*
X153358766Y-98671765D01*
X153363194Y-98671539D01*
X153365199Y-98671765D01*
X153365200Y-98671765D01*
X153365203Y-98671765D01*
X153544449Y-98651569D01*
X153544452Y-98651568D01*
X153544455Y-98651568D01*
X153714722Y-98591989D01*
X153867462Y-98496016D01*
X153995016Y-98368462D01*
X154090989Y-98215722D01*
X154150568Y-98045455D01*
X154150569Y-98045449D01*
X154170765Y-97866203D01*
X154170765Y-97866196D01*
X154150569Y-97686950D01*
X154150568Y-97686945D01*
X154134320Y-97640511D01*
X154090989Y-97516678D01*
X153995016Y-97363938D01*
X153867462Y-97236384D01*
X153747644Y-97161097D01*
X153714723Y-97140411D01*
X153544454Y-97080831D01*
X153544449Y-97080830D01*
X153365204Y-97060635D01*
X153365196Y-97060635D01*
X153185950Y-97080830D01*
X153185945Y-97080831D01*
X153015676Y-97140411D01*
X152862937Y-97236384D01*
X152735384Y-97363937D01*
X152639411Y-97516677D01*
X152587318Y-97665551D01*
X152557957Y-97712277D01*
X150923286Y-99346949D01*
X150811481Y-99458753D01*
X150811479Y-99458755D01*
X150803558Y-99472476D01*
X150778186Y-99516423D01*
X150755304Y-99556054D01*
X150732423Y-99595685D01*
X150732423Y-99595686D01*
X150691499Y-99748414D01*
X150691499Y-99748416D01*
X150691499Y-99916517D01*
X150691500Y-99916530D01*
X150691500Y-101834616D01*
X150691499Y-101834634D01*
X150691499Y-102000340D01*
X150691498Y-102000340D01*
X150732423Y-102153071D01*
X150761358Y-102203186D01*
X150761359Y-102203190D01*
X150761360Y-102203190D01*
X150797960Y-102266585D01*
X150811479Y-102290000D01*
X150811481Y-102290003D01*
X150930349Y-102408871D01*
X150930355Y-102408876D01*
X153737053Y-105215574D01*
X153737063Y-105215585D01*
X153741393Y-105219915D01*
X153741394Y-105219916D01*
X153853198Y-105331720D01*
X153940009Y-105381839D01*
X153940011Y-105381841D01*
X153978065Y-105403811D01*
X153990129Y-105410777D01*
X154142857Y-105451700D01*
X154200017Y-105451700D01*
X154267056Y-105471385D01*
X154312811Y-105524189D01*
X154322755Y-105593347D01*
X154293730Y-105656903D01*
X154287717Y-105663361D01*
X154112993Y-105838085D01*
X154057833Y-105893245D01*
X153996510Y-105926729D01*
X153929198Y-105922605D01*
X153908078Y-105915215D01*
X153849255Y-105894632D01*
X153849254Y-105894631D01*
X153849252Y-105894631D01*
X153670004Y-105874435D01*
X153669996Y-105874435D01*
X153490750Y-105894630D01*
X153490745Y-105894631D01*
X153320476Y-105954211D01*
X153167737Y-106050184D01*
X153040184Y-106177737D01*
X152944211Y-106330476D01*
X152884631Y-106500745D01*
X152884630Y-106500750D01*
X152872026Y-106612621D01*
X152844960Y-106677035D01*
X152787365Y-106716591D01*
X152717528Y-106718728D01*
X152661125Y-106686419D01*
X152358554Y-106383848D01*
X152325069Y-106322525D01*
X152322235Y-106296167D01*
X152322235Y-105242265D01*
X152322236Y-105242252D01*
X152322236Y-105074151D01*
X152322236Y-105074149D01*
X152281312Y-104921421D01*
X152249193Y-104865789D01*
X152202255Y-104784490D01*
X152090451Y-104672686D01*
X152090450Y-104672685D01*
X152086120Y-104668355D01*
X152086109Y-104668345D01*
X150369819Y-102952055D01*
X150336334Y-102890732D01*
X150333500Y-102864374D01*
X150333500Y-101774945D01*
X150333500Y-101774943D01*
X150292577Y-101622216D01*
X150292577Y-101622215D01*
X150268493Y-101580500D01*
X150252367Y-101552569D01*
X150252367Y-101552568D01*
X150223113Y-101501898D01*
X150206500Y-101439899D01*
X150206500Y-100404412D01*
X150226185Y-100337373D01*
X150233555Y-100327097D01*
X150235810Y-100324267D01*
X150235816Y-100324262D01*
X150331789Y-100171522D01*
X150391368Y-100001255D01*
X150391369Y-100001249D01*
X150411565Y-99822003D01*
X150411565Y-99821996D01*
X150391369Y-99642750D01*
X150391368Y-99642745D01*
X150347166Y-99516423D01*
X150331789Y-99472478D01*
X150312315Y-99441486D01*
X150246894Y-99337369D01*
X150235816Y-99319738D01*
X150108262Y-99192184D01*
X149955523Y-99096211D01*
X149785254Y-99036631D01*
X149785249Y-99036630D01*
X149606004Y-99016435D01*
X149605996Y-99016435D01*
X149426750Y-99036630D01*
X149426745Y-99036631D01*
X149256474Y-99096212D01*
X149256467Y-99096217D01*
X149256458Y-99096219D01*
X149250205Y-99099231D01*
X149249677Y-99098135D01*
X149189229Y-99115211D01*
X149122396Y-99094839D01*
X149077185Y-99041568D01*
X149066503Y-98991218D01*
X149066503Y-98986416D01*
X149066503Y-98986414D01*
X149038527Y-98882007D01*
X149025580Y-98833686D01*
X148984206Y-98762025D01*
X148984206Y-98762023D01*
X148946527Y-98696761D01*
X148946524Y-98696757D01*
X148946523Y-98696755D01*
X148834719Y-98584951D01*
X148834718Y-98584950D01*
X148830388Y-98580620D01*
X148830377Y-98580610D01*
X148343948Y-98094181D01*
X148310463Y-98032858D01*
X148315447Y-97963166D01*
X148357319Y-97907233D01*
X148422783Y-97882816D01*
X148431629Y-97882500D01*
X149011331Y-97882500D01*
X149011347Y-97882501D01*
X149018943Y-97882501D01*
X149177054Y-97882501D01*
X149177057Y-97882501D01*
X149329785Y-97841577D01*
X149329787Y-97841575D01*
X149329789Y-97841575D01*
X149329790Y-97841574D01*
X149380640Y-97812216D01*
X149380641Y-97812215D01*
X149466716Y-97762520D01*
X149578520Y-97650716D01*
X149578520Y-97650714D01*
X149588724Y-97640511D01*
X149588728Y-97640506D01*
X150386535Y-96842698D01*
X150447856Y-96809215D01*
X150460311Y-96807163D01*
X150547255Y-96797368D01*
X150717522Y-96737789D01*
X150870262Y-96641816D01*
X150870267Y-96641810D01*
X150873097Y-96639555D01*
X150875275Y-96638665D01*
X150876158Y-96638111D01*
X150876255Y-96638265D01*
X150937783Y-96613145D01*
X150950412Y-96612500D01*
X162767903Y-96612500D01*
X162834942Y-96632185D01*
X162855584Y-96648819D01*
X164328197Y-98121432D01*
X164361682Y-98182755D01*
X164357558Y-98250067D01*
X164314632Y-98372742D01*
X164314630Y-98372750D01*
X164294435Y-98551996D01*
X164294435Y-98552003D01*
X164314630Y-98731249D01*
X164314631Y-98731254D01*
X164374211Y-98901523D01*
X164380904Y-98912174D01*
X164470184Y-99054262D01*
X164597738Y-99181816D01*
X164750478Y-99277789D01*
X164898251Y-99329497D01*
X164920745Y-99337368D01*
X164920750Y-99337369D01*
X165099996Y-99357565D01*
X165100000Y-99357565D01*
X165100004Y-99357565D01*
X165279249Y-99337369D01*
X165279252Y-99337368D01*
X165279255Y-99337368D01*
X165449522Y-99277789D01*
X165602262Y-99181816D01*
X165729816Y-99054262D01*
X165825789Y-98901522D01*
X165885368Y-98731255D01*
X165887211Y-98714897D01*
X165905565Y-98552003D01*
X165905565Y-98551996D01*
X165885369Y-98372750D01*
X165885368Y-98372745D01*
X165868829Y-98325480D01*
X165825789Y-98202478D01*
X165821051Y-98194938D01*
X165729815Y-98049737D01*
X165727555Y-98046903D01*
X165726665Y-98044724D01*
X165726111Y-98043842D01*
X165726265Y-98043744D01*
X165701146Y-97982216D01*
X165700501Y-97969589D01*
X165700501Y-97964945D01*
X165700501Y-97964943D01*
X165659577Y-97812215D01*
X165639265Y-97777034D01*
X165625844Y-97753788D01*
X165625843Y-97753787D01*
X165603118Y-97714425D01*
X165580520Y-97675284D01*
X165468716Y-97563480D01*
X165468715Y-97563479D01*
X165464385Y-97559149D01*
X165464374Y-97559139D01*
X164485735Y-96580500D01*
X165930500Y-96580500D01*
X167432500Y-96580500D01*
X170930500Y-96580500D01*
X171983500Y-96580500D01*
X171983500Y-95078500D01*
X170930500Y-95078500D01*
X170930500Y-96580500D01*
X167432500Y-96580500D01*
X167432500Y-96017233D01*
X167421239Y-95994619D01*
X167412973Y-95973281D01*
X167352113Y-95759378D01*
X167347908Y-95736885D01*
X167327388Y-95515441D01*
X167327388Y-95492559D01*
X167347908Y-95271115D01*
X167352113Y-95248622D01*
X167400516Y-95078500D01*
X165930500Y-95078500D01*
X165930500Y-96580500D01*
X164485735Y-96580500D01*
X163555590Y-95650355D01*
X163555588Y-95650352D01*
X163436717Y-95531481D01*
X163436716Y-95531480D01*
X163326400Y-95467789D01*
X163326398Y-95467788D01*
X163299785Y-95452423D01*
X163299784Y-95452422D01*
X163299783Y-95452422D01*
X163243881Y-95437443D01*
X163147057Y-95411499D01*
X162988943Y-95411499D01*
X162981347Y-95411499D01*
X162981331Y-95411500D01*
X150950412Y-95411500D01*
X150883373Y-95391815D01*
X150873097Y-95384445D01*
X150870263Y-95382185D01*
X150870262Y-95382184D01*
X150796403Y-95335775D01*
X150717523Y-95286211D01*
X150547254Y-95226631D01*
X150547249Y-95226630D01*
X150368004Y-95206435D01*
X150367996Y-95206435D01*
X150188750Y-95226630D01*
X150188745Y-95226631D01*
X150018476Y-95286211D01*
X149865737Y-95382184D01*
X149738184Y-95509737D01*
X149642210Y-95662478D01*
X149582630Y-95832750D01*
X149572837Y-95919668D01*
X149545770Y-95984082D01*
X149537298Y-95993465D01*
X148885584Y-96645181D01*
X148824261Y-96678666D01*
X148797903Y-96681500D01*
X142886568Y-96681500D01*
X142819529Y-96661815D01*
X142773774Y-96609011D01*
X142763830Y-96539853D01*
X142792855Y-96476297D01*
X142798887Y-96469819D01*
X143251473Y-96017233D01*
X143585206Y-95683500D01*
X145930500Y-95683500D01*
X147432500Y-95683500D01*
X147432500Y-95078500D01*
X145930500Y-95078500D01*
X145930500Y-95683500D01*
X143585206Y-95683500D01*
X144630506Y-94638198D01*
X144630511Y-94638195D01*
X144640714Y-94627991D01*
X144640716Y-94627991D01*
X144752520Y-94516187D01*
X144831577Y-94379255D01*
X144863447Y-94260313D01*
X144872500Y-94226529D01*
X144872500Y-94080500D01*
X145930500Y-94080500D01*
X147432500Y-94080500D01*
X148430500Y-94080500D01*
X149932500Y-94080500D01*
X150930500Y-94080500D01*
X152432500Y-94080500D01*
X153430500Y-94080500D01*
X154932500Y-94080500D01*
X155930500Y-94080500D01*
X157432500Y-94080500D01*
X158430500Y-94080500D01*
X159932500Y-94080500D01*
X160930500Y-94080500D01*
X162432500Y-94080500D01*
X163430500Y-94080500D01*
X164932500Y-94080500D01*
X165930500Y-94080500D01*
X167432500Y-94080500D01*
X168430500Y-94080500D01*
X169932500Y-94080500D01*
X170930500Y-94080500D01*
X171983500Y-94080500D01*
X171983500Y-93199000D01*
X170930500Y-93199000D01*
X170930500Y-94080500D01*
X169932500Y-94080500D01*
X169932500Y-93199000D01*
X168430500Y-93199000D01*
X168430500Y-94080500D01*
X167432500Y-94080500D01*
X167432500Y-92822076D01*
X167188924Y-92578500D01*
X165930500Y-92578500D01*
X165930500Y-94080500D01*
X164932500Y-94080500D01*
X164932500Y-92578500D01*
X163430500Y-92578500D01*
X163430500Y-94080500D01*
X162432500Y-94080500D01*
X162432500Y-92578500D01*
X160930500Y-92578500D01*
X160930500Y-94080500D01*
X159932500Y-94080500D01*
X159932500Y-92578500D01*
X158430500Y-92578500D01*
X158430500Y-94080500D01*
X157432500Y-94080500D01*
X157432500Y-92578500D01*
X155930500Y-92578500D01*
X155930500Y-94080500D01*
X154932500Y-94080500D01*
X154932500Y-92578500D01*
X153430500Y-92578500D01*
X153430500Y-94080500D01*
X152432500Y-94080500D01*
X152432500Y-92578500D01*
X150930500Y-92578500D01*
X150930500Y-94080500D01*
X149932500Y-94080500D01*
X149932500Y-92578500D01*
X148430500Y-92578500D01*
X148430500Y-94080500D01*
X147432500Y-94080500D01*
X147432500Y-92578500D01*
X145930500Y-92578500D01*
X145930500Y-94080500D01*
X144872500Y-94080500D01*
X144872500Y-94068414D01*
X144872500Y-91580500D01*
X145930500Y-91580500D01*
X147432500Y-91580500D01*
X148430500Y-91580500D01*
X149932500Y-91580500D01*
X150930500Y-91580500D01*
X152432500Y-91580500D01*
X153430500Y-91580500D01*
X154932500Y-91580500D01*
X155930500Y-91580500D01*
X156755002Y-91580500D01*
X156710823Y-91560323D01*
X156702909Y-91556362D01*
X156640319Y-91522185D01*
X156632705Y-91517667D01*
X156587638Y-91488703D01*
X156580368Y-91483655D01*
X156408184Y-91354757D01*
X156401293Y-91349204D01*
X156360808Y-91314124D01*
X156354329Y-91308092D01*
X156303908Y-91257671D01*
X156297876Y-91251192D01*
X156262796Y-91210707D01*
X156257243Y-91203816D01*
X156128345Y-91031632D01*
X156123297Y-91024362D01*
X156094333Y-90979295D01*
X156089815Y-90971681D01*
X156055638Y-90909091D01*
X156051677Y-90901177D01*
X156029419Y-90852441D01*
X156026030Y-90844261D01*
X155952421Y-90646904D01*
X155949942Y-90639564D01*
X155936332Y-90594695D01*
X155934315Y-90587212D01*
X155930500Y-90571063D01*
X155930500Y-91580500D01*
X154932500Y-91580500D01*
X154932500Y-90078500D01*
X153430500Y-90078500D01*
X153430500Y-91580500D01*
X152432500Y-91580500D01*
X152432500Y-90078500D01*
X150930500Y-90078500D01*
X150930500Y-91580500D01*
X149932500Y-91580500D01*
X149932500Y-90078500D01*
X148430500Y-90078500D01*
X148430500Y-91580500D01*
X147432500Y-91580500D01*
X147432500Y-90078500D01*
X145930500Y-90078500D01*
X145930500Y-91580500D01*
X144872500Y-91580500D01*
X144872500Y-89708097D01*
X144892185Y-89641058D01*
X144908819Y-89620416D01*
X145754416Y-88774819D01*
X145815739Y-88741334D01*
X145842097Y-88738500D01*
X156768000Y-88738500D01*
X156835039Y-88758185D01*
X156880794Y-88810989D01*
X156892000Y-88862500D01*
X156892000Y-89120000D01*
X157808988Y-89120000D01*
X157776075Y-89177007D01*
X157742000Y-89304174D01*
X157742000Y-89435826D01*
X157776075Y-89562993D01*
X157808988Y-89620000D01*
X156892000Y-89620000D01*
X156892000Y-90267844D01*
X156898401Y-90327372D01*
X156898403Y-90327379D01*
X156948645Y-90462086D01*
X156948649Y-90462093D01*
X157034809Y-90577187D01*
X157034812Y-90577190D01*
X157149906Y-90663350D01*
X157149913Y-90663354D01*
X157284620Y-90713596D01*
X157284627Y-90713598D01*
X157344155Y-90719999D01*
X157344172Y-90720000D01*
X157992000Y-90720000D01*
X157992000Y-89803012D01*
X158049007Y-89835925D01*
X158176174Y-89870000D01*
X158307826Y-89870000D01*
X158434993Y-89835925D01*
X158492000Y-89803012D01*
X158492000Y-90720000D01*
X159139828Y-90720000D01*
X159139844Y-90719999D01*
X159199372Y-90713598D01*
X159199379Y-90713596D01*
X159334086Y-90663354D01*
X159334093Y-90663350D01*
X159449187Y-90577190D01*
X159449190Y-90577187D01*
X159535350Y-90462093D01*
X159535354Y-90462086D01*
X159584422Y-90330529D01*
X159626293Y-90274595D01*
X159691757Y-90250178D01*
X159760030Y-90265030D01*
X159788285Y-90286181D01*
X159910599Y-90408495D01*
X160007384Y-90476265D01*
X160104165Y-90544032D01*
X160104167Y-90544033D01*
X160104170Y-90544035D01*
X160318337Y-90643903D01*
X160546592Y-90705063D01*
X160717319Y-90720000D01*
X160781999Y-90725659D01*
X160782000Y-90725659D01*
X160782001Y-90725659D01*
X160846681Y-90720000D01*
X161017408Y-90705063D01*
X161245663Y-90643903D01*
X161459830Y-90544035D01*
X161653401Y-90408495D01*
X161820495Y-90241401D01*
X161950425Y-90055842D01*
X162005002Y-90012217D01*
X162074500Y-90005023D01*
X162136855Y-90036546D01*
X162153575Y-90055842D01*
X162283500Y-90241395D01*
X162283505Y-90241401D01*
X162450599Y-90408495D01*
X162547384Y-90476265D01*
X162644165Y-90544032D01*
X162644167Y-90544033D01*
X162644170Y-90544035D01*
X162858337Y-90643903D01*
X163086592Y-90705063D01*
X163257319Y-90720000D01*
X163321999Y-90725659D01*
X163322000Y-90725659D01*
X163322001Y-90725659D01*
X163386681Y-90720000D01*
X163557408Y-90705063D01*
X163785663Y-90643903D01*
X163999830Y-90544035D01*
X164193401Y-90408495D01*
X164360495Y-90241401D01*
X164490425Y-90055842D01*
X164545002Y-90012217D01*
X164614500Y-90005023D01*
X164676855Y-90036546D01*
X164693575Y-90055842D01*
X164823500Y-90241395D01*
X164823505Y-90241401D01*
X164990599Y-90408495D01*
X165087384Y-90476265D01*
X165184165Y-90544032D01*
X165184167Y-90544033D01*
X165184170Y-90544035D01*
X165398337Y-90643903D01*
X165626592Y-90705063D01*
X165797319Y-90720000D01*
X165861999Y-90725659D01*
X165862000Y-90725659D01*
X165862001Y-90725659D01*
X165926681Y-90720000D01*
X166097408Y-90705063D01*
X166325663Y-90643903D01*
X166539830Y-90544035D01*
X166733401Y-90408495D01*
X166900495Y-90241401D01*
X167036035Y-90047830D01*
X167135903Y-89833663D01*
X167197063Y-89605408D01*
X167217659Y-89370000D01*
X167197063Y-89134592D01*
X167135903Y-88906337D01*
X167036035Y-88692171D01*
X167030425Y-88684158D01*
X166900494Y-88498597D01*
X166733402Y-88331506D01*
X166733395Y-88331501D01*
X166539834Y-88195967D01*
X166539830Y-88195965D01*
X166539828Y-88195964D01*
X166325663Y-88096097D01*
X166325659Y-88096096D01*
X166325655Y-88096094D01*
X166097413Y-88034938D01*
X166097403Y-88034936D01*
X165862001Y-88014341D01*
X165861999Y-88014341D01*
X165626596Y-88034936D01*
X165626583Y-88034939D01*
X165498241Y-88069327D01*
X165428392Y-88067664D01*
X165378468Y-88037233D01*
X164883416Y-87542181D01*
X164849931Y-87480858D01*
X164854915Y-87411166D01*
X164896787Y-87355233D01*
X164962251Y-87330816D01*
X164971097Y-87330500D01*
X168151000Y-87330500D01*
X168218039Y-87350185D01*
X168263794Y-87402989D01*
X168275000Y-87454500D01*
X168275000Y-92075000D01*
X172857500Y-92075000D01*
X172924539Y-92094685D01*
X172970294Y-92147489D01*
X172981500Y-92199000D01*
X172981500Y-112017000D01*
X172961815Y-112084039D01*
X172909011Y-112129794D01*
X172857500Y-112141000D01*
X168275000Y-112141000D01*
X168275000Y-116685500D01*
X168255315Y-116752539D01*
X168202511Y-116798294D01*
X168151000Y-116809500D01*
X128013000Y-116809500D01*
X127945961Y-116789815D01*
X127900206Y-116737011D01*
X127889000Y-116685500D01*
X127889000Y-115811500D01*
X129013000Y-115811500D01*
X129932500Y-115811500D01*
X130930500Y-115811500D01*
X132432500Y-115811500D01*
X133430500Y-115811500D01*
X134932500Y-115811500D01*
X135930500Y-115811500D01*
X136853190Y-115811500D01*
X136847788Y-115761245D01*
X136847477Y-115757936D01*
X136845865Y-115737899D01*
X136845643Y-115734587D01*
X136844214Y-115707905D01*
X136844081Y-115704587D01*
X136843545Y-115684536D01*
X136843501Y-115681222D01*
X136843501Y-115078500D01*
X135930500Y-115078500D01*
X135930500Y-115811500D01*
X134932500Y-115811500D01*
X134932500Y-115078500D01*
X133430500Y-115078500D01*
X133430500Y-115811500D01*
X132432500Y-115811500D01*
X132432500Y-115078500D01*
X130930500Y-115078500D01*
X130930500Y-115811500D01*
X129932500Y-115811500D01*
X129932500Y-115078500D01*
X129013000Y-115078500D01*
X129013000Y-115811500D01*
X127889000Y-115811500D01*
X127889000Y-114080500D01*
X129013000Y-114080500D01*
X129932500Y-114080500D01*
X130930500Y-114080500D01*
X132432500Y-114080500D01*
X132432500Y-113782433D01*
X132405707Y-113786986D01*
X132398820Y-113787958D01*
X132163908Y-113814425D01*
X132156979Y-113815010D01*
X132114961Y-113817370D01*
X132108007Y-113817565D01*
X132051993Y-113817565D01*
X132045039Y-113817370D01*
X132003021Y-113815010D01*
X131996092Y-113814425D01*
X131761180Y-113787958D01*
X131754293Y-113786986D01*
X131712809Y-113779938D01*
X131705989Y-113778582D01*
X131651379Y-113766119D01*
X131644642Y-113764381D01*
X131604193Y-113752728D01*
X131597566Y-113750616D01*
X131374422Y-113672535D01*
X131367921Y-113670053D01*
X131329035Y-113653945D01*
X131322688Y-113651105D01*
X131272221Y-113626801D01*
X131266041Y-113623608D01*
X131229210Y-113603252D01*
X131223220Y-113599719D01*
X131023052Y-113473944D01*
X131017267Y-113470078D01*
X130982939Y-113445720D01*
X130977382Y-113441538D01*
X130933590Y-113406614D01*
X130930500Y-113404004D01*
X130930500Y-114080500D01*
X129932500Y-114080500D01*
X129932500Y-113206962D01*
X133430500Y-113206962D01*
X133430500Y-114080500D01*
X134932500Y-114080500D01*
X135930500Y-114080500D01*
X136843500Y-114080500D01*
X136843500Y-113858752D01*
X136843545Y-113855428D01*
X136844084Y-113835327D01*
X136844217Y-113832007D01*
X136845649Y-113805320D01*
X136845871Y-113802011D01*
X136847481Y-113782018D01*
X136847792Y-113778715D01*
X136858962Y-113674825D01*
X136860029Y-113667157D01*
X136867936Y-113620971D01*
X136869481Y-113613381D01*
X136883826Y-113552670D01*
X136885842Y-113545191D01*
X136899450Y-113500328D01*
X136901929Y-113492988D01*
X136975587Y-113295498D01*
X136978975Y-113287318D01*
X137001233Y-113238581D01*
X137005195Y-113230667D01*
X137039372Y-113168077D01*
X137043890Y-113160463D01*
X137072854Y-113115396D01*
X137077902Y-113108126D01*
X137206886Y-112935827D01*
X137212439Y-112928936D01*
X137247519Y-112888451D01*
X137253551Y-112881972D01*
X137303972Y-112831551D01*
X137310451Y-112825519D01*
X137350936Y-112790439D01*
X137357826Y-112784886D01*
X137432500Y-112728984D01*
X137432500Y-112578500D01*
X135930500Y-112578500D01*
X135930500Y-114080500D01*
X134932500Y-114080500D01*
X134932500Y-112578500D01*
X133787900Y-112578500D01*
X133738535Y-112719578D01*
X133736053Y-112726079D01*
X133719945Y-112764965D01*
X133717105Y-112771312D01*
X133692801Y-112821779D01*
X133689608Y-112827959D01*
X133669252Y-112864790D01*
X133665719Y-112870780D01*
X133539944Y-113070948D01*
X133536078Y-113076733D01*
X133511720Y-113111061D01*
X133507538Y-113116618D01*
X133472614Y-113160410D01*
X133468127Y-113165724D01*
X133440087Y-113197100D01*
X133435309Y-113202153D01*
X133430500Y-113206962D01*
X129932500Y-113206962D01*
X129932500Y-112578500D01*
X129013000Y-112578500D01*
X129013000Y-114080500D01*
X127889000Y-114080500D01*
X127889000Y-112141000D01*
X123306500Y-112141000D01*
X123239461Y-112121315D01*
X123193706Y-112068511D01*
X123182500Y-112017000D01*
X123182500Y-111092924D01*
X128430500Y-111092924D01*
X128918076Y-111580500D01*
X129932500Y-111580500D01*
X129932500Y-110078500D01*
X128430500Y-110078500D01*
X128430500Y-111092924D01*
X123182500Y-111092924D01*
X123182500Y-111017000D01*
X124180500Y-111017000D01*
X124932500Y-111017000D01*
X125930500Y-111017000D01*
X127432500Y-111017000D01*
X127432500Y-110078500D01*
X125930500Y-110078500D01*
X125930500Y-111017000D01*
X124932500Y-111017000D01*
X124932500Y-110078500D01*
X124180500Y-110078500D01*
X124180500Y-111017000D01*
X123182500Y-111017000D01*
X123182500Y-109080500D01*
X124180500Y-109080500D01*
X124932500Y-109080500D01*
X125930500Y-109080500D01*
X127432500Y-109080500D01*
X128430500Y-109080500D01*
X129932500Y-109080500D01*
X130930500Y-109080500D01*
X131190880Y-109080500D01*
X132432500Y-107838879D01*
X132432500Y-107578500D01*
X130930500Y-107578500D01*
X130930500Y-109080500D01*
X129932500Y-109080500D01*
X129932500Y-107578500D01*
X128430500Y-107578500D01*
X128430500Y-109080500D01*
X127432500Y-109080500D01*
X127432500Y-107578500D01*
X125930500Y-107578500D01*
X125930500Y-109080500D01*
X124932500Y-109080500D01*
X124932500Y-107578500D01*
X124180500Y-107578500D01*
X124180500Y-109080500D01*
X123182500Y-109080500D01*
X123182500Y-106580500D01*
X124180500Y-106580500D01*
X124932500Y-106580500D01*
X125930500Y-106580500D01*
X127432500Y-106580500D01*
X128430500Y-106580500D01*
X129932500Y-106580500D01*
X130930500Y-106580500D01*
X132432500Y-106580500D01*
X133430500Y-106580500D01*
X133690879Y-106580500D01*
X134932500Y-105338878D01*
X134932500Y-105078500D01*
X133430500Y-105078500D01*
X133430500Y-106580500D01*
X132432500Y-106580500D01*
X132432500Y-105078500D01*
X130930500Y-105078500D01*
X130930500Y-106580500D01*
X129932500Y-106580500D01*
X129932500Y-105078500D01*
X128430500Y-105078500D01*
X128430500Y-106580500D01*
X127432500Y-106580500D01*
X127432500Y-105078500D01*
X125930500Y-105078500D01*
X125930500Y-106580500D01*
X124932500Y-106580500D01*
X124932500Y-105078500D01*
X124180500Y-105078500D01*
X124180500Y-106580500D01*
X123182500Y-106580500D01*
X123182500Y-104080500D01*
X124180500Y-104080500D01*
X124932500Y-104080500D01*
X125930500Y-104080500D01*
X127432500Y-104080500D01*
X128430500Y-104080500D01*
X129932500Y-104080500D01*
X130930500Y-104080500D01*
X132432500Y-104080500D01*
X133430500Y-104080500D01*
X134565841Y-104080500D01*
X134581908Y-103907115D01*
X134586113Y-103884622D01*
X134646973Y-103670719D01*
X134655239Y-103649381D01*
X134754368Y-103450303D01*
X134766413Y-103430849D01*
X134769346Y-103426965D01*
X134340882Y-102998501D01*
X134340851Y-102998473D01*
X134172682Y-102830303D01*
X134167137Y-102824382D01*
X134134766Y-102787471D01*
X134129619Y-102781200D01*
X134089829Y-102729347D01*
X134085102Y-102722751D01*
X134057813Y-102681912D01*
X134053527Y-102675018D01*
X133997803Y-102578500D01*
X133430500Y-102578500D01*
X133430500Y-104080500D01*
X132432500Y-104080500D01*
X132432500Y-102578500D01*
X130930500Y-102578500D01*
X130930500Y-104080500D01*
X129932500Y-104080500D01*
X129932500Y-102578500D01*
X128430500Y-102578500D01*
X128430500Y-104080500D01*
X127432500Y-104080500D01*
X127432500Y-102578500D01*
X125930500Y-102578500D01*
X125930500Y-104080500D01*
X124932500Y-104080500D01*
X124932500Y-102578500D01*
X124180500Y-102578500D01*
X124180500Y-104080500D01*
X123182500Y-104080500D01*
X123182500Y-101119909D01*
X125930500Y-101119909D01*
X125930500Y-101580500D01*
X127432500Y-101580500D01*
X128430500Y-101580500D01*
X129932500Y-101580500D01*
X130930500Y-101580500D01*
X132432500Y-101580500D01*
X133430500Y-101580500D01*
X133783500Y-101580500D01*
X133783500Y-100078500D01*
X133430500Y-100078500D01*
X133430500Y-101580500D01*
X132432500Y-101580500D01*
X132432500Y-100078500D01*
X130930500Y-100078500D01*
X130930500Y-101580500D01*
X129932500Y-101580500D01*
X129932500Y-100078500D01*
X128430500Y-100078500D01*
X128430500Y-101580500D01*
X127432500Y-101580500D01*
X127432500Y-100078500D01*
X127045560Y-100078500D01*
X127036893Y-100097086D01*
X127034501Y-100101937D01*
X127019394Y-100130958D01*
X127016792Y-100135700D01*
X126995013Y-100173424D01*
X126992208Y-100178048D01*
X126974616Y-100205664D01*
X126971607Y-100210166D01*
X126811131Y-100439346D01*
X126807935Y-100443706D01*
X126788017Y-100469665D01*
X126784630Y-100473885D01*
X126756633Y-100507252D01*
X126753065Y-100511320D01*
X126730947Y-100535458D01*
X126727205Y-100539367D01*
X126529367Y-100737205D01*
X126525458Y-100740947D01*
X126501320Y-100763065D01*
X126497252Y-100766633D01*
X126463885Y-100794630D01*
X126459665Y-100798017D01*
X126433706Y-100817935D01*
X126429346Y-100821131D01*
X126200166Y-100981607D01*
X126195664Y-100984616D01*
X126168048Y-101002208D01*
X126163424Y-101005013D01*
X126125700Y-101026792D01*
X126120958Y-101029394D01*
X126091937Y-101044501D01*
X126087085Y-101046893D01*
X125930500Y-101119909D01*
X123182500Y-101119909D01*
X123182500Y-95540135D01*
X123617500Y-95540135D01*
X123617500Y-97335870D01*
X123617501Y-97335876D01*
X123623908Y-97395483D01*
X123674202Y-97530328D01*
X123674206Y-97530335D01*
X123760452Y-97645544D01*
X123760455Y-97645547D01*
X123875664Y-97731793D01*
X123875671Y-97731797D01*
X123875674Y-97731798D01*
X124007598Y-97781002D01*
X124063531Y-97822873D01*
X124087949Y-97888337D01*
X124073098Y-97956610D01*
X124051947Y-97984865D01*
X123929886Y-98106926D01*
X123794400Y-98300420D01*
X123794399Y-98300422D01*
X123694570Y-98514507D01*
X123694567Y-98514513D01*
X123637364Y-98727999D01*
X123637364Y-98728000D01*
X124534988Y-98728000D01*
X124502075Y-98785007D01*
X124468000Y-98912174D01*
X124468000Y-99043826D01*
X124502075Y-99170993D01*
X124534988Y-99228000D01*
X123637364Y-99228000D01*
X123694567Y-99441486D01*
X123694570Y-99441492D01*
X123794399Y-99655578D01*
X123929894Y-99849082D01*
X124096917Y-100016105D01*
X124290421Y-100151600D01*
X124504507Y-100251429D01*
X124504516Y-100251433D01*
X124718000Y-100308634D01*
X124718000Y-99411012D01*
X124775007Y-99443925D01*
X124902174Y-99478000D01*
X125033826Y-99478000D01*
X125160993Y-99443925D01*
X125218000Y-99411012D01*
X125218000Y-100308633D01*
X125431483Y-100251433D01*
X125431492Y-100251429D01*
X125645578Y-100151600D01*
X125839082Y-100016105D01*
X126006105Y-99849082D01*
X126141600Y-99655578D01*
X126241429Y-99441492D01*
X126241432Y-99441486D01*
X126298636Y-99228000D01*
X125401012Y-99228000D01*
X125433925Y-99170993D01*
X125458173Y-99080500D01*
X128430500Y-99080500D01*
X129932500Y-99080500D01*
X129932500Y-97794790D01*
X130930500Y-97794790D01*
X130930500Y-99080500D01*
X132432500Y-99080500D01*
X133430500Y-99080500D01*
X133783500Y-99080500D01*
X133783500Y-98926060D01*
X133783499Y-98926036D01*
X133783499Y-98694258D01*
X133783765Y-98686146D01*
X133786978Y-98637136D01*
X133787773Y-98629059D01*
X133796306Y-98564259D01*
X133797628Y-98556257D01*
X133807206Y-98508105D01*
X133809048Y-98500202D01*
X133866890Y-98284337D01*
X133869246Y-98276570D01*
X133885036Y-98230057D01*
X133887896Y-98222460D01*
X133912910Y-98162078D01*
X133916258Y-98154690D01*
X133937970Y-98110665D01*
X133941794Y-98103511D01*
X133991336Y-98017701D01*
X134053526Y-97909982D01*
X134057812Y-97903090D01*
X134085100Y-97862251D01*
X134089829Y-97855652D01*
X134129620Y-97803799D01*
X134134766Y-97797529D01*
X134167137Y-97760618D01*
X134172682Y-97754697D01*
X134307592Y-97619786D01*
X134348878Y-97578500D01*
X133430500Y-97578500D01*
X133430500Y-99080500D01*
X132432500Y-99080500D01*
X132432500Y-97578500D01*
X131358993Y-97578500D01*
X131347538Y-97587150D01*
X131158456Y-97704225D01*
X131137972Y-97714425D01*
X130930596Y-97794763D01*
X130930500Y-97794790D01*
X129932500Y-97794790D01*
X129932500Y-97691195D01*
X129764462Y-97587150D01*
X129753007Y-97578500D01*
X128430500Y-97578500D01*
X128430500Y-99080500D01*
X125458173Y-99080500D01*
X125468000Y-99043826D01*
X125468000Y-98912174D01*
X125433925Y-98785007D01*
X125401012Y-98728000D01*
X126298636Y-98728000D01*
X126298635Y-98727999D01*
X126241432Y-98514513D01*
X126241429Y-98514507D01*
X126141600Y-98300422D01*
X126141599Y-98300420D01*
X126006113Y-98106926D01*
X126006108Y-98106920D01*
X125884053Y-97984865D01*
X125850568Y-97923542D01*
X125855552Y-97853850D01*
X125897424Y-97797917D01*
X125928400Y-97781002D01*
X126060331Y-97731796D01*
X126175546Y-97645546D01*
X126261796Y-97530331D01*
X126312091Y-97395483D01*
X126318500Y-97335873D01*
X126318500Y-96580500D01*
X128430500Y-96580500D01*
X129231934Y-96580500D01*
X129227388Y-96531442D01*
X129227388Y-96508559D01*
X129247908Y-96287115D01*
X129252113Y-96264622D01*
X129312973Y-96050719D01*
X129321239Y-96029381D01*
X129420368Y-95830303D01*
X129432414Y-95810848D01*
X129566436Y-95633375D01*
X129581852Y-95616465D01*
X129746202Y-95466640D01*
X129764462Y-95452850D01*
X129932500Y-95348804D01*
X129932500Y-95245209D01*
X130930500Y-95245209D01*
X130930596Y-95245237D01*
X131137972Y-95325575D01*
X131158456Y-95335775D01*
X131347538Y-95452850D01*
X131365798Y-95466640D01*
X131530148Y-95616465D01*
X131545564Y-95633375D01*
X131679586Y-95810848D01*
X131691632Y-95830303D01*
X131790761Y-96029381D01*
X131799027Y-96050719D01*
X131859887Y-96264622D01*
X131864092Y-96287115D01*
X131884612Y-96508559D01*
X131884612Y-96531442D01*
X131880066Y-96580500D01*
X132432500Y-96580500D01*
X133430500Y-96580500D01*
X134397117Y-96580500D01*
X134405272Y-96552193D01*
X134407384Y-96545566D01*
X134485465Y-96322422D01*
X134487947Y-96315921D01*
X134504055Y-96277035D01*
X134506895Y-96270688D01*
X134531199Y-96220221D01*
X134534392Y-96214041D01*
X134554748Y-96177210D01*
X134558281Y-96171220D01*
X134684056Y-95971052D01*
X134687922Y-95965267D01*
X134712280Y-95930939D01*
X134716462Y-95925382D01*
X134751386Y-95881590D01*
X134755873Y-95876276D01*
X134783913Y-95844900D01*
X134788691Y-95839847D01*
X134903286Y-95725251D01*
X134900973Y-95719281D01*
X134840113Y-95505378D01*
X134835908Y-95482885D01*
X134815388Y-95261441D01*
X134815388Y-95238559D01*
X134830220Y-95078500D01*
X133430500Y-95078500D01*
X133430500Y-96580500D01*
X132432500Y-96580500D01*
X132432500Y-95078500D01*
X130930500Y-95078500D01*
X130930500Y-95245209D01*
X129932500Y-95245209D01*
X129932500Y-95078500D01*
X128430500Y-95078500D01*
X128430500Y-96580500D01*
X126318500Y-96580500D01*
X126318499Y-95540128D01*
X126312091Y-95480517D01*
X126307344Y-95467790D01*
X126261797Y-95345671D01*
X126261793Y-95345664D01*
X126175547Y-95230455D01*
X126175544Y-95230452D01*
X126060335Y-95144206D01*
X126060328Y-95144202D01*
X125925482Y-95093908D01*
X125925483Y-95093908D01*
X125865883Y-95087501D01*
X125865881Y-95087500D01*
X125865873Y-95087500D01*
X125865864Y-95087500D01*
X124070129Y-95087500D01*
X124070123Y-95087501D01*
X124010516Y-95093908D01*
X123875671Y-95144202D01*
X123875664Y-95144206D01*
X123760455Y-95230452D01*
X123760452Y-95230455D01*
X123674206Y-95345664D01*
X123674202Y-95345671D01*
X123623908Y-95480517D01*
X123617501Y-95540116D01*
X123617501Y-95540123D01*
X123617500Y-95540135D01*
X123182500Y-95540135D01*
X123182500Y-94080500D01*
X124180500Y-94080500D01*
X124932500Y-94080500D01*
X125930500Y-94080500D01*
X127432500Y-94080500D01*
X127432500Y-93199000D01*
X125930500Y-93199000D01*
X125930500Y-94080500D01*
X124932500Y-94080500D01*
X124932500Y-93199000D01*
X124180500Y-93199000D01*
X124180500Y-94080500D01*
X123182500Y-94080500D01*
X123182500Y-93123076D01*
X128430500Y-93123076D01*
X128430500Y-94080500D01*
X129932500Y-94080500D01*
X130930500Y-94080500D01*
X132432500Y-94080500D01*
X133430500Y-94080500D01*
X134932500Y-94080500D01*
X134932500Y-93942975D01*
X135930500Y-93942975D01*
X136010019Y-93928111D01*
X136032804Y-93926000D01*
X136255196Y-93926000D01*
X136277980Y-93928111D01*
X136323500Y-93936619D01*
X136323500Y-92782057D01*
X136312392Y-92761959D01*
X136309199Y-92755779D01*
X136284895Y-92705312D01*
X136282055Y-92698965D01*
X136265947Y-92660079D01*
X136263465Y-92653579D01*
X136237194Y-92578500D01*
X135930500Y-92578500D01*
X135930500Y-93942975D01*
X134932500Y-93942975D01*
X134932500Y-92578500D01*
X133430500Y-92578500D01*
X133430500Y-94080500D01*
X132432500Y-94080500D01*
X132432500Y-92578500D01*
X130930500Y-92578500D01*
X130930500Y-94080500D01*
X129932500Y-94080500D01*
X129932500Y-92578500D01*
X128975076Y-92578500D01*
X128430500Y-93123076D01*
X123182500Y-93123076D01*
X123182500Y-92199000D01*
X123202185Y-92131961D01*
X123254989Y-92086206D01*
X123306500Y-92075000D01*
X127889000Y-92075000D01*
X127889000Y-87454500D01*
X127908685Y-87387461D01*
X127961489Y-87341706D01*
X128013000Y-87330500D01*
X144438902Y-87330500D01*
X144505941Y-87350185D01*
G37*
%TD.AperFunction*%
%TA.AperFunction,Conductor*%
G36*
X150046703Y-109453913D02*
G01*
X150053181Y-109459945D01*
X150650610Y-110057374D01*
X150650620Y-110057385D01*
X150654950Y-110061715D01*
X150654951Y-110061716D01*
X150766755Y-110173520D01*
X150847634Y-110220215D01*
X150903686Y-110252577D01*
X151056414Y-110293500D01*
X151214528Y-110293500D01*
X153207903Y-110293500D01*
X153274942Y-110313185D01*
X153295584Y-110329819D01*
X153373898Y-110408133D01*
X153407383Y-110469456D01*
X153402399Y-110539148D01*
X153373898Y-110583495D01*
X153151481Y-110805911D01*
X153151479Y-110805913D01*
X153131775Y-110840043D01*
X153123446Y-110854470D01*
X153072423Y-110942844D01*
X153031499Y-111095572D01*
X153031499Y-111095574D01*
X153031499Y-111263675D01*
X153031500Y-111263688D01*
X153031500Y-111889330D01*
X153031499Y-111889348D01*
X153031499Y-112055054D01*
X153031498Y-112055054D01*
X153072423Y-112207786D01*
X153087268Y-112233496D01*
X153087269Y-112233501D01*
X153087271Y-112233501D01*
X153151479Y-112344714D01*
X153151481Y-112344717D01*
X153270349Y-112463585D01*
X153270355Y-112463590D01*
X153601298Y-112794533D01*
X153634783Y-112855856D01*
X153636837Y-112868330D01*
X153646630Y-112955249D01*
X153706210Y-113125521D01*
X153802184Y-113278262D01*
X153878361Y-113354439D01*
X153911846Y-113415762D01*
X153906862Y-113485454D01*
X153864990Y-113541387D01*
X153843086Y-113554501D01*
X153754176Y-113595961D01*
X153754169Y-113595965D01*
X153560597Y-113731505D01*
X153393505Y-113898597D01*
X153263575Y-114084158D01*
X153208998Y-114127783D01*
X153139500Y-114134977D01*
X153077145Y-114103454D01*
X153060425Y-114084158D01*
X152930494Y-113898597D01*
X152763402Y-113731506D01*
X152763395Y-113731501D01*
X152569834Y-113595967D01*
X152569830Y-113595965D01*
X152569821Y-113595961D01*
X152355663Y-113496097D01*
X152355659Y-113496096D01*
X152355655Y-113496094D01*
X152127413Y-113434938D01*
X152127403Y-113434936D01*
X151892001Y-113414341D01*
X151891999Y-113414341D01*
X151656596Y-113434936D01*
X151656586Y-113434938D01*
X151428344Y-113496094D01*
X151428335Y-113496098D01*
X151214171Y-113595964D01*
X151214169Y-113595965D01*
X151020597Y-113731505D01*
X150853505Y-113898597D01*
X150723575Y-114084158D01*
X150668998Y-114127783D01*
X150599500Y-114134977D01*
X150537145Y-114103454D01*
X150520425Y-114084158D01*
X150390494Y-113898597D01*
X150223402Y-113731506D01*
X150223395Y-113731501D01*
X150029834Y-113595967D01*
X150029830Y-113595965D01*
X150029821Y-113595961D01*
X149815663Y-113496097D01*
X149815659Y-113496096D01*
X149815655Y-113496094D01*
X149587413Y-113434938D01*
X149587403Y-113434936D01*
X149352001Y-113414341D01*
X149351999Y-113414341D01*
X149116596Y-113434936D01*
X149116586Y-113434938D01*
X148888344Y-113496094D01*
X148888335Y-113496098D01*
X148674171Y-113595964D01*
X148674169Y-113595965D01*
X148480597Y-113731505D01*
X148313505Y-113898597D01*
X148183575Y-114084158D01*
X148128998Y-114127783D01*
X148059500Y-114134977D01*
X147997145Y-114103454D01*
X147980425Y-114084158D01*
X147850494Y-113898597D01*
X147683402Y-113731506D01*
X147683395Y-113731501D01*
X147489834Y-113595967D01*
X147489830Y-113595965D01*
X147489821Y-113595961D01*
X147275663Y-113496097D01*
X147275659Y-113496096D01*
X147275655Y-113496094D01*
X147047413Y-113434938D01*
X147047403Y-113434936D01*
X146812001Y-113414341D01*
X146811999Y-113414341D01*
X146576596Y-113434936D01*
X146576586Y-113434938D01*
X146348344Y-113496094D01*
X146348335Y-113496098D01*
X146134171Y-113595964D01*
X146134169Y-113595965D01*
X145940597Y-113731505D01*
X145773505Y-113898597D01*
X145643575Y-114084158D01*
X145588998Y-114127783D01*
X145519500Y-114134977D01*
X145457145Y-114103454D01*
X145440425Y-114084158D01*
X145310494Y-113898597D01*
X145143402Y-113731506D01*
X145143395Y-113731501D01*
X144949834Y-113595967D01*
X144949830Y-113595965D01*
X144949821Y-113595961D01*
X144735663Y-113496097D01*
X144735659Y-113496096D01*
X144735655Y-113496094D01*
X144507413Y-113434938D01*
X144507403Y-113434936D01*
X144369792Y-113422896D01*
X144304723Y-113397443D01*
X144263745Y-113340852D01*
X144259867Y-113271090D01*
X144292918Y-113211688D01*
X144321891Y-113182716D01*
X144321891Y-113182714D01*
X144332095Y-113172511D01*
X144332099Y-113172506D01*
X146187964Y-111316640D01*
X146249285Y-111283157D01*
X146318977Y-111288141D01*
X146374910Y-111330013D01*
X146398863Y-111390438D01*
X146407631Y-111468251D01*
X146407631Y-111468254D01*
X146467211Y-111638523D01*
X146555186Y-111778533D01*
X146563184Y-111791262D01*
X146690738Y-111918816D01*
X146732884Y-111945298D01*
X146842578Y-112014224D01*
X146843478Y-112014789D01*
X146997007Y-112068511D01*
X147013745Y-112074368D01*
X147013750Y-112074369D01*
X147192996Y-112094565D01*
X147193000Y-112094565D01*
X147193004Y-112094565D01*
X147372249Y-112074369D01*
X147372252Y-112074368D01*
X147372255Y-112074368D01*
X147542522Y-112014789D01*
X147695262Y-111918816D01*
X147695267Y-111918810D01*
X147698097Y-111916555D01*
X147700275Y-111915665D01*
X147701158Y-111915111D01*
X147701255Y-111915265D01*
X147762783Y-111890145D01*
X147775412Y-111889500D01*
X148072903Y-111889500D01*
X148139942Y-111909185D01*
X148160584Y-111925819D01*
X148521298Y-112286533D01*
X148554783Y-112347856D01*
X148556837Y-112360330D01*
X148566630Y-112447249D01*
X148626210Y-112617521D01*
X148718856Y-112764965D01*
X148722184Y-112770262D01*
X148849738Y-112897816D01*
X148937582Y-112953012D01*
X148982143Y-112981012D01*
X149002478Y-112993789D01*
X149172745Y-113053368D01*
X149172750Y-113053369D01*
X149351996Y-113073565D01*
X149352000Y-113073565D01*
X149352004Y-113073565D01*
X149531249Y-113053369D01*
X149531252Y-113053368D01*
X149531255Y-113053368D01*
X149701522Y-112993789D01*
X149854262Y-112897816D01*
X149981816Y-112770262D01*
X150001104Y-112739565D01*
X150053436Y-112693275D01*
X150122489Y-112682625D01*
X150186338Y-112710999D01*
X150193778Y-112717856D01*
X150246738Y-112770816D01*
X150292178Y-112799368D01*
X150396296Y-112864790D01*
X150399478Y-112866789D01*
X150488148Y-112897816D01*
X150569745Y-112926368D01*
X150569750Y-112926369D01*
X150748996Y-112946565D01*
X150749000Y-112946565D01*
X150749004Y-112946565D01*
X150928249Y-112926369D01*
X150928252Y-112926368D01*
X150928255Y-112926368D01*
X151098522Y-112866789D01*
X151251262Y-112770816D01*
X151378816Y-112643262D01*
X151474789Y-112490522D01*
X151534368Y-112320255D01*
X151539610Y-112273737D01*
X151554565Y-112141000D01*
X151554565Y-112140996D01*
X151534369Y-111961750D01*
X151534368Y-111961745D01*
X151491717Y-111839856D01*
X151474789Y-111791478D01*
X151474653Y-111791262D01*
X151402168Y-111675903D01*
X151378816Y-111638738D01*
X151378814Y-111638736D01*
X151378813Y-111638734D01*
X151376550Y-111635896D01*
X151375659Y-111633715D01*
X151375111Y-111632842D01*
X151375264Y-111632745D01*
X151350144Y-111571209D01*
X151349500Y-111558587D01*
X151349500Y-111553945D01*
X151349500Y-111553943D01*
X151330701Y-111483784D01*
X151308577Y-111401215D01*
X151272451Y-111338643D01*
X151272451Y-111338642D01*
X151229524Y-111264290D01*
X151229521Y-111264286D01*
X151229520Y-111264284D01*
X151117716Y-111152480D01*
X151117715Y-111152479D01*
X151113385Y-111148149D01*
X151113374Y-111148139D01*
X149877819Y-109912584D01*
X149844334Y-109851261D01*
X149841500Y-109824903D01*
X149841500Y-109547626D01*
X149861185Y-109480587D01*
X149913989Y-109434832D01*
X149983147Y-109424888D01*
X150046703Y-109453913D01*
G37*
%TD.AperFunction*%
%TA.AperFunction,Conductor*%
G36*
X142172951Y-99910389D02*
G01*
X142208117Y-99935038D01*
X142551453Y-100278374D01*
X142551463Y-100278385D01*
X142555793Y-100282715D01*
X142555794Y-100282716D01*
X142667598Y-100394520D01*
X142667600Y-100394521D01*
X142667601Y-100394522D01*
X142701607Y-100414155D01*
X142725373Y-100427876D01*
X142737183Y-100434694D01*
X142737185Y-100434696D01*
X142737186Y-100434696D01*
X142804529Y-100473577D01*
X142957257Y-100514501D01*
X142957260Y-100514501D01*
X143122967Y-100514501D01*
X143122983Y-100514500D01*
X147227860Y-100514500D01*
X147227876Y-100514501D01*
X147235472Y-100514501D01*
X147393583Y-100514501D01*
X147393586Y-100514501D01*
X147546314Y-100473577D01*
X147613657Y-100434696D01*
X147679506Y-100396678D01*
X147747405Y-100380208D01*
X147813431Y-100403061D01*
X147856621Y-100457982D01*
X147865503Y-100504067D01*
X147865503Y-101354585D01*
X147845818Y-101421624D01*
X147829184Y-101442266D01*
X146477481Y-102793968D01*
X146477479Y-102793971D01*
X146464543Y-102816378D01*
X146439647Y-102859499D01*
X146398423Y-102930901D01*
X146357499Y-103083629D01*
X146357499Y-103083631D01*
X146357499Y-103251732D01*
X146357500Y-103251745D01*
X146357500Y-103471593D01*
X146337815Y-103538632D01*
X146285011Y-103584387D01*
X146247384Y-103594813D01*
X146124749Y-103608630D01*
X146124745Y-103608631D01*
X145954476Y-103668211D01*
X145801737Y-103764184D01*
X145674184Y-103891737D01*
X145578211Y-104044476D01*
X145518631Y-104214745D01*
X145518630Y-104214750D01*
X145498435Y-104393996D01*
X145498435Y-104394003D01*
X145518630Y-104573249D01*
X145518631Y-104573254D01*
X145578211Y-104743523D01*
X145658010Y-104870522D01*
X145674184Y-104896262D01*
X145801738Y-105023816D01*
X145899472Y-105085226D01*
X145945763Y-105137561D01*
X145957500Y-105190220D01*
X145957500Y-106450541D01*
X145957499Y-106450559D01*
X145957499Y-106616265D01*
X145957498Y-106616265D01*
X145957499Y-106616268D01*
X145998362Y-106768769D01*
X145998424Y-106768998D01*
X146010793Y-106790421D01*
X146010794Y-106790423D01*
X146077477Y-106905923D01*
X146077481Y-106905928D01*
X146196349Y-107024796D01*
X146196355Y-107024801D01*
X146981298Y-107809744D01*
X147014783Y-107871067D01*
X147016837Y-107883541D01*
X147026630Y-107970460D01*
X147086210Y-108140732D01*
X147182184Y-108293473D01*
X147259741Y-108371030D01*
X147293226Y-108432353D01*
X147288242Y-108502045D01*
X147259741Y-108546392D01*
X144409272Y-111396862D01*
X144347949Y-111430347D01*
X144278257Y-111425363D01*
X144225738Y-111387846D01*
X144185357Y-111338642D01*
X144040626Y-111219864D01*
X144040623Y-111219862D01*
X143875502Y-111131604D01*
X143696332Y-111077253D01*
X143554376Y-111063271D01*
X143489589Y-111037110D01*
X143478850Y-111027549D01*
X142525355Y-110074054D01*
X142491870Y-110012731D01*
X142496854Y-109943039D01*
X142538726Y-109887106D01*
X142572081Y-109869331D01*
X142623722Y-109851261D01*
X142716522Y-109818789D01*
X142869262Y-109722816D01*
X142996816Y-109595262D01*
X143092789Y-109442522D01*
X143152368Y-109272255D01*
X143155071Y-109248264D01*
X143172565Y-109093003D01*
X143172565Y-109092996D01*
X143152369Y-108913750D01*
X143152366Y-108913737D01*
X143092790Y-108743479D01*
X143027692Y-108639875D01*
X143008686Y-108573904D01*
X143008686Y-108341456D01*
X144006686Y-108341456D01*
X144006946Y-108342038D01*
X144023053Y-108380924D01*
X144025533Y-108387421D01*
X144103615Y-108610564D01*
X144105728Y-108617193D01*
X144117381Y-108657643D01*
X144119119Y-108664379D01*
X144131582Y-108718989D01*
X144132938Y-108725809D01*
X144139986Y-108767293D01*
X144140958Y-108774180D01*
X144167425Y-109009092D01*
X144168010Y-109016021D01*
X144170370Y-109058039D01*
X144170565Y-109064993D01*
X144170565Y-109080500D01*
X144932500Y-109080500D01*
X144932500Y-107578500D01*
X144006686Y-107578500D01*
X144006686Y-108341456D01*
X143008686Y-108341456D01*
X143008686Y-105921177D01*
X144006686Y-105921177D01*
X144006686Y-106580500D01*
X144932500Y-106580500D01*
X144932500Y-105564329D01*
X144915873Y-105545724D01*
X144911386Y-105540410D01*
X144876462Y-105496618D01*
X144872280Y-105491061D01*
X144847922Y-105456733D01*
X144844056Y-105450948D01*
X144718281Y-105250780D01*
X144714748Y-105244790D01*
X144694392Y-105207959D01*
X144691199Y-105201779D01*
X144666895Y-105151312D01*
X144664055Y-105144965D01*
X144647947Y-105106079D01*
X144645465Y-105099578D01*
X144638090Y-105078500D01*
X144211751Y-105078500D01*
X144211751Y-105115127D01*
X144211556Y-105122081D01*
X144209196Y-105164099D01*
X144208611Y-105171028D01*
X144182144Y-105405940D01*
X144181172Y-105412827D01*
X144174124Y-105454311D01*
X144172768Y-105461131D01*
X144160305Y-105515741D01*
X144158567Y-105522478D01*
X144146914Y-105562927D01*
X144144802Y-105569554D01*
X144066721Y-105792698D01*
X144064239Y-105799199D01*
X144048131Y-105838085D01*
X144045291Y-105844432D01*
X144020987Y-105894899D01*
X144017794Y-105901079D01*
X144006686Y-105921177D01*
X143008686Y-105921177D01*
X143008686Y-105669532D01*
X143028371Y-105602493D01*
X143035741Y-105592217D01*
X143037996Y-105589387D01*
X143038002Y-105589382D01*
X143133975Y-105436642D01*
X143193554Y-105266375D01*
X143197397Y-105232266D01*
X143213751Y-105087123D01*
X143213751Y-105087116D01*
X143193555Y-104907870D01*
X143193554Y-104907865D01*
X143189494Y-104896262D01*
X143133975Y-104737598D01*
X143038002Y-104584858D01*
X142910448Y-104457304D01*
X142809705Y-104394003D01*
X142751812Y-104357626D01*
X142752542Y-104356463D01*
X142706334Y-104314735D01*
X142688000Y-104249846D01*
X142688000Y-103582662D01*
X142676988Y-103527305D01*
X142676988Y-103527304D01*
X142662041Y-103452159D01*
X142621643Y-103354632D01*
X142611120Y-103329226D01*
X142559349Y-103251745D01*
X142537198Y-103218593D01*
X142537197Y-103218592D01*
X142537195Y-103218589D01*
X142443106Y-103124500D01*
X142338926Y-103020320D01*
X142208914Y-102890307D01*
X142208910Y-102890304D01*
X142098280Y-102816383D01*
X142098270Y-102816378D01*
X141975341Y-102765459D01*
X141975333Y-102765457D01*
X141943691Y-102759163D01*
X143430500Y-102759163D01*
X143454540Y-102795142D01*
X143457796Y-102800283D01*
X143476724Y-102831862D01*
X143479723Y-102837156D01*
X143502827Y-102880379D01*
X143505565Y-102885818D01*
X143521312Y-102919113D01*
X143523779Y-102924679D01*
X143543648Y-102972651D01*
X143543674Y-102972710D01*
X143593447Y-103092873D01*
X143595636Y-103098548D01*
X143608040Y-103133211D01*
X143609950Y-103138992D01*
X143624177Y-103185890D01*
X143625801Y-103191757D01*
X143634751Y-103227487D01*
X143636085Y-103233427D01*
X143655810Y-103332596D01*
X143655809Y-103332596D01*
X143671603Y-103411992D01*
X143672644Y-103417988D01*
X143678049Y-103454423D01*
X143678794Y-103460467D01*
X143683597Y-103509240D01*
X143684045Y-103515309D01*
X143685851Y-103552081D01*
X143686000Y-103558164D01*
X143686000Y-103821472D01*
X143763495Y-103898967D01*
X143768273Y-103904020D01*
X143796313Y-103935396D01*
X143800800Y-103940710D01*
X143835724Y-103984502D01*
X143839906Y-103990059D01*
X143864264Y-104024387D01*
X143868130Y-104030172D01*
X143899753Y-104080500D01*
X144529443Y-104080500D01*
X144530042Y-104075180D01*
X144531014Y-104068293D01*
X144538062Y-104026809D01*
X144539418Y-104019989D01*
X144551881Y-103965379D01*
X144553619Y-103958642D01*
X144565272Y-103918193D01*
X144567384Y-103911566D01*
X144645465Y-103688422D01*
X144647947Y-103681921D01*
X144664055Y-103643035D01*
X144666895Y-103636688D01*
X144691199Y-103586221D01*
X144694392Y-103580041D01*
X144714748Y-103543210D01*
X144718281Y-103537220D01*
X144844056Y-103337052D01*
X144847922Y-103331267D01*
X144872280Y-103296939D01*
X144876462Y-103291382D01*
X144911386Y-103247590D01*
X144915873Y-103242276D01*
X144932500Y-103223670D01*
X144932500Y-102578500D01*
X143430500Y-102578500D01*
X143430500Y-102759163D01*
X141943691Y-102759163D01*
X141844840Y-102739500D01*
X141844836Y-102739500D01*
X139818096Y-102739500D01*
X139751057Y-102719815D01*
X139705302Y-102667011D01*
X139695358Y-102597853D01*
X139724383Y-102534297D01*
X139730415Y-102527819D01*
X141621692Y-100636542D01*
X141621695Y-100636539D01*
X141658740Y-100581097D01*
X141672406Y-100560645D01*
X141672408Y-100560640D01*
X141672414Y-100560632D01*
X141695620Y-100525902D01*
X141717740Y-100472500D01*
X141741910Y-100414148D01*
X141768798Y-100373915D01*
X141772351Y-100370361D01*
X141772357Y-100370357D01*
X141891136Y-100225625D01*
X141979396Y-100060501D01*
X142001777Y-99986720D01*
X142040072Y-99928286D01*
X142103884Y-99899829D01*
X142172951Y-99910389D01*
G37*
%TD.AperFunction*%
%TD*%
M02*
