%TF.GenerationSoftware,KiCad,Pcbnew,8.0.8*%
%TF.CreationDate,2025-02-03T21:22:47-04:00*%
%TF.ProjectId,ATMega328P-512K-Datalogger-2L,41544d65-6761-4333-9238-502d3531324b,1*%
%TF.SameCoordinates,Original*%
%TF.FileFunction,Plated,1,2,PTH,Drill*%
%TF.FilePolarity,Positive*%
%FSLAX46Y46*%
G04 Gerber Fmt 4.6, Leading zero omitted, Abs format (unit mm)*
G04 Created by KiCad (PCBNEW 8.0.8) date 2025-02-03 21:22:47*
%MOMM*%
%LPD*%
G01*
G04 APERTURE LIST*
%TA.AperFunction,ViaDrill*%
%ADD10C,0.300000*%
%TD*%
%TA.AperFunction,ViaDrill*%
%ADD11C,0.400000*%
%TD*%
%TA.AperFunction,ComponentDrill*%
%ADD12C,1.000000*%
%TD*%
G04 APERTURE END LIST*
D10*
X132080000Y-112014000D03*
X136144000Y-97028000D03*
X136906000Y-103303000D03*
X137414000Y-105118000D03*
X137922000Y-91948000D03*
X138176000Y-96012000D03*
X141287500Y-104140000D03*
X141478000Y-111760000D03*
X141986000Y-94742000D03*
X141986000Y-97282000D03*
X142367000Y-109093000D03*
X142408186Y-105087120D03*
X145034000Y-98044000D03*
X146304000Y-104394000D03*
X147066000Y-99314000D03*
X147193000Y-111289000D03*
X147812000Y-107791211D03*
X147866003Y-99314000D03*
X147955000Y-104521000D03*
X149352000Y-112268000D03*
X149606000Y-99822000D03*
X150241000Y-104521000D03*
X150241000Y-107950000D03*
X150368000Y-96012000D03*
X150749000Y-112141000D03*
X151221735Y-107985265D03*
X151892000Y-100076000D03*
X153365200Y-97866200D03*
X153670000Y-106680000D03*
X153670000Y-107696000D03*
X153703000Y-109093000D03*
X154432000Y-112776000D03*
X155041600Y-104851200D03*
X162052000Y-101346000D03*
X165100000Y-98552000D03*
X169799000Y-107442000D03*
D11*
X130556000Y-96520000D03*
X135890000Y-104140000D03*
X136144000Y-95250000D03*
X141097000Y-99695000D03*
X141605000Y-101727000D03*
X142748000Y-89408000D03*
X143510000Y-112014000D03*
X146431000Y-112141000D03*
X147066000Y-101346000D03*
X152781000Y-112268000D03*
X154432000Y-111506000D03*
X166624000Y-107442000D03*
X168656000Y-95504000D03*
D12*
%TO.C,BT1*%
X124968000Y-96438000D03*
X124968000Y-98978000D03*
%TO.C,I2C*%
X131350000Y-89370000D03*
X133890000Y-89370000D03*
X136430000Y-89370000D03*
X138970000Y-89370000D03*
%TO.C,GPIO*%
X139192000Y-114770000D03*
X141732000Y-114770000D03*
X144272000Y-114770000D03*
X146812000Y-114770000D03*
X149352000Y-114770000D03*
X151892000Y-114770000D03*
X154432000Y-114770000D03*
X156972000Y-114770000D03*
%TO.C,Serial*%
X158242000Y-89370000D03*
%TO.C,GPIO*%
X159512000Y-114770000D03*
%TO.C,Serial*%
X160782000Y-89370000D03*
X163322000Y-89370000D03*
X165862000Y-89370000D03*
%TO.C,ICSP*%
X168402000Y-99530000D03*
X168402000Y-102070000D03*
X168402000Y-104610000D03*
X170942000Y-99530000D03*
X170942000Y-102070000D03*
X170942000Y-104610000D03*
M02*
