%TF.GenerationSoftware,KiCad,Pcbnew,8.0.8*%
%TF.CreationDate,2025-02-04T21:51:42-04:00*%
%TF.ProjectId,ATMega328P-512K-Datalogger-4L,41544d65-6761-4333-9238-502d3531324b,1*%
%TF.SameCoordinates,Original*%
%TF.FileFunction,Copper,L4,Bot*%
%TF.FilePolarity,Positive*%
%FSLAX46Y46*%
G04 Gerber Fmt 4.6, Leading zero omitted, Abs format (unit mm)*
G04 Created by KiCad (PCBNEW 8.0.8) date 2025-02-04 21:51:42*
%MOMM*%
%LPD*%
G01*
G04 APERTURE LIST*
%TA.AperFunction,ComponentPad*%
%ADD10R,1.700000X1.700000*%
%TD*%
%TA.AperFunction,ComponentPad*%
%ADD11O,1.700000X1.700000*%
%TD*%
%TA.AperFunction,ViaPad*%
%ADD12C,0.600000*%
%TD*%
%TA.AperFunction,ViaPad*%
%ADD13C,0.900000*%
%TD*%
%TA.AperFunction,Conductor*%
%ADD14C,0.350000*%
%TD*%
G04 APERTURE END LIST*
D10*
%TO.P,ICSP,1,Pin_1*%
%TO.N,/MISO*%
X168402000Y-99530000D03*
D11*
%TO.P,ICSP,2,Pin_2*%
%TO.N,/VCC*%
X170942000Y-99530000D03*
%TO.P,ICSP,3,Pin_3*%
%TO.N,/SCK*%
X168402000Y-102070000D03*
%TO.P,ICSP,4,Pin_4*%
%TO.N,/MOSI*%
X170942000Y-102070000D03*
%TO.P,ICSP,5,Pin_5*%
%TO.N,/RESET*%
X168402000Y-104610000D03*
%TO.P,ICSP,6,Pin_6*%
%TO.N,GND*%
X170942000Y-104610000D03*
%TD*%
D10*
%TO.P,BT1,1,+*%
%TO.N,/VCC*%
X124968000Y-96438000D03*
D11*
%TO.P,BT1,2,-*%
%TO.N,GND*%
X124968000Y-98978000D03*
%TD*%
D10*
%TO.P,Serial,1,Pin_1*%
%TO.N,GND*%
X158242000Y-89370000D03*
D11*
%TO.P,Serial,2,Pin_2*%
%TO.N,/VCC*%
X160782000Y-89370000D03*
%TO.P,Serial,3,Pin_3*%
%TO.N,/TX*%
X163322000Y-89370000D03*
%TO.P,Serial,4,Pin_4*%
%TO.N,/RX*%
X165862000Y-89370000D03*
%TD*%
D10*
%TO.P,GPIO,1,Pin_1*%
%TO.N,/D2*%
X139192000Y-114770000D03*
D11*
%TO.P,GPIO,2,Pin_2*%
%TO.N,/D3*%
X141732000Y-114770000D03*
%TO.P,GPIO,3,Pin_3*%
%TO.N,/D4*%
X144272000Y-114770000D03*
%TO.P,GPIO,4,Pin_4*%
%TO.N,/D5*%
X146812000Y-114770000D03*
%TO.P,GPIO,5,Pin_5*%
%TO.N,/D6*%
X149352000Y-114770000D03*
%TO.P,GPIO,6,Pin_6*%
%TO.N,/D7*%
X151892000Y-114770000D03*
%TO.P,GPIO,7,Pin_7*%
%TO.N,/D8*%
X154432000Y-114770000D03*
%TO.P,GPIO,8,Pin_8*%
%TO.N,GND*%
X156972000Y-114770000D03*
%TO.P,GPIO,9,Pin_9*%
%TO.N,/VCC*%
X159512000Y-114770000D03*
%TD*%
D10*
%TO.P,I2C,1,Pin_1*%
%TO.N,GND*%
X131350000Y-89370000D03*
D11*
%TO.P,I2C,2,Pin_2*%
%TO.N,/VCC*%
X133890000Y-89370000D03*
%TO.P,I2C,3,Pin_3*%
%TO.N,/SDA*%
X136430000Y-89370000D03*
%TO.P,I2C,4,Pin_4*%
%TO.N,/SCL*%
X138970000Y-89370000D03*
%TD*%
D12*
%TO.N,/RX*%
X147929600Y-99898200D03*
%TO.N,/TX*%
X146583400Y-99644200D03*
%TO.N,/SDA*%
X142214600Y-98247200D03*
%TO.N,Net-(U1-PB6)*%
X154178000Y-108915200D03*
%TO.N,Net-(U1-PB7)*%
X146888200Y-104927400D03*
%TO.N,Net-(U1-PB6)*%
X146913600Y-103225600D03*
%TO.N,Net-(U1-PB7)*%
X141249400Y-106908600D03*
%TO.N,Net-(U1-PB6)*%
X137312400Y-106807000D03*
%TO.N,/SDA*%
X152095200Y-96279800D03*
%TO.N,/MOSI*%
X155905200Y-108356400D03*
%TO.N,/MISO*%
X155473400Y-106299000D03*
%TO.N,/SDA*%
X162229800Y-102031800D03*
X131546600Y-113157000D03*
X136017000Y-105079800D03*
X135641429Y-97602215D03*
%TO.N,/SCL*%
X160934400Y-101955600D03*
X150672800Y-94513400D03*
X137388600Y-96037400D03*
X138201400Y-104518000D03*
D13*
%TO.N,/VCC*%
X155422600Y-104089200D03*
X150932614Y-112787400D03*
X155295600Y-95554800D03*
X139674600Y-99212400D03*
%TO.N,GND*%
X165227000Y-98475800D03*
X142113000Y-94665800D03*
X134747000Y-97155000D03*
X154254200Y-111912400D03*
X145516600Y-112293400D03*
X136347200Y-102793800D03*
X148691600Y-104521000D03*
X147447000Y-101295200D03*
X130048000Y-103860600D03*
X165328600Y-103733600D03*
X149047200Y-93903800D03*
D12*
%TO.N,/RESET*%
X148717000Y-107797600D03*
X149416600Y-102673409D03*
%TD*%
D14*
%TO.N,GND*%
X148691600Y-102539800D02*
X147447000Y-101295200D01*
X148691600Y-104521000D02*
X148691600Y-102539800D01*
X145516600Y-103225600D02*
X145948400Y-102793800D01*
X145516600Y-112293400D02*
X145516600Y-103225600D01*
X145948400Y-102793800D02*
X147447000Y-101295200D01*
X136347200Y-102793800D02*
X145948400Y-102793800D01*
X135280400Y-103860600D02*
X130048000Y-103860600D01*
X134747000Y-99517200D02*
X134747000Y-97155000D01*
X136347200Y-102793800D02*
X135280400Y-103860600D01*
X136347200Y-102793800D02*
X136347200Y-101117400D01*
X136347200Y-101117400D02*
X134747000Y-99517200D01*
X165328600Y-98577400D02*
X165227000Y-98475800D01*
X165328600Y-103733600D02*
X165328600Y-98577400D01*
X165227000Y-98475800D02*
X158242000Y-91490800D01*
X158242000Y-91490800D02*
X158242000Y-89370000D01*
X145897600Y-111912400D02*
X154254200Y-111912400D01*
X145516600Y-112293400D02*
X145897600Y-111912400D01*
X154254200Y-112052200D02*
X156972000Y-114770000D01*
X154254200Y-111912400D02*
X154254200Y-112052200D01*
X148285200Y-94665800D02*
X142113000Y-94665800D01*
X149047200Y-93903800D02*
X148285200Y-94665800D01*
X137236200Y-94665800D02*
X134747000Y-97155000D01*
X142113000Y-94665800D02*
X137236200Y-94665800D01*
X131350000Y-93758000D02*
X134747000Y-97155000D01*
X131350000Y-89370000D02*
X131350000Y-93758000D01*
X124968000Y-98978000D02*
X129850600Y-103860600D01*
X129850600Y-103860600D02*
X130048000Y-103860600D01*
X169667000Y-105885000D02*
X170942000Y-104610000D01*
X165328600Y-103733600D02*
X167480000Y-105885000D01*
X153581000Y-89370000D02*
X158242000Y-89370000D01*
X167480000Y-105885000D02*
X169667000Y-105885000D01*
X149047200Y-93903800D02*
X153581000Y-89370000D01*
%TD*%
%TA.AperFunction,Conductor*%
%TO.N,GND*%
G36*
X168294239Y-87350185D02*
G01*
X168339994Y-87402989D01*
X168351200Y-87454500D01*
X168351200Y-91948000D01*
X172857500Y-91948000D01*
X172924539Y-91967685D01*
X172970294Y-92020489D01*
X172981500Y-92072000D01*
X172981500Y-112067800D01*
X172961815Y-112134839D01*
X172909011Y-112180594D01*
X172857500Y-112191800D01*
X168351200Y-112191800D01*
X168351200Y-116685500D01*
X168331515Y-116752539D01*
X168278711Y-116798294D01*
X168227200Y-116809500D01*
X127936800Y-116809500D01*
X127869761Y-116789815D01*
X127824006Y-116737011D01*
X127812800Y-116685500D01*
X127812800Y-115811500D01*
X128936800Y-115811500D01*
X129932500Y-115811500D01*
X130930500Y-115811500D01*
X132432500Y-115811500D01*
X133430500Y-115811500D01*
X134932500Y-115811500D01*
X135930500Y-115811500D01*
X136853190Y-115811500D01*
X136847788Y-115761245D01*
X136847477Y-115757936D01*
X136845865Y-115737899D01*
X136845643Y-115734587D01*
X136844214Y-115707905D01*
X136844081Y-115704587D01*
X136843545Y-115684536D01*
X136843501Y-115681222D01*
X136843501Y-115078500D01*
X135930500Y-115078500D01*
X135930500Y-115811500D01*
X134932500Y-115811500D01*
X134932500Y-115078500D01*
X133430500Y-115078500D01*
X133430500Y-115811500D01*
X132432500Y-115811500D01*
X132432500Y-115078500D01*
X130930500Y-115078500D01*
X130930500Y-115811500D01*
X129932500Y-115811500D01*
X129932500Y-115078500D01*
X128936800Y-115078500D01*
X128936800Y-115811500D01*
X127812800Y-115811500D01*
X127812800Y-114080500D01*
X128936800Y-114080500D01*
X129932500Y-114080500D01*
X133430500Y-114080500D01*
X134932500Y-114080500D01*
X135930500Y-114080500D01*
X136843500Y-114080500D01*
X136843500Y-113872135D01*
X137841500Y-113872135D01*
X137841500Y-115667870D01*
X137841501Y-115667876D01*
X137847908Y-115727483D01*
X137898202Y-115862328D01*
X137898206Y-115862335D01*
X137984452Y-115977544D01*
X137984455Y-115977547D01*
X138099664Y-116063793D01*
X138099671Y-116063797D01*
X138234517Y-116114091D01*
X138234516Y-116114091D01*
X138241444Y-116114835D01*
X138294127Y-116120500D01*
X140089872Y-116120499D01*
X140149483Y-116114091D01*
X140284331Y-116063796D01*
X140399546Y-115977546D01*
X140485796Y-115862331D01*
X140534810Y-115730916D01*
X140576681Y-115674984D01*
X140642145Y-115650566D01*
X140710418Y-115665417D01*
X140738673Y-115686569D01*
X140860599Y-115808495D01*
X140957384Y-115876265D01*
X141054165Y-115944032D01*
X141054167Y-115944033D01*
X141054170Y-115944035D01*
X141268337Y-116043903D01*
X141496592Y-116105063D01*
X141673034Y-116120500D01*
X141731999Y-116125659D01*
X141732000Y-116125659D01*
X141732001Y-116125659D01*
X141790966Y-116120500D01*
X141967408Y-116105063D01*
X142195663Y-116043903D01*
X142409830Y-115944035D01*
X142603401Y-115808495D01*
X142770495Y-115641401D01*
X142900425Y-115455842D01*
X142955002Y-115412217D01*
X143024500Y-115405023D01*
X143086855Y-115436546D01*
X143103575Y-115455842D01*
X143233500Y-115641395D01*
X143233505Y-115641401D01*
X143400599Y-115808495D01*
X143497384Y-115876265D01*
X143594165Y-115944032D01*
X143594167Y-115944033D01*
X143594170Y-115944035D01*
X143808337Y-116043903D01*
X144036592Y-116105063D01*
X144213034Y-116120500D01*
X144271999Y-116125659D01*
X144272000Y-116125659D01*
X144272001Y-116125659D01*
X144330966Y-116120500D01*
X144507408Y-116105063D01*
X144735663Y-116043903D01*
X144949830Y-115944035D01*
X145143401Y-115808495D01*
X145310495Y-115641401D01*
X145440425Y-115455842D01*
X145495002Y-115412217D01*
X145564500Y-115405023D01*
X145626855Y-115436546D01*
X145643575Y-115455842D01*
X145773500Y-115641395D01*
X145773505Y-115641401D01*
X145940599Y-115808495D01*
X146037384Y-115876265D01*
X146134165Y-115944032D01*
X146134167Y-115944033D01*
X146134170Y-115944035D01*
X146348337Y-116043903D01*
X146576592Y-116105063D01*
X146753034Y-116120500D01*
X146811999Y-116125659D01*
X146812000Y-116125659D01*
X146812001Y-116125659D01*
X146870966Y-116120500D01*
X147047408Y-116105063D01*
X147275663Y-116043903D01*
X147489830Y-115944035D01*
X147683401Y-115808495D01*
X147850495Y-115641401D01*
X147980425Y-115455842D01*
X148035002Y-115412217D01*
X148104500Y-115405023D01*
X148166855Y-115436546D01*
X148183575Y-115455842D01*
X148313500Y-115641395D01*
X148313505Y-115641401D01*
X148480599Y-115808495D01*
X148577384Y-115876265D01*
X148674165Y-115944032D01*
X148674167Y-115944033D01*
X148674170Y-115944035D01*
X148888337Y-116043903D01*
X149116592Y-116105063D01*
X149293034Y-116120500D01*
X149351999Y-116125659D01*
X149352000Y-116125659D01*
X149352001Y-116125659D01*
X149410966Y-116120500D01*
X149587408Y-116105063D01*
X149815663Y-116043903D01*
X150029830Y-115944035D01*
X150223401Y-115808495D01*
X150390495Y-115641401D01*
X150520425Y-115455842D01*
X150575002Y-115412217D01*
X150644500Y-115405023D01*
X150706855Y-115436546D01*
X150723575Y-115455842D01*
X150853500Y-115641395D01*
X150853505Y-115641401D01*
X151020599Y-115808495D01*
X151117384Y-115876265D01*
X151214165Y-115944032D01*
X151214167Y-115944033D01*
X151214170Y-115944035D01*
X151428337Y-116043903D01*
X151656592Y-116105063D01*
X151833034Y-116120500D01*
X151891999Y-116125659D01*
X151892000Y-116125659D01*
X151892001Y-116125659D01*
X151950966Y-116120500D01*
X152127408Y-116105063D01*
X152355663Y-116043903D01*
X152569830Y-115944035D01*
X152763401Y-115808495D01*
X152930495Y-115641401D01*
X153060425Y-115455842D01*
X153115002Y-115412217D01*
X153184500Y-115405023D01*
X153246855Y-115436546D01*
X153263575Y-115455842D01*
X153393500Y-115641395D01*
X153393505Y-115641401D01*
X153560599Y-115808495D01*
X153657384Y-115876265D01*
X153754165Y-115944032D01*
X153754167Y-115944033D01*
X153754170Y-115944035D01*
X153968337Y-116043903D01*
X154196592Y-116105063D01*
X154373034Y-116120500D01*
X154431999Y-116125659D01*
X154432000Y-116125659D01*
X154432001Y-116125659D01*
X154490966Y-116120500D01*
X154667408Y-116105063D01*
X154895663Y-116043903D01*
X155109830Y-115944035D01*
X155303401Y-115808495D01*
X155470495Y-115641401D01*
X155600730Y-115455405D01*
X155655307Y-115411781D01*
X155724805Y-115404587D01*
X155787160Y-115436110D01*
X155803879Y-115455405D01*
X155933890Y-115641078D01*
X156100917Y-115808105D01*
X156294421Y-115943600D01*
X156508507Y-116043429D01*
X156508516Y-116043433D01*
X156722000Y-116100634D01*
X156722000Y-115203012D01*
X156779007Y-115235925D01*
X156906174Y-115270000D01*
X157037826Y-115270000D01*
X157164993Y-115235925D01*
X157222000Y-115203012D01*
X157222000Y-116100633D01*
X157435483Y-116043433D01*
X157435492Y-116043429D01*
X157649578Y-115943600D01*
X157843082Y-115808105D01*
X158010105Y-115641082D01*
X158140119Y-115455405D01*
X158194696Y-115411781D01*
X158264195Y-115404588D01*
X158326549Y-115436110D01*
X158343269Y-115455405D01*
X158473505Y-115641401D01*
X158640599Y-115808495D01*
X158737384Y-115876265D01*
X158834165Y-115944032D01*
X158834167Y-115944033D01*
X158834170Y-115944035D01*
X159048337Y-116043903D01*
X159276592Y-116105063D01*
X159453034Y-116120500D01*
X159511999Y-116125659D01*
X159512000Y-116125659D01*
X159512001Y-116125659D01*
X159570966Y-116120500D01*
X159747408Y-116105063D01*
X159975663Y-116043903D01*
X160189830Y-115944035D01*
X160379109Y-115811500D01*
X161617624Y-115811500D01*
X162432500Y-115811500D01*
X163430500Y-115811500D01*
X164932500Y-115811500D01*
X165930500Y-115811500D01*
X167227200Y-115811500D01*
X167227200Y-115078500D01*
X165930500Y-115078500D01*
X165930500Y-115811500D01*
X164932500Y-115811500D01*
X164932500Y-115078500D01*
X163430500Y-115078500D01*
X163430500Y-115811500D01*
X162432500Y-115811500D01*
X162432500Y-115078500D01*
X161842480Y-115078500D01*
X161839367Y-115114085D01*
X161838778Y-115119461D01*
X161834507Y-115151904D01*
X161833684Y-115157251D01*
X161826121Y-115200146D01*
X161825066Y-115205454D01*
X161817981Y-115237412D01*
X161816695Y-115242666D01*
X161744259Y-115513008D01*
X161742744Y-115518205D01*
X161732895Y-115549440D01*
X161731154Y-115554568D01*
X161716253Y-115595500D01*
X161714295Y-115600535D01*
X161701777Y-115630756D01*
X161699598Y-115635708D01*
X161617624Y-115811500D01*
X160379109Y-115811500D01*
X160383401Y-115808495D01*
X160550495Y-115641401D01*
X160686035Y-115447830D01*
X160785903Y-115233663D01*
X160847063Y-115005408D01*
X160867659Y-114770000D01*
X160847063Y-114534592D01*
X160785903Y-114306337D01*
X160686035Y-114092171D01*
X160680731Y-114084595D01*
X160550494Y-113898597D01*
X160383402Y-113731506D01*
X160383395Y-113731501D01*
X160372892Y-113724147D01*
X160306518Y-113677671D01*
X160189834Y-113595967D01*
X160189830Y-113595965D01*
X160158887Y-113581536D01*
X159975663Y-113496097D01*
X159975659Y-113496096D01*
X159975655Y-113496094D01*
X159747413Y-113434938D01*
X159747403Y-113434936D01*
X159512001Y-113414341D01*
X159511999Y-113414341D01*
X159276596Y-113434936D01*
X159276586Y-113434938D01*
X159048344Y-113496094D01*
X159048335Y-113496098D01*
X158834171Y-113595964D01*
X158834169Y-113595965D01*
X158640597Y-113731505D01*
X158473508Y-113898594D01*
X158343269Y-114084595D01*
X158288692Y-114128219D01*
X158219193Y-114135412D01*
X158156839Y-114103890D01*
X158140119Y-114084594D01*
X158010113Y-113898926D01*
X158010108Y-113898920D01*
X157843082Y-113731894D01*
X157649578Y-113596399D01*
X157435492Y-113496570D01*
X157435486Y-113496567D01*
X157222000Y-113439364D01*
X157222000Y-114336988D01*
X157164993Y-114304075D01*
X157037826Y-114270000D01*
X156906174Y-114270000D01*
X156779007Y-114304075D01*
X156722000Y-114336988D01*
X156722000Y-113439364D01*
X156721999Y-113439364D01*
X156508513Y-113496567D01*
X156508507Y-113496570D01*
X156294422Y-113596399D01*
X156294420Y-113596400D01*
X156100926Y-113731886D01*
X156100920Y-113731891D01*
X155933891Y-113898920D01*
X155933890Y-113898922D01*
X155803880Y-114084595D01*
X155749303Y-114128219D01*
X155679804Y-114135412D01*
X155617450Y-114103890D01*
X155600730Y-114084594D01*
X155470494Y-113898597D01*
X155303402Y-113731506D01*
X155303395Y-113731501D01*
X155292892Y-113724147D01*
X155226518Y-113677671D01*
X155109834Y-113595967D01*
X155109830Y-113595965D01*
X155078887Y-113581536D01*
X154895663Y-113496097D01*
X154895659Y-113496096D01*
X154895655Y-113496094D01*
X154667413Y-113434938D01*
X154667403Y-113434936D01*
X154432001Y-113414341D01*
X154431999Y-113414341D01*
X154196596Y-113434936D01*
X154196586Y-113434938D01*
X153968344Y-113496094D01*
X153968335Y-113496098D01*
X153754171Y-113595964D01*
X153754169Y-113595965D01*
X153560597Y-113731505D01*
X153393505Y-113898597D01*
X153263575Y-114084158D01*
X153208998Y-114127783D01*
X153139500Y-114134977D01*
X153077145Y-114103454D01*
X153060425Y-114084158D01*
X152930494Y-113898597D01*
X152763402Y-113731506D01*
X152763395Y-113731501D01*
X152752892Y-113724147D01*
X152686518Y-113677671D01*
X152569834Y-113595967D01*
X152569830Y-113595965D01*
X152538887Y-113581536D01*
X152355663Y-113496097D01*
X152355659Y-113496096D01*
X152355655Y-113496094D01*
X152127413Y-113434938D01*
X152127403Y-113434936D01*
X151892001Y-113414341D01*
X151886586Y-113414341D01*
X151886586Y-113413041D01*
X151824232Y-113400506D01*
X151774052Y-113351888D01*
X151758123Y-113283859D01*
X151772572Y-113232297D01*
X151815010Y-113152901D01*
X151869361Y-112973731D01*
X151876992Y-112896254D01*
X160930500Y-112896254D01*
X160973678Y-112926488D01*
X160978042Y-112929689D01*
X161004022Y-112949625D01*
X161008243Y-112953012D01*
X161041610Y-112981012D01*
X161045678Y-112984580D01*
X161069794Y-113006680D01*
X161073698Y-113010418D01*
X161271590Y-113208309D01*
X161275330Y-113212216D01*
X161297449Y-113236354D01*
X161301020Y-113240426D01*
X161329018Y-113273795D01*
X161332403Y-113278012D01*
X161352323Y-113303973D01*
X161355521Y-113308335D01*
X161516040Y-113537581D01*
X161519046Y-113542080D01*
X161536628Y-113569679D01*
X161539433Y-113574301D01*
X161561212Y-113612022D01*
X161563814Y-113616765D01*
X161578930Y-113645801D01*
X161581324Y-113650655D01*
X161699598Y-113904292D01*
X161701777Y-113909244D01*
X161714295Y-113939465D01*
X161716253Y-113944500D01*
X161731154Y-113985432D01*
X161732895Y-113990560D01*
X161742744Y-114021795D01*
X161744259Y-114026992D01*
X161758596Y-114080500D01*
X162432500Y-114080500D01*
X163430500Y-114080500D01*
X164932500Y-114080500D01*
X165930500Y-114080500D01*
X167227200Y-114080500D01*
X167227200Y-112578500D01*
X165930500Y-112578500D01*
X165930500Y-114080500D01*
X164932500Y-114080500D01*
X164932500Y-112578500D01*
X163430500Y-112578500D01*
X163430500Y-114080500D01*
X162432500Y-114080500D01*
X162432500Y-112578500D01*
X160930500Y-112578500D01*
X160930500Y-112896254D01*
X151876992Y-112896254D01*
X151887713Y-112787400D01*
X151869361Y-112601069D01*
X151815010Y-112421899D01*
X151788142Y-112371632D01*
X151726751Y-112256776D01*
X151726749Y-112256773D01*
X151607971Y-112112042D01*
X151463240Y-111993264D01*
X151463237Y-111993262D01*
X151298116Y-111905004D01*
X151118947Y-111850653D01*
X151118945Y-111850652D01*
X150932614Y-111832301D01*
X150746282Y-111850652D01*
X150746280Y-111850653D01*
X150567111Y-111905004D01*
X150401990Y-111993262D01*
X150401987Y-111993264D01*
X150257256Y-112112042D01*
X150138478Y-112256773D01*
X150138476Y-112256776D01*
X150050218Y-112421897D01*
X149995867Y-112601066D01*
X149995866Y-112601068D01*
X149977515Y-112787400D01*
X149995866Y-112973731D01*
X149995867Y-112973733D01*
X150050218Y-113152902D01*
X150138476Y-113318023D01*
X150138478Y-113318026D01*
X150248179Y-113451696D01*
X150275492Y-113516006D01*
X150263701Y-113584873D01*
X150216549Y-113636434D01*
X150149007Y-113654317D01*
X150082518Y-113632844D01*
X150081203Y-113631936D01*
X150029834Y-113595968D01*
X150029830Y-113595965D01*
X149998887Y-113581536D01*
X149815663Y-113496097D01*
X149815659Y-113496096D01*
X149815655Y-113496094D01*
X149587413Y-113434938D01*
X149587403Y-113434936D01*
X149352001Y-113414341D01*
X149351999Y-113414341D01*
X149116596Y-113434936D01*
X149116586Y-113434938D01*
X148888344Y-113496094D01*
X148888335Y-113496098D01*
X148674171Y-113595964D01*
X148674169Y-113595965D01*
X148480597Y-113731505D01*
X148313505Y-113898597D01*
X148183575Y-114084158D01*
X148128998Y-114127783D01*
X148059500Y-114134977D01*
X147997145Y-114103454D01*
X147980425Y-114084158D01*
X147850494Y-113898597D01*
X147683402Y-113731506D01*
X147683395Y-113731501D01*
X147672892Y-113724147D01*
X147606518Y-113677671D01*
X147489834Y-113595967D01*
X147489830Y-113595965D01*
X147458887Y-113581536D01*
X147275663Y-113496097D01*
X147275659Y-113496096D01*
X147275655Y-113496094D01*
X147047413Y-113434938D01*
X147047403Y-113434936D01*
X146812001Y-113414341D01*
X146811999Y-113414341D01*
X146576596Y-113434936D01*
X146576586Y-113434938D01*
X146348344Y-113496094D01*
X146348335Y-113496098D01*
X146134171Y-113595964D01*
X146134169Y-113595965D01*
X145940597Y-113731505D01*
X145773505Y-113898597D01*
X145643575Y-114084158D01*
X145588998Y-114127783D01*
X145519500Y-114134977D01*
X145457145Y-114103454D01*
X145440425Y-114084158D01*
X145310494Y-113898597D01*
X145143402Y-113731506D01*
X145143395Y-113731501D01*
X145132892Y-113724147D01*
X145066518Y-113677671D01*
X144949834Y-113595967D01*
X144949830Y-113595965D01*
X144918887Y-113581536D01*
X144735663Y-113496097D01*
X144735659Y-113496096D01*
X144735655Y-113496094D01*
X144507413Y-113434938D01*
X144507403Y-113434936D01*
X144272001Y-113414341D01*
X144271999Y-113414341D01*
X144036596Y-113434936D01*
X144036586Y-113434938D01*
X143808344Y-113496094D01*
X143808335Y-113496098D01*
X143594171Y-113595964D01*
X143594169Y-113595965D01*
X143400597Y-113731505D01*
X143233505Y-113898597D01*
X143103575Y-114084158D01*
X143048998Y-114127783D01*
X142979500Y-114134977D01*
X142917145Y-114103454D01*
X142900425Y-114084158D01*
X142770494Y-113898597D01*
X142603402Y-113731506D01*
X142603395Y-113731501D01*
X142592892Y-113724147D01*
X142526518Y-113677671D01*
X142409834Y-113595967D01*
X142409830Y-113595965D01*
X142378887Y-113581536D01*
X142195663Y-113496097D01*
X142195659Y-113496096D01*
X142195655Y-113496094D01*
X141967413Y-113434938D01*
X141967403Y-113434936D01*
X141732001Y-113414341D01*
X141731999Y-113414341D01*
X141496596Y-113434936D01*
X141496586Y-113434938D01*
X141268344Y-113496094D01*
X141268335Y-113496098D01*
X141054171Y-113595964D01*
X141054169Y-113595965D01*
X140860600Y-113731503D01*
X140738673Y-113853430D01*
X140677350Y-113886914D01*
X140607658Y-113881930D01*
X140551725Y-113840058D01*
X140534810Y-113809081D01*
X140485797Y-113677671D01*
X140485793Y-113677664D01*
X140399547Y-113562455D01*
X140399544Y-113562452D01*
X140284335Y-113476206D01*
X140284328Y-113476202D01*
X140149482Y-113425908D01*
X140149483Y-113425908D01*
X140089883Y-113419501D01*
X140089881Y-113419500D01*
X140089873Y-113419500D01*
X140089864Y-113419500D01*
X138294129Y-113419500D01*
X138294123Y-113419501D01*
X138234516Y-113425908D01*
X138099671Y-113476202D01*
X138099664Y-113476206D01*
X137984455Y-113562452D01*
X137984452Y-113562455D01*
X137898206Y-113677664D01*
X137898202Y-113677671D01*
X137847908Y-113812517D01*
X137841501Y-113872116D01*
X137841500Y-113872135D01*
X136843500Y-113872135D01*
X136843500Y-113858752D01*
X136843545Y-113855428D01*
X136844084Y-113835327D01*
X136844217Y-113832007D01*
X136845649Y-113805320D01*
X136845871Y-113802011D01*
X136847481Y-113782018D01*
X136847792Y-113778715D01*
X136858962Y-113674825D01*
X136860029Y-113667157D01*
X136867936Y-113620971D01*
X136869481Y-113613381D01*
X136883826Y-113552670D01*
X136885842Y-113545191D01*
X136899450Y-113500328D01*
X136901929Y-113492988D01*
X136975587Y-113295498D01*
X136978975Y-113287318D01*
X137001233Y-113238581D01*
X137005195Y-113230667D01*
X137039372Y-113168077D01*
X137043890Y-113160463D01*
X137072854Y-113115396D01*
X137077902Y-113108126D01*
X137206886Y-112935827D01*
X137212439Y-112928936D01*
X137247519Y-112888451D01*
X137253551Y-112881972D01*
X137303972Y-112831551D01*
X137310451Y-112825519D01*
X137350936Y-112790439D01*
X137357826Y-112784886D01*
X137432500Y-112728984D01*
X137432500Y-112578500D01*
X135930500Y-112578500D01*
X135930500Y-114080500D01*
X134932500Y-114080500D01*
X134932500Y-112578500D01*
X133430500Y-112578500D01*
X133430500Y-114080500D01*
X129932500Y-114080500D01*
X129932500Y-113962081D01*
X129909495Y-113914312D01*
X129906655Y-113907965D01*
X129890547Y-113869079D01*
X129888065Y-113862578D01*
X129809984Y-113639434D01*
X129807872Y-113632807D01*
X129796219Y-113592358D01*
X129794481Y-113585621D01*
X129782018Y-113531011D01*
X129780662Y-113524191D01*
X129773614Y-113482707D01*
X129772642Y-113475820D01*
X129746175Y-113240908D01*
X129745590Y-113233979D01*
X129743230Y-113191961D01*
X129743035Y-113185007D01*
X129743035Y-113156996D01*
X130741035Y-113156996D01*
X130741035Y-113157003D01*
X130761230Y-113336249D01*
X130761231Y-113336254D01*
X130820811Y-113506523D01*
X130884832Y-113608411D01*
X130916784Y-113659262D01*
X131044338Y-113786816D01*
X131057936Y-113795360D01*
X131188636Y-113877485D01*
X131197078Y-113882789D01*
X131287166Y-113914312D01*
X131367345Y-113942368D01*
X131367350Y-113942369D01*
X131546596Y-113962565D01*
X131546600Y-113962565D01*
X131546604Y-113962565D01*
X131725849Y-113942369D01*
X131725852Y-113942368D01*
X131725855Y-113942368D01*
X131896122Y-113882789D01*
X132048862Y-113786816D01*
X132176416Y-113659262D01*
X132272389Y-113506522D01*
X132331968Y-113336255D01*
X132334022Y-113318025D01*
X132352165Y-113157003D01*
X132352165Y-113156996D01*
X132331969Y-112977750D01*
X132331968Y-112977745D01*
X132300723Y-112888451D01*
X132272389Y-112807478D01*
X132258193Y-112784886D01*
X132193039Y-112681193D01*
X132176416Y-112654738D01*
X132048862Y-112527184D01*
X131896123Y-112431211D01*
X131725854Y-112371631D01*
X131725849Y-112371630D01*
X131546604Y-112351435D01*
X131546596Y-112351435D01*
X131367350Y-112371630D01*
X131367345Y-112371631D01*
X131197076Y-112431211D01*
X131044337Y-112527184D01*
X130916784Y-112654737D01*
X130820811Y-112807476D01*
X130761231Y-112977745D01*
X130761230Y-112977750D01*
X130741035Y-113156996D01*
X129743035Y-113156996D01*
X129743035Y-113128993D01*
X129743230Y-113122039D01*
X129745590Y-113080021D01*
X129746175Y-113073092D01*
X129772642Y-112838180D01*
X129773614Y-112831293D01*
X129780662Y-112789809D01*
X129782018Y-112782989D01*
X129794481Y-112728379D01*
X129796219Y-112721642D01*
X129807872Y-112681193D01*
X129809984Y-112674566D01*
X129843599Y-112578500D01*
X128936800Y-112578500D01*
X128936800Y-114080500D01*
X127812800Y-114080500D01*
X127812800Y-112166400D01*
X123306500Y-112166400D01*
X123239461Y-112146715D01*
X123193706Y-112093911D01*
X123182500Y-112042400D01*
X123182500Y-111194524D01*
X128430500Y-111194524D01*
X128816476Y-111580500D01*
X129932500Y-111580500D01*
X129932500Y-111467155D01*
X130930500Y-111467155D01*
X131064166Y-111420384D01*
X131070793Y-111418272D01*
X131111242Y-111406619D01*
X131117979Y-111404881D01*
X131172589Y-111392418D01*
X131179409Y-111391062D01*
X131220893Y-111384014D01*
X131227780Y-111383042D01*
X131462692Y-111356575D01*
X131469621Y-111355990D01*
X131511639Y-111353630D01*
X131518593Y-111353435D01*
X131574607Y-111353435D01*
X131581561Y-111353630D01*
X131623579Y-111355990D01*
X131630508Y-111356575D01*
X131865420Y-111383042D01*
X131872307Y-111384014D01*
X131913791Y-111391062D01*
X131920611Y-111392418D01*
X131975221Y-111404881D01*
X131981958Y-111406619D01*
X132022407Y-111418272D01*
X132029034Y-111420384D01*
X132252178Y-111498465D01*
X132258679Y-111500947D01*
X132297565Y-111517055D01*
X132303912Y-111519895D01*
X132354379Y-111544199D01*
X132360559Y-111547392D01*
X132397390Y-111567748D01*
X132403381Y-111571282D01*
X132418051Y-111580500D01*
X132432500Y-111580500D01*
X133430500Y-111580500D01*
X134932500Y-111580500D01*
X135930500Y-111580500D01*
X137432500Y-111580500D01*
X138430500Y-111580500D01*
X139932500Y-111580500D01*
X140930500Y-111580500D01*
X142432500Y-111580500D01*
X143430500Y-111580500D01*
X144395844Y-111580500D01*
X144527036Y-111406775D01*
X144542452Y-111389865D01*
X144706802Y-111240040D01*
X144725062Y-111226250D01*
X144914144Y-111109175D01*
X144932500Y-111100035D01*
X144932500Y-111033863D01*
X145930500Y-111033863D01*
X146098572Y-111098975D01*
X146119056Y-111109175D01*
X146308138Y-111226250D01*
X146326398Y-111240040D01*
X146490748Y-111389865D01*
X146506164Y-111406775D01*
X146637356Y-111580500D01*
X147432500Y-111580500D01*
X148430500Y-111580500D01*
X149402426Y-111580500D01*
X149501338Y-111459976D01*
X149505313Y-111455367D01*
X149530041Y-111428084D01*
X149534238Y-111423677D01*
X149568891Y-111389024D01*
X149573298Y-111384827D01*
X149600581Y-111360099D01*
X149605190Y-111356124D01*
X149787808Y-111206253D01*
X149792607Y-111202508D01*
X149822190Y-111180568D01*
X149827168Y-111177062D01*
X149867918Y-111149835D01*
X149873059Y-111146580D01*
X149904636Y-111127654D01*
X149909929Y-111124655D01*
X149932500Y-111112590D01*
X149932500Y-110834301D01*
X150930500Y-110834301D01*
X150957117Y-110834301D01*
X150963202Y-110834450D01*
X150999980Y-110836257D01*
X151006049Y-110836705D01*
X151241154Y-110859860D01*
X151247198Y-110860606D01*
X151283629Y-110866011D01*
X151289623Y-110867051D01*
X151337688Y-110876612D01*
X151343626Y-110877945D01*
X151379340Y-110886891D01*
X151385206Y-110888515D01*
X151611265Y-110957090D01*
X151617043Y-110958998D01*
X151651702Y-110971399D01*
X151657377Y-110973589D01*
X151702652Y-110992341D01*
X151708219Y-110994808D01*
X151741516Y-111010556D01*
X151746953Y-111013293D01*
X151955298Y-111124655D01*
X151960592Y-111127654D01*
X151992169Y-111146580D01*
X151997310Y-111149835D01*
X152038060Y-111177062D01*
X152043038Y-111180568D01*
X152072621Y-111202508D01*
X152077420Y-111206253D01*
X152260038Y-111356124D01*
X152264647Y-111360099D01*
X152291930Y-111384827D01*
X152296337Y-111389024D01*
X152330990Y-111423677D01*
X152335187Y-111428084D01*
X152359915Y-111455367D01*
X152363890Y-111459976D01*
X152432500Y-111543577D01*
X152432500Y-110159965D01*
X155930500Y-110159965D01*
X155930500Y-111580500D01*
X157432500Y-111580500D01*
X158430500Y-111580500D01*
X159932500Y-111580500D01*
X160930500Y-111580500D01*
X162432500Y-111580500D01*
X163430500Y-111580500D01*
X164932500Y-111580500D01*
X165930500Y-111580500D01*
X167372924Y-111580500D01*
X167432500Y-111520924D01*
X167432500Y-111067800D01*
X168430500Y-111067800D01*
X169932500Y-111067800D01*
X170930500Y-111067800D01*
X171983500Y-111067800D01*
X171983500Y-110078500D01*
X170930500Y-110078500D01*
X170930500Y-111067800D01*
X169932500Y-111067800D01*
X169932500Y-110078500D01*
X168430500Y-110078500D01*
X168430500Y-111067800D01*
X167432500Y-111067800D01*
X167432500Y-110078500D01*
X165930500Y-110078500D01*
X165930500Y-111580500D01*
X164932500Y-111580500D01*
X164932500Y-110078500D01*
X163430500Y-110078500D01*
X163430500Y-111580500D01*
X162432500Y-111580500D01*
X162432500Y-110078500D01*
X160930500Y-110078500D01*
X160930500Y-111580500D01*
X159932500Y-111580500D01*
X159932500Y-110078500D01*
X158430500Y-110078500D01*
X158430500Y-111580500D01*
X157432500Y-111580500D01*
X157432500Y-110078500D01*
X156429119Y-110078500D01*
X156387634Y-110093016D01*
X156381007Y-110095128D01*
X156340558Y-110106781D01*
X156333821Y-110108519D01*
X156279211Y-110120982D01*
X156272391Y-110122338D01*
X156230907Y-110129386D01*
X156224020Y-110130358D01*
X155989108Y-110156825D01*
X155982179Y-110157410D01*
X155940161Y-110159770D01*
X155933207Y-110159965D01*
X155930500Y-110159965D01*
X152432500Y-110159965D01*
X152432500Y-110078500D01*
X150930500Y-110078500D01*
X150930500Y-110834301D01*
X149932500Y-110834301D01*
X149932500Y-110078500D01*
X148430500Y-110078500D01*
X148430500Y-111580500D01*
X147432500Y-111580500D01*
X147432500Y-110078500D01*
X145930500Y-110078500D01*
X145930500Y-111033863D01*
X144932500Y-111033863D01*
X144932500Y-110078500D01*
X143430500Y-110078500D01*
X143430500Y-111580500D01*
X142432500Y-111580500D01*
X142432500Y-110078500D01*
X140930500Y-110078500D01*
X140930500Y-111580500D01*
X139932500Y-111580500D01*
X139932500Y-110078500D01*
X138430500Y-110078500D01*
X138430500Y-111580500D01*
X137432500Y-111580500D01*
X137432500Y-110078500D01*
X135930500Y-110078500D01*
X135930500Y-111580500D01*
X134932500Y-111580500D01*
X134932500Y-110078500D01*
X133430500Y-110078500D01*
X133430500Y-111580500D01*
X132432500Y-111580500D01*
X132432500Y-110078500D01*
X130930500Y-110078500D01*
X130930500Y-111467155D01*
X129932500Y-111467155D01*
X129932500Y-110078500D01*
X128430500Y-110078500D01*
X128430500Y-111194524D01*
X123182500Y-111194524D01*
X123182500Y-111042400D01*
X124180500Y-111042400D01*
X124932500Y-111042400D01*
X125930500Y-111042400D01*
X127432500Y-111042400D01*
X127432500Y-110078500D01*
X125930500Y-110078500D01*
X125930500Y-111042400D01*
X124932500Y-111042400D01*
X124932500Y-110078500D01*
X124180500Y-110078500D01*
X124180500Y-111042400D01*
X123182500Y-111042400D01*
X123182500Y-109080500D01*
X124180500Y-109080500D01*
X124932500Y-109080500D01*
X125930500Y-109080500D01*
X127432500Y-109080500D01*
X128430500Y-109080500D01*
X129932500Y-109080500D01*
X130930500Y-109080500D01*
X132432500Y-109080500D01*
X133430500Y-109080500D01*
X134932500Y-109080500D01*
X135930500Y-109080500D01*
X137432500Y-109080500D01*
X137432500Y-108603347D01*
X137396308Y-108607425D01*
X137389379Y-108608010D01*
X137347361Y-108610370D01*
X137340407Y-108610565D01*
X137284393Y-108610565D01*
X137277439Y-108610370D01*
X137235421Y-108608010D01*
X137228492Y-108607425D01*
X136993580Y-108580958D01*
X136986693Y-108579986D01*
X136945209Y-108572938D01*
X136938389Y-108571582D01*
X136883779Y-108559119D01*
X136877042Y-108557381D01*
X136836593Y-108545728D01*
X136829966Y-108543616D01*
X136606822Y-108465535D01*
X136600321Y-108463053D01*
X136561435Y-108446945D01*
X136555088Y-108444105D01*
X136504621Y-108419801D01*
X136498441Y-108416608D01*
X136461610Y-108396252D01*
X136455620Y-108392719D01*
X136255452Y-108266944D01*
X136249667Y-108263078D01*
X136215339Y-108238720D01*
X136209782Y-108234538D01*
X136194300Y-108222191D01*
X138430500Y-108222191D01*
X138430500Y-109080500D01*
X139932500Y-109080500D01*
X139932500Y-108682546D01*
X140930500Y-108682546D01*
X140930500Y-109080500D01*
X142432500Y-109080500D01*
X143430500Y-109080500D01*
X144932500Y-109080500D01*
X145930500Y-109080500D01*
X147432500Y-109080500D01*
X150930500Y-109080500D01*
X152386745Y-109080500D01*
X152377575Y-108999108D01*
X152376990Y-108992179D01*
X152374630Y-108950161D01*
X152374435Y-108943207D01*
X152374435Y-108915196D01*
X153372435Y-108915196D01*
X153372435Y-108915203D01*
X153392630Y-109094449D01*
X153392631Y-109094454D01*
X153452211Y-109264723D01*
X153548184Y-109417462D01*
X153675738Y-109545016D01*
X153828478Y-109640989D01*
X153998745Y-109700568D01*
X153998750Y-109700569D01*
X154177996Y-109720765D01*
X154178000Y-109720765D01*
X154178004Y-109720765D01*
X154357249Y-109700569D01*
X154357252Y-109700568D01*
X154357255Y-109700568D01*
X154527522Y-109640989D01*
X154680262Y-109545016D01*
X154807816Y-109417462D01*
X154903789Y-109264722D01*
X154963368Y-109094455D01*
X154964750Y-109082188D01*
X154983565Y-108915203D01*
X154983565Y-108915197D01*
X154972869Y-108820269D01*
X154984923Y-108751447D01*
X155032272Y-108700067D01*
X155099883Y-108682443D01*
X155166288Y-108704169D01*
X155201083Y-108740413D01*
X155275384Y-108858662D01*
X155402938Y-108986216D01*
X155555678Y-109082189D01*
X155725945Y-109141768D01*
X155725950Y-109141769D01*
X155905196Y-109161965D01*
X155905200Y-109161965D01*
X155905204Y-109161965D01*
X156084449Y-109141769D01*
X156084452Y-109141768D01*
X156084455Y-109141768D01*
X156254722Y-109082189D01*
X156257410Y-109080500D01*
X158430500Y-109080500D01*
X159932500Y-109080500D01*
X160930500Y-109080500D01*
X162432500Y-109080500D01*
X163430500Y-109080500D01*
X164932500Y-109080500D01*
X165930500Y-109080500D01*
X167432500Y-109080500D01*
X168430500Y-109080500D01*
X169932500Y-109080500D01*
X170930500Y-109080500D01*
X171983500Y-109080500D01*
X171983500Y-107578500D01*
X170930500Y-107578500D01*
X170930500Y-109080500D01*
X169932500Y-109080500D01*
X169932500Y-107578500D01*
X168430500Y-107578500D01*
X168430500Y-109080500D01*
X167432500Y-109080500D01*
X167432500Y-107578500D01*
X165930500Y-107578500D01*
X165930500Y-109080500D01*
X164932500Y-109080500D01*
X164932500Y-107578500D01*
X163430500Y-107578500D01*
X163430500Y-109080500D01*
X162432500Y-109080500D01*
X162432500Y-107578500D01*
X160930500Y-107578500D01*
X160930500Y-109080500D01*
X159932500Y-109080500D01*
X159932500Y-107578500D01*
X158430500Y-107578500D01*
X158430500Y-109080500D01*
X156257410Y-109080500D01*
X156407462Y-108986216D01*
X156535016Y-108858662D01*
X156630989Y-108705922D01*
X156690568Y-108535655D01*
X156693495Y-108509679D01*
X156710765Y-108356403D01*
X156710765Y-108356396D01*
X156690569Y-108177150D01*
X156690568Y-108177145D01*
X156680062Y-108147122D01*
X156630989Y-108006878D01*
X156630224Y-108005661D01*
X156566385Y-107904061D01*
X156535016Y-107854138D01*
X156407462Y-107726584D01*
X156355554Y-107693968D01*
X156254723Y-107630611D01*
X156084454Y-107571031D01*
X156084449Y-107571030D01*
X155905204Y-107550835D01*
X155905196Y-107550835D01*
X155725950Y-107571030D01*
X155725945Y-107571031D01*
X155555676Y-107630611D01*
X155402937Y-107726584D01*
X155275384Y-107854137D01*
X155179411Y-108006876D01*
X155119831Y-108177145D01*
X155119830Y-108177150D01*
X155099635Y-108356396D01*
X155099635Y-108356404D01*
X155110330Y-108451331D01*
X155098275Y-108520153D01*
X155050926Y-108571532D01*
X154983315Y-108589156D01*
X154916910Y-108567429D01*
X154882116Y-108531186D01*
X154875968Y-108521401D01*
X154807816Y-108412938D01*
X154680262Y-108285384D01*
X154605997Y-108238720D01*
X154527523Y-108189411D01*
X154357254Y-108129831D01*
X154357249Y-108129830D01*
X154178004Y-108109635D01*
X154177996Y-108109635D01*
X153998750Y-108129830D01*
X153998745Y-108129831D01*
X153828476Y-108189411D01*
X153675737Y-108285384D01*
X153548184Y-108412937D01*
X153452211Y-108565676D01*
X153392631Y-108735945D01*
X153392630Y-108735950D01*
X153372435Y-108915196D01*
X152374435Y-108915196D01*
X152374435Y-108887193D01*
X152374630Y-108880239D01*
X152376990Y-108838221D01*
X152377575Y-108831292D01*
X152404042Y-108596380D01*
X152405014Y-108589493D01*
X152412062Y-108548009D01*
X152413418Y-108541189D01*
X152425881Y-108486579D01*
X152427619Y-108479842D01*
X152432500Y-108462899D01*
X152432500Y-107578500D01*
X150930500Y-107578500D01*
X150930500Y-109080500D01*
X147432500Y-109080500D01*
X147432500Y-109056562D01*
X147361691Y-108985753D01*
X147356913Y-108980700D01*
X147328873Y-108949324D01*
X147324386Y-108944010D01*
X147289462Y-108900218D01*
X147285280Y-108894661D01*
X147260922Y-108860333D01*
X147257056Y-108854548D01*
X147131281Y-108654380D01*
X147127748Y-108648390D01*
X147107392Y-108611559D01*
X147104199Y-108605379D01*
X147079895Y-108554912D01*
X147077055Y-108548565D01*
X147060947Y-108509679D01*
X147058465Y-108503178D01*
X146980384Y-108280034D01*
X146978272Y-108273407D01*
X146966619Y-108232958D01*
X146964881Y-108226221D01*
X146952418Y-108171611D01*
X146951062Y-108164791D01*
X146944014Y-108123307D01*
X146943042Y-108116420D01*
X146916575Y-107881508D01*
X146915990Y-107874579D01*
X146913630Y-107832561D01*
X146913435Y-107825607D01*
X146913435Y-107797596D01*
X147911435Y-107797596D01*
X147911435Y-107797603D01*
X147931630Y-107976849D01*
X147931631Y-107976854D01*
X147991211Y-108147123D01*
X148024194Y-108199614D01*
X148087184Y-108299862D01*
X148214738Y-108427416D01*
X148271209Y-108462899D01*
X148345658Y-108509679D01*
X148367478Y-108523389D01*
X148488333Y-108565678D01*
X148537745Y-108582968D01*
X148537750Y-108582969D01*
X148716996Y-108603165D01*
X148717000Y-108603165D01*
X148717004Y-108603165D01*
X148896249Y-108582969D01*
X148896252Y-108582968D01*
X148896255Y-108582968D01*
X149066522Y-108523389D01*
X149219262Y-108427416D01*
X149346816Y-108299862D01*
X149442789Y-108147122D01*
X149502368Y-107976855D01*
X149514438Y-107869733D01*
X149522565Y-107797603D01*
X149522565Y-107797596D01*
X149502369Y-107618350D01*
X149502368Y-107618345D01*
X149478745Y-107550835D01*
X149442789Y-107448078D01*
X149346816Y-107295338D01*
X149219262Y-107167784D01*
X149118650Y-107104565D01*
X149066523Y-107071811D01*
X148896254Y-107012231D01*
X148896249Y-107012230D01*
X148717004Y-106992035D01*
X148716996Y-106992035D01*
X148537750Y-107012230D01*
X148537745Y-107012231D01*
X148367476Y-107071811D01*
X148214737Y-107167784D01*
X148087184Y-107295337D01*
X147991211Y-107448076D01*
X147931631Y-107618345D01*
X147931630Y-107618350D01*
X147911435Y-107797596D01*
X146913435Y-107797596D01*
X146913435Y-107769593D01*
X146913630Y-107762639D01*
X146915990Y-107720621D01*
X146916575Y-107713692D01*
X146931807Y-107578500D01*
X145930500Y-107578500D01*
X145930500Y-109080500D01*
X144932500Y-109080500D01*
X144932500Y-107578500D01*
X143430500Y-107578500D01*
X143430500Y-109080500D01*
X142432500Y-109080500D01*
X142432500Y-108268687D01*
X142401124Y-108296727D01*
X142395810Y-108301214D01*
X142352018Y-108336138D01*
X142346461Y-108340320D01*
X142312133Y-108364678D01*
X142306348Y-108368544D01*
X142106180Y-108494319D01*
X142100190Y-108497852D01*
X142063359Y-108518208D01*
X142057179Y-108521401D01*
X142006712Y-108545705D01*
X142000365Y-108548545D01*
X141961479Y-108564653D01*
X141954978Y-108567135D01*
X141731834Y-108645216D01*
X141725207Y-108647328D01*
X141684758Y-108658981D01*
X141678021Y-108660719D01*
X141623411Y-108673182D01*
X141616591Y-108674538D01*
X141575107Y-108681586D01*
X141568220Y-108682558D01*
X141333308Y-108709025D01*
X141326379Y-108709610D01*
X141284361Y-108711970D01*
X141277407Y-108712165D01*
X141221393Y-108712165D01*
X141214439Y-108711970D01*
X141172421Y-108709610D01*
X141165492Y-108709025D01*
X140930580Y-108682558D01*
X140930500Y-108682546D01*
X139932500Y-108682546D01*
X139932500Y-108135162D01*
X139894091Y-108096753D01*
X139889313Y-108091700D01*
X139861273Y-108060324D01*
X139856786Y-108055010D01*
X139821862Y-108011218D01*
X139817680Y-108005661D01*
X139793322Y-107971333D01*
X139789456Y-107965548D01*
X139663681Y-107765380D01*
X139660148Y-107759390D01*
X139639792Y-107722559D01*
X139636599Y-107716379D01*
X139612295Y-107665912D01*
X139609455Y-107659565D01*
X139593347Y-107620679D01*
X139590865Y-107614178D01*
X139578381Y-107578500D01*
X138942672Y-107578500D01*
X138925201Y-107614779D01*
X138922008Y-107620959D01*
X138901652Y-107657790D01*
X138898119Y-107663780D01*
X138772344Y-107863948D01*
X138768478Y-107869733D01*
X138744120Y-107904061D01*
X138739938Y-107909618D01*
X138705014Y-107953410D01*
X138700527Y-107958724D01*
X138672487Y-107990100D01*
X138667709Y-107995153D01*
X138500553Y-108162309D01*
X138495500Y-108167087D01*
X138464124Y-108195127D01*
X138458810Y-108199614D01*
X138430500Y-108222191D01*
X136194300Y-108222191D01*
X136165990Y-108199614D01*
X136160676Y-108195127D01*
X136129300Y-108167087D01*
X136124247Y-108162309D01*
X135957091Y-107995153D01*
X135952313Y-107990100D01*
X135930500Y-107965691D01*
X135930500Y-109080500D01*
X134932500Y-109080500D01*
X134932500Y-107578500D01*
X133430500Y-107578500D01*
X133430500Y-109080500D01*
X132432500Y-109080500D01*
X132432500Y-107578500D01*
X130930500Y-107578500D01*
X130930500Y-109080500D01*
X129932500Y-109080500D01*
X129932500Y-107578500D01*
X128430500Y-107578500D01*
X128430500Y-109080500D01*
X127432500Y-109080500D01*
X127432500Y-107578500D01*
X125930500Y-107578500D01*
X125930500Y-109080500D01*
X124932500Y-109080500D01*
X124932500Y-107578500D01*
X124180500Y-107578500D01*
X124180500Y-109080500D01*
X123182500Y-109080500D01*
X123182500Y-106806996D01*
X136506835Y-106806996D01*
X136506835Y-106807003D01*
X136527030Y-106986249D01*
X136527031Y-106986254D01*
X136586611Y-107156523D01*
X136650451Y-107258123D01*
X136682584Y-107309262D01*
X136810138Y-107436816D01*
X136962878Y-107532789D01*
X137093513Y-107578500D01*
X137133145Y-107592368D01*
X137133150Y-107592369D01*
X137312396Y-107612565D01*
X137312400Y-107612565D01*
X137312404Y-107612565D01*
X137491649Y-107592369D01*
X137491652Y-107592368D01*
X137491655Y-107592368D01*
X137661922Y-107532789D01*
X137814662Y-107436816D01*
X137942216Y-107309262D01*
X138038189Y-107156522D01*
X138097768Y-106986255D01*
X138104240Y-106928815D01*
X138106518Y-106908596D01*
X140443835Y-106908596D01*
X140443835Y-106908603D01*
X140464030Y-107087849D01*
X140464031Y-107087854D01*
X140523611Y-107258123D01*
X140546995Y-107295338D01*
X140619584Y-107410862D01*
X140747138Y-107538416D01*
X140799046Y-107571032D01*
X140878058Y-107620679D01*
X140899878Y-107634389D01*
X140971827Y-107659565D01*
X141070145Y-107693968D01*
X141070150Y-107693969D01*
X141249396Y-107714165D01*
X141249400Y-107714165D01*
X141249404Y-107714165D01*
X141428649Y-107693969D01*
X141428652Y-107693968D01*
X141428655Y-107693968D01*
X141598922Y-107634389D01*
X141751662Y-107538416D01*
X141879216Y-107410862D01*
X141975189Y-107258122D01*
X142034768Y-107087855D01*
X142043289Y-107012230D01*
X142054965Y-106908603D01*
X142054965Y-106908596D01*
X142034769Y-106729350D01*
X142034768Y-106729345D01*
X141999218Y-106627750D01*
X141982685Y-106580500D01*
X143430500Y-106580500D01*
X144932500Y-106580500D01*
X150930500Y-106580500D01*
X152432500Y-106580500D01*
X153430500Y-106580500D01*
X153695237Y-106580500D01*
X153672975Y-106382908D01*
X153672390Y-106375979D01*
X153670030Y-106333961D01*
X153669835Y-106327007D01*
X153669835Y-106298996D01*
X154667835Y-106298996D01*
X154667835Y-106299003D01*
X154688030Y-106478249D01*
X154688031Y-106478254D01*
X154747611Y-106648523D01*
X154843584Y-106801262D01*
X154971138Y-106928816D01*
X155061480Y-106985582D01*
X155103893Y-107012232D01*
X155123878Y-107024789D01*
X155258259Y-107071811D01*
X155294145Y-107084368D01*
X155294150Y-107084369D01*
X155473396Y-107104565D01*
X155473400Y-107104565D01*
X155473404Y-107104565D01*
X155652649Y-107084369D01*
X155652652Y-107084368D01*
X155652655Y-107084368D01*
X155822922Y-107024789D01*
X155975662Y-106928816D01*
X156103216Y-106801262D01*
X156199189Y-106648522D01*
X156222991Y-106580500D01*
X158430500Y-106580500D01*
X159932500Y-106580500D01*
X160930500Y-106580500D01*
X162432500Y-106580500D01*
X163430500Y-106580500D01*
X164932500Y-106580500D01*
X165930500Y-106580500D01*
X167121679Y-106580500D01*
X166940322Y-106453512D01*
X166935958Y-106450311D01*
X166909978Y-106430375D01*
X166905756Y-106426987D01*
X166872389Y-106398986D01*
X166868326Y-106395423D01*
X166844208Y-106373323D01*
X166840300Y-106369581D01*
X166642419Y-106171700D01*
X166638677Y-106167792D01*
X166616577Y-106143674D01*
X166613014Y-106139611D01*
X166585013Y-106106244D01*
X166581625Y-106102022D01*
X166561689Y-106076042D01*
X166558488Y-106071678D01*
X166397956Y-105842415D01*
X166394950Y-105837916D01*
X166377358Y-105810302D01*
X166374549Y-105805673D01*
X166352771Y-105767949D01*
X166350171Y-105763209D01*
X166335064Y-105734188D01*
X166332672Y-105729337D01*
X166214402Y-105475708D01*
X166212223Y-105470756D01*
X166199705Y-105440535D01*
X166197747Y-105435500D01*
X166182846Y-105394568D01*
X166181105Y-105389440D01*
X166171256Y-105358205D01*
X166169741Y-105353008D01*
X166097305Y-105082666D01*
X166096285Y-105078500D01*
X165930500Y-105078500D01*
X165930500Y-106580500D01*
X164932500Y-106580500D01*
X164932500Y-105078500D01*
X163430500Y-105078500D01*
X163430500Y-106580500D01*
X162432500Y-106580500D01*
X162432500Y-105078500D01*
X160930500Y-105078500D01*
X160930500Y-106580500D01*
X159932500Y-106580500D01*
X159932500Y-105078500D01*
X158430500Y-105078500D01*
X158430500Y-106580500D01*
X156222991Y-106580500D01*
X156258768Y-106478255D01*
X156261109Y-106457478D01*
X156278965Y-106299003D01*
X156278965Y-106298996D01*
X156258769Y-106119750D01*
X156258768Y-106119745D01*
X156199189Y-105949478D01*
X156196713Y-105945538D01*
X156133541Y-105845000D01*
X156103216Y-105796738D01*
X155975662Y-105669184D01*
X155950205Y-105653188D01*
X155822923Y-105573211D01*
X155652654Y-105513631D01*
X155652649Y-105513630D01*
X155473404Y-105493435D01*
X155473396Y-105493435D01*
X155294150Y-105513630D01*
X155294145Y-105513631D01*
X155123876Y-105573211D01*
X154971137Y-105669184D01*
X154843584Y-105796737D01*
X154747611Y-105949476D01*
X154688031Y-106119745D01*
X154688030Y-106119750D01*
X154667835Y-106298996D01*
X153669835Y-106298996D01*
X153669835Y-106270993D01*
X153670030Y-106264039D01*
X153672390Y-106222021D01*
X153672975Y-106215092D01*
X153699442Y-105980180D01*
X153700414Y-105973293D01*
X153707462Y-105931809D01*
X153708818Y-105924989D01*
X153721281Y-105870379D01*
X153723019Y-105863642D01*
X153734672Y-105823193D01*
X153736784Y-105816566D01*
X153814865Y-105593422D01*
X153817347Y-105586921D01*
X153833455Y-105548035D01*
X153836295Y-105541688D01*
X153860599Y-105491221D01*
X153863792Y-105485041D01*
X153884148Y-105448210D01*
X153887681Y-105442220D01*
X153941732Y-105356197D01*
X153841453Y-105234006D01*
X153837708Y-105229207D01*
X153815768Y-105199624D01*
X153812262Y-105194646D01*
X153785035Y-105153896D01*
X153781780Y-105148755D01*
X153762854Y-105117178D01*
X153759854Y-105111884D01*
X153742010Y-105078500D01*
X153430500Y-105078500D01*
X153430500Y-106580500D01*
X152432500Y-106580500D01*
X152432500Y-105078500D01*
X150930500Y-105078500D01*
X150930500Y-106580500D01*
X144932500Y-106580500D01*
X144932500Y-105853279D01*
X148430500Y-105853279D01*
X148430500Y-106020000D01*
X148633092Y-105997175D01*
X148640021Y-105996590D01*
X148682039Y-105994230D01*
X148688993Y-105994035D01*
X148745007Y-105994035D01*
X148751961Y-105994230D01*
X148793979Y-105996590D01*
X148800908Y-105997175D01*
X149035820Y-106023642D01*
X149042707Y-106024614D01*
X149084191Y-106031662D01*
X149091011Y-106033018D01*
X149145621Y-106045481D01*
X149152358Y-106047219D01*
X149192807Y-106058872D01*
X149199434Y-106060984D01*
X149422578Y-106139065D01*
X149429079Y-106141547D01*
X149467965Y-106157655D01*
X149474312Y-106160495D01*
X149524779Y-106184799D01*
X149530959Y-106187992D01*
X149567790Y-106208348D01*
X149573780Y-106211881D01*
X149773948Y-106337656D01*
X149779733Y-106341522D01*
X149814061Y-106365880D01*
X149819618Y-106370062D01*
X149863410Y-106404986D01*
X149868724Y-106409473D01*
X149900100Y-106437513D01*
X149905153Y-106442291D01*
X149932500Y-106469638D01*
X149932500Y-105078500D01*
X149893058Y-105078500D01*
X149827232Y-105210697D01*
X149815186Y-105230152D01*
X149681164Y-105407625D01*
X149665748Y-105424535D01*
X149501398Y-105574360D01*
X149483138Y-105588150D01*
X149294056Y-105705225D01*
X149273572Y-105715425D01*
X149066196Y-105795763D01*
X149044187Y-105802025D01*
X148825581Y-105842889D01*
X148802796Y-105845000D01*
X148580404Y-105845000D01*
X148557619Y-105842889D01*
X148449704Y-105822716D01*
X148430500Y-105853279D01*
X144932500Y-105853279D01*
X144932500Y-105078500D01*
X143430500Y-105078500D01*
X143430500Y-106580500D01*
X141982685Y-106580500D01*
X141975189Y-106559078D01*
X141879216Y-106406338D01*
X141751662Y-106278784D01*
X141734425Y-106267953D01*
X141598923Y-106182811D01*
X141428654Y-106123231D01*
X141428649Y-106123230D01*
X141249404Y-106103035D01*
X141249396Y-106103035D01*
X141070150Y-106123230D01*
X141070145Y-106123231D01*
X140899876Y-106182811D01*
X140747137Y-106278784D01*
X140619584Y-106406337D01*
X140523611Y-106559076D01*
X140464031Y-106729345D01*
X140464030Y-106729350D01*
X140443835Y-106908596D01*
X138106518Y-106908596D01*
X138117965Y-106807003D01*
X138117965Y-106806996D01*
X138097769Y-106627750D01*
X138097768Y-106627745D01*
X138065171Y-106534589D01*
X138038189Y-106457478D01*
X138028646Y-106442291D01*
X137998982Y-106395080D01*
X137942216Y-106304738D01*
X137814662Y-106177184D01*
X137773449Y-106151288D01*
X137759185Y-106142325D01*
X138985247Y-106142325D01*
X139049016Y-106324566D01*
X139051128Y-106331193D01*
X139062781Y-106371642D01*
X139064519Y-106378379D01*
X139076982Y-106432989D01*
X139078338Y-106439809D01*
X139085386Y-106481293D01*
X139086358Y-106488180D01*
X139096759Y-106580500D01*
X139476821Y-106580500D01*
X139483462Y-106541409D01*
X139484818Y-106534589D01*
X139497281Y-106479979D01*
X139499019Y-106473242D01*
X139510672Y-106432793D01*
X139512784Y-106426166D01*
X139590865Y-106203022D01*
X139593347Y-106196521D01*
X139609455Y-106157635D01*
X139612295Y-106151288D01*
X139636599Y-106100821D01*
X139639792Y-106094641D01*
X139660148Y-106057810D01*
X139663681Y-106051820D01*
X139789456Y-105851652D01*
X139793322Y-105845867D01*
X139817680Y-105811539D01*
X139821862Y-105805982D01*
X139856786Y-105762190D01*
X139861273Y-105756876D01*
X139889313Y-105725500D01*
X139894091Y-105720447D01*
X139932500Y-105682038D01*
X139932500Y-105078500D01*
X139910700Y-105078500D01*
X139859935Y-105223578D01*
X139857453Y-105230079D01*
X139841345Y-105268965D01*
X139838505Y-105275312D01*
X139814201Y-105325779D01*
X139811008Y-105331959D01*
X139790652Y-105368790D01*
X139787119Y-105374780D01*
X139661344Y-105574948D01*
X139657478Y-105580733D01*
X139633120Y-105615061D01*
X139628938Y-105620618D01*
X139594014Y-105664410D01*
X139589527Y-105669724D01*
X139561487Y-105701100D01*
X139556709Y-105706153D01*
X139389553Y-105873309D01*
X139384500Y-105878087D01*
X139353124Y-105906127D01*
X139347810Y-105910614D01*
X139304018Y-105945538D01*
X139298461Y-105949720D01*
X139264133Y-105974078D01*
X139258348Y-105977944D01*
X139058180Y-106103719D01*
X139052190Y-106107252D01*
X139015359Y-106127608D01*
X139009179Y-106130801D01*
X138985247Y-106142325D01*
X137759185Y-106142325D01*
X137661923Y-106081211D01*
X137491654Y-106021631D01*
X137491649Y-106021630D01*
X137312404Y-106001435D01*
X137312396Y-106001435D01*
X137133150Y-106021630D01*
X137133145Y-106021631D01*
X136962876Y-106081211D01*
X136810137Y-106177184D01*
X136682584Y-106304737D01*
X136586611Y-106457476D01*
X136527031Y-106627745D01*
X136527030Y-106627750D01*
X136506835Y-106806996D01*
X123182500Y-106806996D01*
X123182500Y-106580500D01*
X124180500Y-106580500D01*
X124932500Y-106580500D01*
X125930500Y-106580500D01*
X127432500Y-106580500D01*
X128430500Y-106580500D01*
X129932500Y-106580500D01*
X130930500Y-106580500D01*
X132432500Y-106580500D01*
X133430500Y-106580500D01*
X134932500Y-106580500D01*
X134932500Y-106520432D01*
X134919939Y-106511520D01*
X134914382Y-106507338D01*
X134870590Y-106472414D01*
X134865276Y-106467927D01*
X134833900Y-106439887D01*
X134828847Y-106435109D01*
X134661691Y-106267953D01*
X134656913Y-106262900D01*
X134628873Y-106231524D01*
X134624386Y-106226210D01*
X134589462Y-106182418D01*
X134585280Y-106176861D01*
X134560922Y-106142533D01*
X134557056Y-106136748D01*
X134431281Y-105936580D01*
X134427748Y-105930590D01*
X134407392Y-105893759D01*
X134404199Y-105887579D01*
X134379895Y-105837112D01*
X134377055Y-105830765D01*
X134360947Y-105791879D01*
X134358465Y-105785378D01*
X134280384Y-105562234D01*
X134278272Y-105555607D01*
X134266619Y-105515158D01*
X134264881Y-105508421D01*
X134252418Y-105453811D01*
X134251062Y-105446991D01*
X134244014Y-105405507D01*
X134243042Y-105398620D01*
X134216575Y-105163708D01*
X134215990Y-105156779D01*
X134213630Y-105114761D01*
X134213435Y-105107807D01*
X134213435Y-105079796D01*
X135211435Y-105079796D01*
X135211435Y-105079803D01*
X135231630Y-105259049D01*
X135231631Y-105259054D01*
X135291211Y-105429323D01*
X135382714Y-105574948D01*
X135387184Y-105582062D01*
X135514738Y-105709616D01*
X135546124Y-105729337D01*
X135653391Y-105796738D01*
X135667478Y-105805589D01*
X135803768Y-105853279D01*
X135837745Y-105865168D01*
X135837750Y-105865169D01*
X136016996Y-105885365D01*
X136017000Y-105885365D01*
X136017004Y-105885365D01*
X136196249Y-105865169D01*
X136196252Y-105865168D01*
X136196255Y-105865168D01*
X136366522Y-105805589D01*
X136519262Y-105709616D01*
X136646816Y-105582062D01*
X136742789Y-105429322D01*
X136802368Y-105259055D01*
X136804088Y-105243788D01*
X136822565Y-105079803D01*
X136822565Y-105079796D01*
X136802369Y-104900550D01*
X136802368Y-104900545D01*
X136754784Y-104764557D01*
X136742789Y-104730278D01*
X136722035Y-104697249D01*
X136667213Y-104610000D01*
X136646816Y-104577538D01*
X136587274Y-104517996D01*
X137395835Y-104517996D01*
X137395835Y-104518003D01*
X137416030Y-104697249D01*
X137416031Y-104697254D01*
X137475611Y-104867523D01*
X137541004Y-104971595D01*
X137571584Y-105020262D01*
X137699138Y-105147816D01*
X137781590Y-105199624D01*
X137830058Y-105230079D01*
X137851878Y-105243789D01*
X137999388Y-105295405D01*
X138022145Y-105303368D01*
X138022150Y-105303369D01*
X138201396Y-105323565D01*
X138201400Y-105323565D01*
X138201404Y-105323565D01*
X138380649Y-105303369D01*
X138380652Y-105303368D01*
X138380655Y-105303368D01*
X138550922Y-105243789D01*
X138703662Y-105147816D01*
X138831216Y-105020262D01*
X138889568Y-104927396D01*
X146082635Y-104927396D01*
X146082635Y-104927403D01*
X146102830Y-105106649D01*
X146102831Y-105106654D01*
X146162411Y-105276923D01*
X146223899Y-105374780D01*
X146258384Y-105429662D01*
X146385938Y-105557216D01*
X146476280Y-105613982D01*
X146531207Y-105648495D01*
X146538678Y-105653189D01*
X146699934Y-105709615D01*
X146708945Y-105712768D01*
X146708950Y-105712769D01*
X146888196Y-105732965D01*
X146888200Y-105732965D01*
X146888204Y-105732965D01*
X147067449Y-105712769D01*
X147067452Y-105712768D01*
X147067455Y-105712768D01*
X147237722Y-105653189D01*
X147390462Y-105557216D01*
X147518016Y-105429662D01*
X147613989Y-105276922D01*
X147673568Y-105106655D01*
X147676271Y-105082666D01*
X147693765Y-104927403D01*
X147693765Y-104927396D01*
X147673569Y-104748150D01*
X147673568Y-104748145D01*
X147625229Y-104610000D01*
X147613989Y-104577878D01*
X147613775Y-104577538D01*
X147536592Y-104454702D01*
X147518016Y-104425138D01*
X147390462Y-104297584D01*
X147237722Y-104201611D01*
X147237721Y-104201610D01*
X147237720Y-104201610D01*
X147227357Y-104197983D01*
X147170583Y-104157258D01*
X147144839Y-104092304D01*
X147145448Y-104089200D01*
X154467501Y-104089200D01*
X154485852Y-104275531D01*
X154485853Y-104275533D01*
X154540204Y-104454702D01*
X154628462Y-104619823D01*
X154628464Y-104619826D01*
X154747242Y-104764557D01*
X154891973Y-104883335D01*
X154891976Y-104883337D01*
X154974419Y-104927403D01*
X155057099Y-104971596D01*
X155236266Y-105025946D01*
X155236268Y-105025947D01*
X155252974Y-105027592D01*
X155422600Y-105044299D01*
X155608931Y-105025947D01*
X155788101Y-104971596D01*
X155953225Y-104883336D01*
X156097957Y-104764557D01*
X156216736Y-104619825D01*
X156304996Y-104454701D01*
X156359347Y-104275531D01*
X156377699Y-104089200D01*
X156359347Y-103902869D01*
X156304996Y-103723699D01*
X156303116Y-103720182D01*
X156216737Y-103558576D01*
X156216735Y-103558573D01*
X156097957Y-103413842D01*
X155953226Y-103295064D01*
X155953223Y-103295062D01*
X155788102Y-103206804D01*
X155608933Y-103152453D01*
X155608931Y-103152452D01*
X155422600Y-103134101D01*
X155236268Y-103152452D01*
X155236266Y-103152453D01*
X155057097Y-103206804D01*
X154891976Y-103295062D01*
X154891973Y-103295064D01*
X154747242Y-103413842D01*
X154628464Y-103558573D01*
X154628462Y-103558576D01*
X154540204Y-103723697D01*
X154485853Y-103902866D01*
X154485852Y-103902868D01*
X154467501Y-104089200D01*
X147145448Y-104089200D01*
X147158298Y-104023743D01*
X147206687Y-103973343D01*
X147227365Y-103963901D01*
X147263119Y-103951390D01*
X147263118Y-103951390D01*
X147263122Y-103951389D01*
X147415862Y-103855416D01*
X147543416Y-103727862D01*
X147595805Y-103644485D01*
X150930500Y-103644485D01*
X150930500Y-104080500D01*
X152432500Y-104080500D01*
X153430500Y-104080500D01*
X153469501Y-104080500D01*
X153469501Y-104064697D01*
X153469650Y-104058612D01*
X153471457Y-104021834D01*
X153471905Y-104015765D01*
X153495060Y-103780660D01*
X153495806Y-103774616D01*
X153501211Y-103738185D01*
X153502251Y-103732191D01*
X153511812Y-103684126D01*
X153513145Y-103678188D01*
X153522091Y-103642474D01*
X153523715Y-103636608D01*
X153592290Y-103410549D01*
X153594198Y-103404771D01*
X153606599Y-103370112D01*
X153608789Y-103364437D01*
X153627541Y-103319162D01*
X153630008Y-103313595D01*
X153645756Y-103280298D01*
X153648493Y-103274861D01*
X153759855Y-103066516D01*
X153762854Y-103061222D01*
X153781780Y-103029645D01*
X153785035Y-103024504D01*
X153812262Y-102983754D01*
X153815768Y-102978776D01*
X153837708Y-102949193D01*
X153841453Y-102944394D01*
X153991324Y-102761776D01*
X153995299Y-102757167D01*
X154020027Y-102729884D01*
X154024224Y-102725477D01*
X154058877Y-102690824D01*
X154063284Y-102686627D01*
X154090567Y-102661899D01*
X154095176Y-102657924D01*
X154191954Y-102578500D01*
X156653246Y-102578500D01*
X156750024Y-102657924D01*
X156754633Y-102661899D01*
X156781916Y-102686627D01*
X156786323Y-102690824D01*
X156820976Y-102725477D01*
X156825173Y-102729884D01*
X156849901Y-102757167D01*
X156853876Y-102761776D01*
X157003747Y-102944394D01*
X157007492Y-102949193D01*
X157029432Y-102978776D01*
X157032938Y-102983754D01*
X157060165Y-103024504D01*
X157063420Y-103029645D01*
X157082346Y-103061222D01*
X157085345Y-103066516D01*
X157196707Y-103274861D01*
X157199444Y-103280298D01*
X157215192Y-103313595D01*
X157217659Y-103319162D01*
X157236411Y-103364437D01*
X157238601Y-103370112D01*
X157251002Y-103404771D01*
X157252910Y-103410549D01*
X157321485Y-103636608D01*
X157323109Y-103642474D01*
X157332055Y-103678188D01*
X157333388Y-103684126D01*
X157342949Y-103732191D01*
X157343989Y-103738185D01*
X157349394Y-103774616D01*
X157350140Y-103780660D01*
X157373295Y-104015765D01*
X157373743Y-104021834D01*
X157375550Y-104058612D01*
X157375699Y-104064697D01*
X157375699Y-104080500D01*
X157432500Y-104080500D01*
X158430500Y-104080500D01*
X159932500Y-104080500D01*
X159932500Y-103759165D01*
X160930500Y-103759165D01*
X160930500Y-104080500D01*
X162432500Y-104080500D01*
X162432500Y-103818840D01*
X162313708Y-103832225D01*
X162306779Y-103832810D01*
X162264761Y-103835170D01*
X162257807Y-103835365D01*
X162201793Y-103835365D01*
X162194839Y-103835170D01*
X162152821Y-103832810D01*
X162145892Y-103832225D01*
X161910980Y-103805758D01*
X161904093Y-103804786D01*
X161862609Y-103797738D01*
X161855789Y-103796382D01*
X161801179Y-103783919D01*
X161794442Y-103782181D01*
X161753993Y-103770528D01*
X161747366Y-103768416D01*
X161524222Y-103690335D01*
X161517721Y-103687853D01*
X161478835Y-103671745D01*
X161477298Y-103671057D01*
X161416835Y-103692215D01*
X161410207Y-103694328D01*
X161369758Y-103705981D01*
X161363021Y-103707719D01*
X161308411Y-103720182D01*
X161301591Y-103721538D01*
X161260107Y-103728586D01*
X161253220Y-103729558D01*
X161018308Y-103756025D01*
X161011379Y-103756610D01*
X160969361Y-103758970D01*
X160962407Y-103759165D01*
X160930500Y-103759165D01*
X159932500Y-103759165D01*
X159932500Y-103450132D01*
X159877452Y-103415544D01*
X159871667Y-103411678D01*
X159837339Y-103387320D01*
X159831782Y-103383138D01*
X159821028Y-103374562D01*
X163430500Y-103374562D01*
X163430500Y-104080500D01*
X164050753Y-104080500D01*
X164024713Y-103988978D01*
X164020508Y-103966485D01*
X163999988Y-103745041D01*
X163999988Y-103722159D01*
X164020508Y-103500715D01*
X164024713Y-103478222D01*
X164085573Y-103264319D01*
X164093839Y-103242981D01*
X164192968Y-103043903D01*
X164205014Y-103024448D01*
X164339036Y-102846975D01*
X164354452Y-102830065D01*
X164518802Y-102680240D01*
X164537062Y-102666450D01*
X164679106Y-102578500D01*
X163943928Y-102578500D01*
X163888335Y-102737378D01*
X163885853Y-102743879D01*
X163869745Y-102782765D01*
X163866905Y-102789112D01*
X163842601Y-102839579D01*
X163839408Y-102845759D01*
X163819052Y-102882590D01*
X163815519Y-102888580D01*
X163689744Y-103088748D01*
X163685878Y-103094533D01*
X163661520Y-103128861D01*
X163657338Y-103134418D01*
X163622414Y-103178210D01*
X163617927Y-103183524D01*
X163589887Y-103214900D01*
X163585109Y-103219953D01*
X163430500Y-103374562D01*
X159821028Y-103374562D01*
X159787990Y-103348214D01*
X159782676Y-103343727D01*
X159751300Y-103315687D01*
X159746247Y-103310909D01*
X159579091Y-103143753D01*
X159574313Y-103138700D01*
X159546273Y-103107324D01*
X159541786Y-103102010D01*
X159506862Y-103058218D01*
X159502680Y-103052661D01*
X159478322Y-103018333D01*
X159474456Y-103012548D01*
X159348681Y-102812380D01*
X159345148Y-102806390D01*
X159324792Y-102769559D01*
X159321599Y-102763379D01*
X159297295Y-102712912D01*
X159294455Y-102706565D01*
X159278347Y-102667679D01*
X159275865Y-102661178D01*
X159246935Y-102578500D01*
X158430500Y-102578500D01*
X158430500Y-104080500D01*
X157432500Y-104080500D01*
X157432500Y-102578500D01*
X156653246Y-102578500D01*
X154191954Y-102578500D01*
X153430500Y-102578500D01*
X153430500Y-104080500D01*
X152432500Y-104080500D01*
X152432500Y-102578500D01*
X151215786Y-102578500D01*
X151217025Y-102589501D01*
X151217610Y-102596430D01*
X151219970Y-102638448D01*
X151220165Y-102645402D01*
X151220165Y-102701416D01*
X151219970Y-102708370D01*
X151217610Y-102750388D01*
X151217025Y-102757317D01*
X151190558Y-102992229D01*
X151189586Y-102999116D01*
X151182538Y-103040600D01*
X151181182Y-103047420D01*
X151168719Y-103102030D01*
X151166981Y-103108767D01*
X151155328Y-103149216D01*
X151153216Y-103155843D01*
X151075135Y-103378987D01*
X151072653Y-103385488D01*
X151056545Y-103424374D01*
X151053705Y-103430721D01*
X151029401Y-103481188D01*
X151026208Y-103487368D01*
X151005852Y-103524199D01*
X151002318Y-103530190D01*
X150930500Y-103644485D01*
X147595805Y-103644485D01*
X147639389Y-103575122D01*
X147698968Y-103404855D01*
X147698969Y-103404849D01*
X147719165Y-103225603D01*
X147719165Y-103225596D01*
X147698969Y-103046350D01*
X147698968Y-103046345D01*
X147693124Y-103029645D01*
X147639389Y-102876078D01*
X147628950Y-102859465D01*
X147587470Y-102793450D01*
X147543416Y-102723338D01*
X147493483Y-102673405D01*
X148611035Y-102673405D01*
X148611035Y-102673412D01*
X148631230Y-102852658D01*
X148631231Y-102852663D01*
X148690811Y-103022932D01*
X148772195Y-103152453D01*
X148786784Y-103175671D01*
X148914338Y-103303225D01*
X148979077Y-103343903D01*
X149054538Y-103391319D01*
X149067078Y-103399198D01*
X149189056Y-103441880D01*
X149237345Y-103458777D01*
X149237350Y-103458778D01*
X149416596Y-103478974D01*
X149416600Y-103478974D01*
X149416604Y-103478974D01*
X149595849Y-103458778D01*
X149595852Y-103458777D01*
X149595855Y-103458777D01*
X149766122Y-103399198D01*
X149918862Y-103303225D01*
X150046416Y-103175671D01*
X150142389Y-103022931D01*
X150201968Y-102852664D01*
X150202746Y-102845759D01*
X150222165Y-102673412D01*
X150222165Y-102673405D01*
X150201969Y-102494159D01*
X150201968Y-102494154D01*
X150142389Y-102323887D01*
X150046416Y-102171147D01*
X149918862Y-102043593D01*
X149900087Y-102031796D01*
X149778817Y-101955596D01*
X160128835Y-101955596D01*
X160128835Y-101955603D01*
X160149030Y-102134849D01*
X160149031Y-102134854D01*
X160208611Y-102305123D01*
X160256491Y-102381323D01*
X160304584Y-102457862D01*
X160432138Y-102585416D01*
X160448639Y-102595784D01*
X160572182Y-102673412D01*
X160584878Y-102681389D01*
X160710874Y-102725477D01*
X160755145Y-102740968D01*
X160755150Y-102740969D01*
X160934396Y-102761165D01*
X160934400Y-102761165D01*
X160934404Y-102761165D01*
X161113649Y-102740969D01*
X161113652Y-102740968D01*
X161113655Y-102740968D01*
X161283922Y-102681389D01*
X161436662Y-102585416D01*
X161456319Y-102565759D01*
X161517642Y-102532274D01*
X161587334Y-102537258D01*
X161631681Y-102565759D01*
X161727538Y-102661616D01*
X161808069Y-102712217D01*
X161877497Y-102755842D01*
X161880278Y-102757589D01*
X162036862Y-102812380D01*
X162050545Y-102817168D01*
X162050550Y-102817169D01*
X162229796Y-102837365D01*
X162229800Y-102837365D01*
X162229804Y-102837365D01*
X162409049Y-102817169D01*
X162409052Y-102817168D01*
X162409055Y-102817168D01*
X162579322Y-102757589D01*
X162732062Y-102661616D01*
X162859616Y-102534062D01*
X162955589Y-102381322D01*
X163015168Y-102211055D01*
X163023754Y-102134854D01*
X163031061Y-102069999D01*
X167046341Y-102069999D01*
X167046341Y-102070000D01*
X167066936Y-102305403D01*
X167066938Y-102305413D01*
X167128094Y-102533655D01*
X167128096Y-102533659D01*
X167128097Y-102533663D01*
X167216544Y-102723337D01*
X167227965Y-102747830D01*
X167227967Y-102747834D01*
X167321138Y-102880895D01*
X167363501Y-102941396D01*
X167363506Y-102941402D01*
X167530597Y-103108493D01*
X167530603Y-103108498D01*
X167716158Y-103238425D01*
X167759783Y-103293002D01*
X167766977Y-103362500D01*
X167735454Y-103424855D01*
X167716158Y-103441575D01*
X167530597Y-103571505D01*
X167363505Y-103738597D01*
X167227965Y-103932169D01*
X167227964Y-103932171D01*
X167153293Y-104092304D01*
X167130105Y-104142032D01*
X167128098Y-104146335D01*
X167128094Y-104146344D01*
X167066938Y-104374586D01*
X167066936Y-104374596D01*
X167046341Y-104609999D01*
X167046341Y-104610000D01*
X167066936Y-104845403D01*
X167066938Y-104845413D01*
X167128094Y-105073655D01*
X167128096Y-105073659D01*
X167128097Y-105073663D01*
X167214547Y-105259055D01*
X167227965Y-105287830D01*
X167227967Y-105287834D01*
X167327277Y-105429662D01*
X167363505Y-105481401D01*
X167530599Y-105648495D01*
X167605727Y-105701100D01*
X167724165Y-105784032D01*
X167724167Y-105784033D01*
X167724170Y-105784035D01*
X167938337Y-105883903D01*
X167938343Y-105883904D01*
X167938344Y-105883905D01*
X167993285Y-105898626D01*
X168166592Y-105945063D01*
X168354918Y-105961539D01*
X168401999Y-105965659D01*
X168402000Y-105965659D01*
X168402001Y-105965659D01*
X168441234Y-105962226D01*
X168637408Y-105945063D01*
X168865663Y-105883903D01*
X169079830Y-105784035D01*
X169273401Y-105648495D01*
X169440495Y-105481401D01*
X169570730Y-105295405D01*
X169625307Y-105251781D01*
X169694805Y-105244587D01*
X169757160Y-105276110D01*
X169773879Y-105295405D01*
X169903890Y-105481078D01*
X170070917Y-105648105D01*
X170264421Y-105783600D01*
X170478507Y-105883429D01*
X170478516Y-105883433D01*
X170692000Y-105940634D01*
X170692000Y-105043012D01*
X170749007Y-105075925D01*
X170876174Y-105110000D01*
X171007826Y-105110000D01*
X171134993Y-105075925D01*
X171192000Y-105043012D01*
X171192000Y-105940633D01*
X171405483Y-105883433D01*
X171405492Y-105883429D01*
X171619578Y-105783600D01*
X171813082Y-105648105D01*
X171980105Y-105481082D01*
X172115600Y-105287578D01*
X172215429Y-105073492D01*
X172215432Y-105073486D01*
X172272636Y-104860000D01*
X171375012Y-104860000D01*
X171407925Y-104802993D01*
X171442000Y-104675826D01*
X171442000Y-104544174D01*
X171407925Y-104417007D01*
X171375012Y-104360000D01*
X172272636Y-104360000D01*
X172272635Y-104359999D01*
X172215432Y-104146513D01*
X172215429Y-104146507D01*
X172115600Y-103932422D01*
X172115599Y-103932420D01*
X171980113Y-103738926D01*
X171980108Y-103738920D01*
X171813078Y-103571890D01*
X171627405Y-103441879D01*
X171583780Y-103387302D01*
X171576588Y-103317804D01*
X171608110Y-103255449D01*
X171627406Y-103238730D01*
X171627842Y-103238425D01*
X171813401Y-103108495D01*
X171980495Y-102941401D01*
X172116035Y-102747830D01*
X172215903Y-102533663D01*
X172277063Y-102305408D01*
X172297659Y-102070000D01*
X172277063Y-101834592D01*
X172215903Y-101606337D01*
X172116035Y-101392171D01*
X172110425Y-101384158D01*
X171980494Y-101198597D01*
X171813402Y-101031506D01*
X171813396Y-101031501D01*
X171627842Y-100901575D01*
X171584217Y-100846998D01*
X171577023Y-100777500D01*
X171608546Y-100715145D01*
X171627842Y-100698425D01*
X171734147Y-100623989D01*
X171813401Y-100568495D01*
X171980495Y-100401401D01*
X172116035Y-100207830D01*
X172215903Y-99993663D01*
X172277063Y-99765408D01*
X172297659Y-99530000D01*
X172277063Y-99294592D01*
X172228361Y-99112830D01*
X172215905Y-99066344D01*
X172215904Y-99066343D01*
X172215903Y-99066337D01*
X172116035Y-98852171D01*
X172112343Y-98846897D01*
X171980494Y-98658597D01*
X171813402Y-98491506D01*
X171813395Y-98491501D01*
X171619834Y-98355967D01*
X171619830Y-98355965D01*
X171566524Y-98331108D01*
X171405663Y-98256097D01*
X171405659Y-98256096D01*
X171405655Y-98256094D01*
X171177413Y-98194938D01*
X171177403Y-98194936D01*
X170942001Y-98174341D01*
X170941999Y-98174341D01*
X170706596Y-98194936D01*
X170706586Y-98194938D01*
X170478344Y-98256094D01*
X170478335Y-98256098D01*
X170264171Y-98355964D01*
X170264169Y-98355965D01*
X170070600Y-98491503D01*
X169948673Y-98613430D01*
X169887350Y-98646914D01*
X169817658Y-98641930D01*
X169761725Y-98600058D01*
X169744810Y-98569081D01*
X169695797Y-98437671D01*
X169695793Y-98437664D01*
X169609547Y-98322455D01*
X169609544Y-98322452D01*
X169494335Y-98236206D01*
X169494328Y-98236202D01*
X169359482Y-98185908D01*
X169359483Y-98185908D01*
X169299883Y-98179501D01*
X169299881Y-98179500D01*
X169299873Y-98179500D01*
X169299864Y-98179500D01*
X167504129Y-98179500D01*
X167504123Y-98179501D01*
X167444516Y-98185908D01*
X167309671Y-98236202D01*
X167309664Y-98236206D01*
X167194455Y-98322452D01*
X167194452Y-98322455D01*
X167108206Y-98437664D01*
X167108202Y-98437671D01*
X167057908Y-98572517D01*
X167051501Y-98632116D01*
X167051500Y-98632135D01*
X167051500Y-100427870D01*
X167051501Y-100427876D01*
X167057908Y-100487483D01*
X167108202Y-100622328D01*
X167108206Y-100622335D01*
X167194452Y-100737544D01*
X167194455Y-100737547D01*
X167309664Y-100823793D01*
X167309671Y-100823797D01*
X167441081Y-100872810D01*
X167497015Y-100914681D01*
X167521432Y-100980145D01*
X167506580Y-101048418D01*
X167485430Y-101076673D01*
X167363503Y-101198600D01*
X167227965Y-101392169D01*
X167227964Y-101392171D01*
X167128098Y-101606335D01*
X167128094Y-101606344D01*
X167066938Y-101834586D01*
X167066936Y-101834596D01*
X167046341Y-102069999D01*
X163031061Y-102069999D01*
X163035365Y-102031803D01*
X163035365Y-102031796D01*
X163015169Y-101852550D01*
X163015168Y-101852545D01*
X162955588Y-101682276D01*
X162902613Y-101597967D01*
X162859616Y-101529538D01*
X162732062Y-101401984D01*
X162610791Y-101325784D01*
X162579323Y-101306011D01*
X162409054Y-101246431D01*
X162409049Y-101246430D01*
X162229804Y-101226235D01*
X162229796Y-101226235D01*
X162050550Y-101246430D01*
X162050545Y-101246431D01*
X161880276Y-101306011D01*
X161727534Y-101401986D01*
X161707878Y-101421642D01*
X161646555Y-101455126D01*
X161576863Y-101450140D01*
X161532518Y-101421640D01*
X161436662Y-101325784D01*
X161283923Y-101229811D01*
X161113654Y-101170231D01*
X161113649Y-101170230D01*
X160934404Y-101150035D01*
X160934396Y-101150035D01*
X160755150Y-101170230D01*
X160755145Y-101170231D01*
X160584876Y-101229811D01*
X160432137Y-101325784D01*
X160304584Y-101453337D01*
X160208611Y-101606076D01*
X160149031Y-101776345D01*
X160149030Y-101776350D01*
X160128835Y-101955596D01*
X149778817Y-101955596D01*
X149766123Y-101947620D01*
X149595854Y-101888040D01*
X149595849Y-101888039D01*
X149416604Y-101867844D01*
X149416596Y-101867844D01*
X149237350Y-101888039D01*
X149237345Y-101888040D01*
X149067076Y-101947620D01*
X148914337Y-102043593D01*
X148786784Y-102171146D01*
X148690811Y-102323885D01*
X148631231Y-102494154D01*
X148631230Y-102494159D01*
X148611035Y-102673405D01*
X147493483Y-102673405D01*
X147415862Y-102595784D01*
X147405863Y-102589501D01*
X147263123Y-102499811D01*
X147092854Y-102440231D01*
X147092849Y-102440230D01*
X146913604Y-102420035D01*
X146913596Y-102420035D01*
X146734350Y-102440230D01*
X146734345Y-102440231D01*
X146564076Y-102499811D01*
X146411337Y-102595784D01*
X146283784Y-102723337D01*
X146187811Y-102876076D01*
X146128231Y-103046345D01*
X146128230Y-103046350D01*
X146108035Y-103225596D01*
X146108035Y-103225603D01*
X146128230Y-103404849D01*
X146128231Y-103404854D01*
X146187811Y-103575123D01*
X146260204Y-103690335D01*
X146283784Y-103727862D01*
X146411338Y-103855416D01*
X146437797Y-103872041D01*
X146564079Y-103951390D01*
X146574438Y-103955015D01*
X146631214Y-103995737D01*
X146656960Y-104060690D01*
X146643503Y-104129252D01*
X146595115Y-104179654D01*
X146574438Y-104189097D01*
X146538679Y-104201609D01*
X146385937Y-104297584D01*
X146258384Y-104425137D01*
X146162411Y-104577876D01*
X146102831Y-104748145D01*
X146102830Y-104748150D01*
X146082635Y-104927396D01*
X138889568Y-104927396D01*
X138927189Y-104867522D01*
X138986768Y-104697255D01*
X138986769Y-104697249D01*
X139006965Y-104518003D01*
X139006965Y-104517996D01*
X138986769Y-104338750D01*
X138986768Y-104338745D01*
X138971262Y-104294431D01*
X138927189Y-104168478D01*
X138913387Y-104146513D01*
X138871908Y-104080500D01*
X140930500Y-104080500D01*
X142432500Y-104080500D01*
X143430500Y-104080500D01*
X144932500Y-104080500D01*
X144932500Y-102578500D01*
X143430500Y-102578500D01*
X143430500Y-104080500D01*
X142432500Y-104080500D01*
X142432500Y-102578500D01*
X140930500Y-102578500D01*
X140930500Y-104080500D01*
X138871908Y-104080500D01*
X138859461Y-104060690D01*
X138831216Y-104015738D01*
X138703662Y-103888184D01*
X138651512Y-103855416D01*
X138550923Y-103792211D01*
X138380654Y-103732631D01*
X138380649Y-103732630D01*
X138201404Y-103712435D01*
X138201396Y-103712435D01*
X138022150Y-103732630D01*
X138022145Y-103732631D01*
X137851876Y-103792211D01*
X137699137Y-103888184D01*
X137571584Y-104015737D01*
X137475611Y-104168476D01*
X137416031Y-104338745D01*
X137416030Y-104338750D01*
X137395835Y-104517996D01*
X136587274Y-104517996D01*
X136519262Y-104449984D01*
X136479720Y-104425138D01*
X136366523Y-104354011D01*
X136196254Y-104294431D01*
X136196249Y-104294430D01*
X136017004Y-104274235D01*
X136016996Y-104274235D01*
X135837750Y-104294430D01*
X135837745Y-104294431D01*
X135667476Y-104354011D01*
X135514737Y-104449984D01*
X135387184Y-104577537D01*
X135291211Y-104730276D01*
X135231631Y-104900545D01*
X135231630Y-104900550D01*
X135211435Y-105079796D01*
X134213435Y-105079796D01*
X134213435Y-105078500D01*
X133430500Y-105078500D01*
X133430500Y-106580500D01*
X132432500Y-106580500D01*
X132432500Y-105078500D01*
X130930500Y-105078500D01*
X130930500Y-106580500D01*
X129932500Y-106580500D01*
X129932500Y-105184201D01*
X129914019Y-105182489D01*
X129695413Y-105141625D01*
X129673404Y-105135363D01*
X129526624Y-105078500D01*
X128430500Y-105078500D01*
X128430500Y-106580500D01*
X127432500Y-106580500D01*
X127432500Y-105078500D01*
X125930500Y-105078500D01*
X125930500Y-106580500D01*
X124932500Y-106580500D01*
X124932500Y-105078500D01*
X124180500Y-105078500D01*
X124180500Y-106580500D01*
X123182500Y-106580500D01*
X123182500Y-104080500D01*
X124180500Y-104080500D01*
X124932500Y-104080500D01*
X125930500Y-104080500D01*
X127432500Y-104080500D01*
X128430500Y-104080500D01*
X128738705Y-104080500D01*
X128719388Y-103872041D01*
X128719388Y-103849159D01*
X128739908Y-103627715D01*
X128744113Y-103605222D01*
X128804973Y-103391319D01*
X128813239Y-103369981D01*
X128912368Y-103170903D01*
X128924414Y-103151448D01*
X129058436Y-102973975D01*
X129073852Y-102957065D01*
X129165502Y-102873515D01*
X130930500Y-102873515D01*
X131022149Y-102957065D01*
X131037564Y-102973975D01*
X131171586Y-103151448D01*
X131183632Y-103170903D01*
X131282761Y-103369981D01*
X131291027Y-103391319D01*
X131351887Y-103605222D01*
X131356092Y-103627715D01*
X131376612Y-103849159D01*
X131376612Y-103872041D01*
X131357295Y-104080500D01*
X132432500Y-104080500D01*
X133430500Y-104080500D01*
X134520833Y-104080500D01*
X134557057Y-104022851D01*
X134560922Y-104017067D01*
X134585280Y-103982739D01*
X134589462Y-103977182D01*
X134624386Y-103933390D01*
X134628873Y-103928076D01*
X134656913Y-103896700D01*
X134661691Y-103891647D01*
X134828847Y-103724491D01*
X134833900Y-103719713D01*
X134865276Y-103691673D01*
X134870590Y-103687186D01*
X134914382Y-103652262D01*
X134919939Y-103648080D01*
X134932500Y-103639167D01*
X134932500Y-102733933D01*
X138430500Y-102733933D01*
X138520220Y-102744042D01*
X138527107Y-102745014D01*
X138568591Y-102752062D01*
X138575411Y-102753418D01*
X138630021Y-102765881D01*
X138636758Y-102767619D01*
X138677207Y-102779272D01*
X138683834Y-102781384D01*
X138906978Y-102859465D01*
X138913479Y-102861947D01*
X138952365Y-102878055D01*
X138958712Y-102880895D01*
X139009179Y-102905199D01*
X139015359Y-102908392D01*
X139052190Y-102928748D01*
X139058180Y-102932281D01*
X139258348Y-103058056D01*
X139264133Y-103061922D01*
X139298461Y-103086280D01*
X139304018Y-103090462D01*
X139347810Y-103125386D01*
X139353124Y-103129873D01*
X139384500Y-103157913D01*
X139389553Y-103162691D01*
X139556709Y-103329847D01*
X139561487Y-103334900D01*
X139589527Y-103366276D01*
X139594014Y-103371590D01*
X139628938Y-103415382D01*
X139633120Y-103420939D01*
X139657478Y-103455267D01*
X139661344Y-103461052D01*
X139787119Y-103661220D01*
X139790652Y-103667210D01*
X139811008Y-103704041D01*
X139814201Y-103710221D01*
X139838505Y-103760688D01*
X139841345Y-103767035D01*
X139857453Y-103805921D01*
X139859935Y-103812422D01*
X139932500Y-104019802D01*
X139932500Y-102578500D01*
X138430500Y-102578500D01*
X138430500Y-102733933D01*
X134932500Y-102733933D01*
X134932500Y-102578500D01*
X133430500Y-102578500D01*
X133430500Y-104080500D01*
X132432500Y-104080500D01*
X132432500Y-102578500D01*
X130930500Y-102578500D01*
X130930500Y-102873515D01*
X129165502Y-102873515D01*
X129238202Y-102807240D01*
X129256462Y-102793450D01*
X129445544Y-102676375D01*
X129466028Y-102666175D01*
X129673404Y-102585837D01*
X129695413Y-102579575D01*
X129701164Y-102578500D01*
X128430500Y-102578500D01*
X128430500Y-104080500D01*
X127432500Y-104080500D01*
X127432500Y-102578500D01*
X125930500Y-102578500D01*
X125930500Y-104080500D01*
X124932500Y-104080500D01*
X124932500Y-102578500D01*
X124180500Y-102578500D01*
X124180500Y-104080500D01*
X123182500Y-104080500D01*
X123182500Y-101119909D01*
X125930500Y-101119909D01*
X125930500Y-101580500D01*
X127432500Y-101580500D01*
X128430500Y-101580500D01*
X129932500Y-101580500D01*
X130930500Y-101580500D01*
X132432500Y-101580500D01*
X133430500Y-101580500D01*
X134932500Y-101580500D01*
X134932500Y-101535348D01*
X135930500Y-101535348D01*
X135972604Y-101519037D01*
X135994613Y-101512775D01*
X136213219Y-101471911D01*
X136236004Y-101469800D01*
X136458396Y-101469800D01*
X136481181Y-101471911D01*
X136699787Y-101512775D01*
X136721796Y-101519037D01*
X136880450Y-101580500D01*
X137432500Y-101580500D01*
X138430500Y-101580500D01*
X139932500Y-101580500D01*
X139932500Y-101144927D01*
X139748035Y-101163095D01*
X139741966Y-101163543D01*
X139705188Y-101165350D01*
X139699103Y-101165499D01*
X139650097Y-101165499D01*
X139644012Y-101165350D01*
X139607234Y-101163543D01*
X139601165Y-101163095D01*
X139366060Y-101139940D01*
X139360016Y-101139194D01*
X139323585Y-101133789D01*
X139317591Y-101132749D01*
X139269526Y-101123188D01*
X139263588Y-101121855D01*
X139227874Y-101112909D01*
X139222008Y-101111285D01*
X138995949Y-101042710D01*
X138990171Y-101040802D01*
X138955512Y-101028401D01*
X138949837Y-101026211D01*
X138904562Y-101007459D01*
X138898995Y-101004992D01*
X138865698Y-100989244D01*
X138860261Y-100986507D01*
X138651916Y-100875145D01*
X138646622Y-100872146D01*
X138615045Y-100853220D01*
X138609904Y-100849965D01*
X138569154Y-100822738D01*
X138564176Y-100819232D01*
X138534593Y-100797292D01*
X138529794Y-100793547D01*
X138430500Y-100712058D01*
X138430500Y-101580500D01*
X137432500Y-101580500D01*
X137432500Y-100702373D01*
X140930500Y-100702373D01*
X140930500Y-101580500D01*
X142432500Y-101580500D01*
X143430500Y-101580500D01*
X144932500Y-101580500D01*
X150930500Y-101580500D01*
X152432500Y-101580500D01*
X153430500Y-101580500D01*
X154932500Y-101580500D01*
X155930500Y-101580500D01*
X157432500Y-101580500D01*
X158430500Y-101580500D01*
X159170067Y-101580500D01*
X159182281Y-101526979D01*
X159184019Y-101520242D01*
X159195672Y-101479793D01*
X159197784Y-101473166D01*
X159275865Y-101250022D01*
X159278347Y-101243521D01*
X159294455Y-101204635D01*
X159297295Y-101198288D01*
X159321599Y-101147821D01*
X159324792Y-101141641D01*
X159345148Y-101104810D01*
X159348681Y-101098820D01*
X159474456Y-100898652D01*
X159478322Y-100892867D01*
X159502680Y-100858539D01*
X159506862Y-100852982D01*
X159541786Y-100809190D01*
X159546273Y-100803876D01*
X159574313Y-100772500D01*
X159579091Y-100767447D01*
X159657500Y-100689038D01*
X163430500Y-100689038D01*
X163585109Y-100843647D01*
X163589887Y-100848700D01*
X163617927Y-100880076D01*
X163622414Y-100885390D01*
X163657338Y-100929182D01*
X163661520Y-100934739D01*
X163685878Y-100969067D01*
X163689744Y-100974852D01*
X163815519Y-101175020D01*
X163819052Y-101181010D01*
X163839408Y-101217841D01*
X163842601Y-101224021D01*
X163866905Y-101274488D01*
X163869745Y-101280835D01*
X163885853Y-101319721D01*
X163888335Y-101326222D01*
X163966416Y-101549366D01*
X163968528Y-101555993D01*
X163975588Y-101580500D01*
X164932500Y-101580500D01*
X164932500Y-100078500D01*
X163430500Y-100078500D01*
X163430500Y-100689038D01*
X159657500Y-100689038D01*
X159746247Y-100600291D01*
X159751300Y-100595513D01*
X159782676Y-100567473D01*
X159787990Y-100562986D01*
X159831782Y-100528062D01*
X159837339Y-100523880D01*
X159871667Y-100499522D01*
X159877452Y-100495656D01*
X159932500Y-100461066D01*
X159932500Y-100078500D01*
X158430500Y-100078500D01*
X158430500Y-101580500D01*
X157432500Y-101580500D01*
X157432500Y-100078500D01*
X155930500Y-100078500D01*
X155930500Y-101580500D01*
X154932500Y-101580500D01*
X154932500Y-100078500D01*
X153430500Y-100078500D01*
X153430500Y-101580500D01*
X152432500Y-101580500D01*
X152432500Y-100078500D01*
X150930500Y-100078500D01*
X150930500Y-101580500D01*
X144932500Y-101580500D01*
X144932500Y-100368719D01*
X144927347Y-100356280D01*
X144924865Y-100349778D01*
X144846784Y-100126634D01*
X144844672Y-100120007D01*
X144833019Y-100079558D01*
X144832746Y-100078500D01*
X143430500Y-100078500D01*
X143430500Y-101580500D01*
X142432500Y-101580500D01*
X142432500Y-100078500D01*
X141421040Y-100078500D01*
X141337345Y-100235084D01*
X141334346Y-100240378D01*
X141315420Y-100271955D01*
X141312165Y-100277096D01*
X141284938Y-100317846D01*
X141281432Y-100322824D01*
X141259492Y-100352407D01*
X141255747Y-100357206D01*
X141105876Y-100539824D01*
X141101901Y-100544433D01*
X141077173Y-100571716D01*
X141072976Y-100576123D01*
X141038323Y-100610776D01*
X141033916Y-100614973D01*
X141006633Y-100639701D01*
X141002023Y-100643677D01*
X140930500Y-100702373D01*
X137432500Y-100702373D01*
X137432500Y-100078500D01*
X135930500Y-100078500D01*
X135930500Y-101535348D01*
X134932500Y-101535348D01*
X134932500Y-100078500D01*
X133430500Y-100078500D01*
X133430500Y-101580500D01*
X132432500Y-101580500D01*
X132432500Y-100078500D01*
X130930500Y-100078500D01*
X130930500Y-101580500D01*
X129932500Y-101580500D01*
X129932500Y-100078500D01*
X128430500Y-100078500D01*
X128430500Y-101580500D01*
X127432500Y-101580500D01*
X127432500Y-100078500D01*
X127045560Y-100078500D01*
X127036893Y-100097086D01*
X127034501Y-100101937D01*
X127019394Y-100130958D01*
X127016792Y-100135700D01*
X126995013Y-100173424D01*
X126992208Y-100178048D01*
X126974616Y-100205664D01*
X126971607Y-100210166D01*
X126811131Y-100439346D01*
X126807935Y-100443706D01*
X126788017Y-100469665D01*
X126784630Y-100473885D01*
X126756633Y-100507252D01*
X126753065Y-100511320D01*
X126730947Y-100535458D01*
X126727205Y-100539367D01*
X126529367Y-100737205D01*
X126525458Y-100740947D01*
X126501320Y-100763065D01*
X126497252Y-100766633D01*
X126463885Y-100794630D01*
X126459665Y-100798017D01*
X126433706Y-100817935D01*
X126429346Y-100821131D01*
X126200166Y-100981607D01*
X126195664Y-100984616D01*
X126168048Y-101002208D01*
X126163424Y-101005013D01*
X126125700Y-101026792D01*
X126120958Y-101029394D01*
X126091937Y-101044501D01*
X126087085Y-101046893D01*
X125930500Y-101119909D01*
X123182500Y-101119909D01*
X123182500Y-95540135D01*
X123617500Y-95540135D01*
X123617500Y-97335870D01*
X123617501Y-97335876D01*
X123623908Y-97395483D01*
X123674202Y-97530328D01*
X123674206Y-97530335D01*
X123760452Y-97645544D01*
X123760455Y-97645547D01*
X123875664Y-97731793D01*
X123875671Y-97731797D01*
X123937902Y-97755007D01*
X124007598Y-97781002D01*
X124063531Y-97822873D01*
X124087949Y-97888337D01*
X124073098Y-97956610D01*
X124051947Y-97984865D01*
X123929886Y-98106926D01*
X123794400Y-98300420D01*
X123794399Y-98300422D01*
X123694570Y-98514507D01*
X123694567Y-98514513D01*
X123637364Y-98727999D01*
X123637364Y-98728000D01*
X124534988Y-98728000D01*
X124502075Y-98785007D01*
X124468000Y-98912174D01*
X124468000Y-99043826D01*
X124502075Y-99170993D01*
X124534988Y-99228000D01*
X123637364Y-99228000D01*
X123694567Y-99441486D01*
X123694570Y-99441492D01*
X123794399Y-99655578D01*
X123929894Y-99849082D01*
X124096917Y-100016105D01*
X124290421Y-100151600D01*
X124504507Y-100251429D01*
X124504516Y-100251433D01*
X124718000Y-100308634D01*
X124718000Y-99411012D01*
X124775007Y-99443925D01*
X124902174Y-99478000D01*
X125033826Y-99478000D01*
X125160993Y-99443925D01*
X125218000Y-99411012D01*
X125218000Y-100308633D01*
X125431483Y-100251433D01*
X125431492Y-100251429D01*
X125645578Y-100151600D01*
X125839082Y-100016105D01*
X126006105Y-99849082D01*
X126141600Y-99655578D01*
X126241429Y-99441492D01*
X126241432Y-99441486D01*
X126298636Y-99228000D01*
X125401012Y-99228000D01*
X125410019Y-99212400D01*
X138719501Y-99212400D01*
X138737852Y-99398731D01*
X138737853Y-99398733D01*
X138792204Y-99577902D01*
X138880462Y-99743023D01*
X138880464Y-99743026D01*
X138999242Y-99887757D01*
X139143973Y-100006535D01*
X139143976Y-100006537D01*
X139309097Y-100094795D01*
X139309099Y-100094796D01*
X139479418Y-100146462D01*
X139488266Y-100149146D01*
X139488268Y-100149147D01*
X139504974Y-100150792D01*
X139674600Y-100167499D01*
X139860931Y-100149147D01*
X140040101Y-100094796D01*
X140205225Y-100006536D01*
X140349957Y-99887757D01*
X140468736Y-99743025D01*
X140521561Y-99644196D01*
X145777835Y-99644196D01*
X145777835Y-99644203D01*
X145798030Y-99823449D01*
X145798031Y-99823454D01*
X145857611Y-99993723D01*
X145911545Y-100079558D01*
X145953584Y-100146462D01*
X146081138Y-100274016D01*
X146086040Y-100277096D01*
X146231856Y-100368719D01*
X146233878Y-100369989D01*
X146392282Y-100425417D01*
X146404145Y-100429568D01*
X146404150Y-100429569D01*
X146583396Y-100449765D01*
X146583400Y-100449765D01*
X146583404Y-100449765D01*
X146762649Y-100429569D01*
X146762652Y-100429568D01*
X146762655Y-100429568D01*
X146932922Y-100369989D01*
X146934944Y-100368719D01*
X146970760Y-100346213D01*
X147077220Y-100279320D01*
X147144455Y-100260320D01*
X147211290Y-100280687D01*
X147248183Y-100318340D01*
X147299784Y-100400462D01*
X147427338Y-100528016D01*
X147491757Y-100568493D01*
X147577445Y-100622335D01*
X147580078Y-100623989D01*
X147750345Y-100683568D01*
X147750350Y-100683569D01*
X147929596Y-100703765D01*
X147929600Y-100703765D01*
X147929604Y-100703765D01*
X148108849Y-100683569D01*
X148108852Y-100683568D01*
X148108855Y-100683568D01*
X148279122Y-100623989D01*
X148431862Y-100528016D01*
X148559416Y-100400462D01*
X148655389Y-100247722D01*
X148714968Y-100077455D01*
X148714969Y-100077449D01*
X148735165Y-99898203D01*
X148735165Y-99898196D01*
X148714969Y-99718950D01*
X148714968Y-99718945D01*
X148688815Y-99644203D01*
X148655389Y-99548678D01*
X148559416Y-99395938D01*
X148431862Y-99268384D01*
X148421242Y-99261711D01*
X148279123Y-99172411D01*
X148108854Y-99112831D01*
X148108849Y-99112830D01*
X147929604Y-99092635D01*
X147929596Y-99092635D01*
X147750350Y-99112830D01*
X147750345Y-99112831D01*
X147580076Y-99172411D01*
X147435780Y-99263079D01*
X147368543Y-99282079D01*
X147301708Y-99261711D01*
X147264816Y-99224059D01*
X147213216Y-99141938D01*
X147085662Y-99014384D01*
X147059850Y-98998165D01*
X146932923Y-98918411D01*
X146762654Y-98858831D01*
X146762649Y-98858830D01*
X146583404Y-98838635D01*
X146583396Y-98838635D01*
X146404150Y-98858830D01*
X146404145Y-98858831D01*
X146233876Y-98918411D01*
X146081137Y-99014384D01*
X145953584Y-99141937D01*
X145857611Y-99294676D01*
X145798031Y-99464945D01*
X145798030Y-99464950D01*
X145777835Y-99644196D01*
X140521561Y-99644196D01*
X140556996Y-99577901D01*
X140611347Y-99398731D01*
X140629699Y-99212400D01*
X140616708Y-99080500D01*
X143813518Y-99080500D01*
X144875220Y-99080500D01*
X144924865Y-98938622D01*
X144927347Y-98932121D01*
X144932500Y-98919681D01*
X144932500Y-98168045D01*
X148430500Y-98168045D01*
X148635178Y-98239665D01*
X148641679Y-98242147D01*
X148680565Y-98258255D01*
X148686912Y-98261095D01*
X148737379Y-98285399D01*
X148743559Y-98288592D01*
X148780390Y-98308948D01*
X148786380Y-98312481D01*
X148986548Y-98438256D01*
X148992333Y-98442122D01*
X149026661Y-98466480D01*
X149032218Y-98470662D01*
X149076010Y-98505586D01*
X149081324Y-98510073D01*
X149112700Y-98538113D01*
X149117753Y-98542891D01*
X149284909Y-98710047D01*
X149289687Y-98715100D01*
X149317727Y-98746476D01*
X149322214Y-98751790D01*
X149357138Y-98795582D01*
X149361320Y-98801139D01*
X149385678Y-98835467D01*
X149389544Y-98841252D01*
X149515319Y-99041420D01*
X149518852Y-99047410D01*
X149537140Y-99080500D01*
X149932500Y-99080500D01*
X150930500Y-99080500D01*
X152432500Y-99080500D01*
X153430500Y-99080500D01*
X154932500Y-99080500D01*
X155930500Y-99080500D01*
X157432500Y-99080500D01*
X158430500Y-99080500D01*
X159932500Y-99080500D01*
X160930500Y-99080500D01*
X162432500Y-99080500D01*
X163430500Y-99080500D01*
X164049045Y-99080500D01*
X163992239Y-98966419D01*
X163983973Y-98945081D01*
X163923113Y-98731178D01*
X163918908Y-98708685D01*
X163898388Y-98487241D01*
X163898388Y-98464359D01*
X163918908Y-98242915D01*
X163923113Y-98220422D01*
X163983973Y-98006519D01*
X163992239Y-97985181D01*
X164091368Y-97786103D01*
X164103414Y-97766648D01*
X164237436Y-97589175D01*
X164247168Y-97578500D01*
X163430500Y-97578500D01*
X163430500Y-99080500D01*
X162432500Y-99080500D01*
X162432500Y-97578500D01*
X160930500Y-97578500D01*
X160930500Y-99080500D01*
X159932500Y-99080500D01*
X159932500Y-97578500D01*
X158430500Y-97578500D01*
X158430500Y-99080500D01*
X157432500Y-99080500D01*
X157432500Y-97578500D01*
X155930500Y-97578500D01*
X155930500Y-99080500D01*
X154932500Y-99080500D01*
X154932500Y-97578500D01*
X153430500Y-97578500D01*
X153430500Y-99080500D01*
X152432500Y-99080500D01*
X152432500Y-98050816D01*
X152420907Y-98052786D01*
X152414020Y-98053758D01*
X152179108Y-98080225D01*
X152172179Y-98080810D01*
X152130161Y-98083170D01*
X152123207Y-98083365D01*
X152067193Y-98083365D01*
X152060239Y-98083170D01*
X152018221Y-98080810D01*
X152011292Y-98080225D01*
X151776380Y-98053758D01*
X151769493Y-98052786D01*
X151728009Y-98045738D01*
X151721189Y-98044382D01*
X151666579Y-98031919D01*
X151659842Y-98030181D01*
X151619393Y-98018528D01*
X151612766Y-98016416D01*
X151389622Y-97938335D01*
X151383121Y-97935853D01*
X151344235Y-97919745D01*
X151337888Y-97916905D01*
X151287421Y-97892601D01*
X151281241Y-97889408D01*
X151244410Y-97869052D01*
X151238420Y-97865519D01*
X151038252Y-97739744D01*
X151032467Y-97735878D01*
X150998139Y-97711520D01*
X150992582Y-97707338D01*
X150948790Y-97672414D01*
X150943476Y-97667927D01*
X150930500Y-97656330D01*
X150930500Y-99080500D01*
X149932500Y-99080500D01*
X149932500Y-97578500D01*
X148430500Y-97578500D01*
X148430500Y-98168045D01*
X144932500Y-98168045D01*
X144932500Y-97967232D01*
X145930500Y-97967232D01*
X146100966Y-97907584D01*
X146107593Y-97905472D01*
X146148042Y-97893819D01*
X146154779Y-97892081D01*
X146209389Y-97879618D01*
X146216209Y-97878262D01*
X146257693Y-97871214D01*
X146264580Y-97870242D01*
X146499492Y-97843775D01*
X146506421Y-97843190D01*
X146548439Y-97840830D01*
X146555393Y-97840635D01*
X146611407Y-97840635D01*
X146618361Y-97840830D01*
X146660379Y-97843190D01*
X146667308Y-97843775D01*
X146902220Y-97870242D01*
X146909107Y-97871214D01*
X146950591Y-97878262D01*
X146957411Y-97879618D01*
X147012021Y-97892081D01*
X147018758Y-97893819D01*
X147059207Y-97905472D01*
X147065834Y-97907584D01*
X147288978Y-97985665D01*
X147295479Y-97988147D01*
X147334365Y-98004255D01*
X147340712Y-98007095D01*
X147391179Y-98031399D01*
X147397359Y-98034592D01*
X147432500Y-98054013D01*
X147432500Y-97578500D01*
X145930500Y-97578500D01*
X145930500Y-97967232D01*
X144932500Y-97967232D01*
X144932500Y-97578500D01*
X143886039Y-97578500D01*
X143951216Y-97764766D01*
X143953328Y-97771393D01*
X143964981Y-97811842D01*
X143966719Y-97818579D01*
X143979182Y-97873189D01*
X143980538Y-97880009D01*
X143987586Y-97921493D01*
X143988558Y-97928380D01*
X144015025Y-98163292D01*
X144015610Y-98170221D01*
X144017970Y-98212239D01*
X144018165Y-98219193D01*
X144018165Y-98275207D01*
X144017970Y-98282161D01*
X144015610Y-98324179D01*
X144015025Y-98331108D01*
X143988558Y-98566020D01*
X143987586Y-98572907D01*
X143980538Y-98614391D01*
X143979182Y-98621211D01*
X143966719Y-98675821D01*
X143964981Y-98682558D01*
X143953328Y-98723007D01*
X143951216Y-98729634D01*
X143873135Y-98952778D01*
X143870653Y-98959279D01*
X143854545Y-98998165D01*
X143851705Y-99004512D01*
X143827401Y-99054979D01*
X143824208Y-99061159D01*
X143813518Y-99080500D01*
X140616708Y-99080500D01*
X140611347Y-99026069D01*
X140556996Y-98846899D01*
X140506160Y-98751790D01*
X140468737Y-98681776D01*
X140468735Y-98681773D01*
X140349957Y-98537042D01*
X140205226Y-98418264D01*
X140205223Y-98418262D01*
X140040102Y-98330004D01*
X139860933Y-98275653D01*
X139860931Y-98275652D01*
X139674600Y-98257301D01*
X139488268Y-98275652D01*
X139488266Y-98275653D01*
X139309097Y-98330004D01*
X139143976Y-98418262D01*
X139143973Y-98418264D01*
X138999242Y-98537042D01*
X138880464Y-98681773D01*
X138880462Y-98681776D01*
X138792204Y-98846897D01*
X138737853Y-99026066D01*
X138737852Y-99026068D01*
X138719501Y-99212400D01*
X125410019Y-99212400D01*
X125433925Y-99170993D01*
X125458173Y-99080500D01*
X128430500Y-99080500D01*
X129932500Y-99080500D01*
X130930500Y-99080500D01*
X132432500Y-99080500D01*
X133430500Y-99080500D01*
X134613670Y-99080500D01*
X134584481Y-99062159D01*
X134578696Y-99058293D01*
X134544368Y-99033935D01*
X134538811Y-99029753D01*
X134495019Y-98994829D01*
X134489705Y-98990342D01*
X134458329Y-98962302D01*
X134453276Y-98957524D01*
X134286120Y-98790368D01*
X134281342Y-98785315D01*
X134253302Y-98753939D01*
X134248815Y-98748625D01*
X134213891Y-98704833D01*
X134209709Y-98699276D01*
X134185351Y-98664948D01*
X134181485Y-98659163D01*
X134055710Y-98458995D01*
X134052177Y-98453005D01*
X134031821Y-98416174D01*
X134028628Y-98409994D01*
X134004324Y-98359527D01*
X134001484Y-98353180D01*
X133985376Y-98314294D01*
X133982894Y-98307794D01*
X133952014Y-98219545D01*
X133937202Y-98208360D01*
X133772852Y-98058535D01*
X133757436Y-98041625D01*
X133623414Y-97864152D01*
X133611368Y-97844697D01*
X133512239Y-97645619D01*
X133503972Y-97624281D01*
X133497692Y-97602211D01*
X134835864Y-97602211D01*
X134835864Y-97602218D01*
X134856059Y-97781464D01*
X134856060Y-97781469D01*
X134915640Y-97951738D01*
X134996374Y-98080225D01*
X135011613Y-98104477D01*
X135139167Y-98232031D01*
X135185422Y-98261095D01*
X135285819Y-98324179D01*
X135291907Y-98328004D01*
X135371815Y-98355965D01*
X135462174Y-98387583D01*
X135462179Y-98387584D01*
X135641425Y-98407780D01*
X135641429Y-98407780D01*
X135641433Y-98407780D01*
X135820678Y-98387584D01*
X135820681Y-98387583D01*
X135820684Y-98387583D01*
X135990951Y-98328004D01*
X136119556Y-98247196D01*
X141409035Y-98247196D01*
X141409035Y-98247203D01*
X141429230Y-98426449D01*
X141429231Y-98426454D01*
X141488811Y-98596723D01*
X141572325Y-98729634D01*
X141584784Y-98749462D01*
X141712338Y-98877016D01*
X141725581Y-98885337D01*
X141848069Y-98962302D01*
X141865078Y-98972989D01*
X141937027Y-98998165D01*
X142035345Y-99032568D01*
X142035350Y-99032569D01*
X142214596Y-99052765D01*
X142214600Y-99052765D01*
X142214604Y-99052765D01*
X142393849Y-99032569D01*
X142393852Y-99032568D01*
X142393855Y-99032568D01*
X142564122Y-98972989D01*
X142716862Y-98877016D01*
X142844416Y-98749462D01*
X142940389Y-98596722D01*
X142999968Y-98426455D01*
X143000891Y-98418262D01*
X143020165Y-98247203D01*
X143020165Y-98247196D01*
X142999969Y-98067950D01*
X142999968Y-98067945D01*
X142971177Y-97985665D01*
X142940389Y-97897678D01*
X142906519Y-97843775D01*
X142867761Y-97782091D01*
X142844416Y-97744938D01*
X142716862Y-97617384D01*
X142564123Y-97521411D01*
X142393854Y-97461831D01*
X142393849Y-97461830D01*
X142214604Y-97441635D01*
X142214596Y-97441635D01*
X142035350Y-97461830D01*
X142035345Y-97461831D01*
X141865076Y-97521411D01*
X141712337Y-97617384D01*
X141584784Y-97744937D01*
X141488811Y-97897676D01*
X141429231Y-98067945D01*
X141429230Y-98067950D01*
X141409035Y-98247196D01*
X136119556Y-98247196D01*
X136143691Y-98232031D01*
X136271245Y-98104477D01*
X136367218Y-97951737D01*
X136426797Y-97781470D01*
X136426850Y-97781002D01*
X136446994Y-97602218D01*
X136446994Y-97602211D01*
X136426798Y-97422965D01*
X136426797Y-97422960D01*
X136396324Y-97335873D01*
X136367218Y-97252693D01*
X136271245Y-97099953D01*
X136143691Y-96972399D01*
X136043773Y-96909616D01*
X135990952Y-96876426D01*
X135820683Y-96816846D01*
X135820678Y-96816845D01*
X135641433Y-96796650D01*
X135641425Y-96796650D01*
X135462179Y-96816845D01*
X135462174Y-96816846D01*
X135291905Y-96876426D01*
X135139166Y-96972399D01*
X135011613Y-97099952D01*
X134915640Y-97252691D01*
X134856060Y-97422960D01*
X134856059Y-97422965D01*
X134835864Y-97602211D01*
X133497692Y-97602211D01*
X133490946Y-97578500D01*
X133430500Y-97578500D01*
X133430500Y-99080500D01*
X132432500Y-99080500D01*
X132432500Y-97578500D01*
X130930500Y-97578500D01*
X130930500Y-99080500D01*
X129932500Y-99080500D01*
X129932500Y-97578500D01*
X128430500Y-97578500D01*
X128430500Y-99080500D01*
X125458173Y-99080500D01*
X125468000Y-99043826D01*
X125468000Y-98912174D01*
X125433925Y-98785007D01*
X125401012Y-98728000D01*
X126298636Y-98728000D01*
X126298635Y-98727999D01*
X126241432Y-98514513D01*
X126241429Y-98514507D01*
X126141600Y-98300422D01*
X126141599Y-98300420D01*
X126006113Y-98106926D01*
X126006108Y-98106920D01*
X125884053Y-97984865D01*
X125850568Y-97923542D01*
X125855552Y-97853850D01*
X125897424Y-97797917D01*
X125928400Y-97781002D01*
X126017847Y-97747641D01*
X126060326Y-97731798D01*
X126060326Y-97731797D01*
X126060331Y-97731796D01*
X126175546Y-97645546D01*
X126261796Y-97530331D01*
X126312091Y-97395483D01*
X126318500Y-97335873D01*
X126318500Y-96580500D01*
X128430500Y-96580500D01*
X129932500Y-96580500D01*
X130930500Y-96580500D01*
X132432500Y-96580500D01*
X133430500Y-96580500D01*
X133554007Y-96580500D01*
X133611368Y-96465303D01*
X133623414Y-96445848D01*
X133757436Y-96268375D01*
X133772852Y-96251465D01*
X133937202Y-96101640D01*
X133955462Y-96087850D01*
X134036948Y-96037396D01*
X136583035Y-96037396D01*
X136583035Y-96037403D01*
X136603230Y-96216649D01*
X136603231Y-96216654D01*
X136662811Y-96386923D01*
X136728551Y-96491547D01*
X136758784Y-96539662D01*
X136886338Y-96667216D01*
X137039078Y-96763189D01*
X137134704Y-96796650D01*
X137209345Y-96822768D01*
X137209350Y-96822769D01*
X137388596Y-96842965D01*
X137388600Y-96842965D01*
X137388604Y-96842965D01*
X137567849Y-96822769D01*
X137567852Y-96822768D01*
X137567855Y-96822768D01*
X137738122Y-96763189D01*
X137890862Y-96667216D01*
X138018416Y-96539662D01*
X138114389Y-96386922D01*
X138173968Y-96216655D01*
X138180604Y-96157762D01*
X138194165Y-96037403D01*
X138194165Y-96037396D01*
X138173969Y-95858150D01*
X138173968Y-95858145D01*
X138114388Y-95687876D01*
X138035039Y-95561593D01*
X138018416Y-95535138D01*
X137890862Y-95407584D01*
X137828611Y-95368469D01*
X137738123Y-95311611D01*
X137567854Y-95252031D01*
X137567849Y-95252030D01*
X137388604Y-95231835D01*
X137388596Y-95231835D01*
X137209350Y-95252030D01*
X137209345Y-95252031D01*
X137039076Y-95311611D01*
X136886337Y-95407584D01*
X136758784Y-95535137D01*
X136662811Y-95687876D01*
X136603231Y-95858145D01*
X136603230Y-95858150D01*
X136583035Y-96037396D01*
X134036948Y-96037396D01*
X134144544Y-95970775D01*
X134165028Y-95960575D01*
X134372404Y-95880237D01*
X134394413Y-95873975D01*
X134613019Y-95833111D01*
X134635804Y-95831000D01*
X134858196Y-95831000D01*
X134880980Y-95833111D01*
X134932500Y-95842741D01*
X134932500Y-95078500D01*
X138910152Y-95078500D01*
X138974319Y-95180620D01*
X138977852Y-95186610D01*
X138998208Y-95223441D01*
X139001401Y-95229621D01*
X139025705Y-95280088D01*
X139028545Y-95286435D01*
X139044653Y-95325321D01*
X139047135Y-95331822D01*
X139125216Y-95554966D01*
X139127328Y-95561593D01*
X139138981Y-95602042D01*
X139140719Y-95608779D01*
X139153182Y-95663389D01*
X139154538Y-95670209D01*
X139161586Y-95711693D01*
X139162558Y-95718580D01*
X139189025Y-95953492D01*
X139189610Y-95960421D01*
X139191970Y-96002439D01*
X139192165Y-96009393D01*
X139192165Y-96065407D01*
X139191970Y-96072361D01*
X139189610Y-96114379D01*
X139189025Y-96121308D01*
X139162558Y-96356220D01*
X139161586Y-96363107D01*
X139154538Y-96404591D01*
X139153182Y-96411411D01*
X139140719Y-96466021D01*
X139138981Y-96472758D01*
X139127328Y-96513207D01*
X139125216Y-96519834D01*
X139103988Y-96580500D01*
X139932500Y-96580500D01*
X140930500Y-96580500D01*
X141532356Y-96580500D01*
X143430500Y-96580500D01*
X144932500Y-96580500D01*
X145930500Y-96580500D01*
X147432500Y-96580500D01*
X148430500Y-96580500D01*
X149932500Y-96580500D01*
X149932500Y-96279796D01*
X151289635Y-96279796D01*
X151289635Y-96279803D01*
X151309830Y-96459049D01*
X151309831Y-96459054D01*
X151369411Y-96629323D01*
X151393221Y-96667216D01*
X151465384Y-96782062D01*
X151592938Y-96909616D01*
X151745678Y-97005589D01*
X151915945Y-97065168D01*
X151915950Y-97065169D01*
X152095196Y-97085365D01*
X152095200Y-97085365D01*
X152095204Y-97085365D01*
X152274449Y-97065169D01*
X152274452Y-97065168D01*
X152274455Y-97065168D01*
X152444722Y-97005589D01*
X152597462Y-96909616D01*
X152725016Y-96782062D01*
X152820989Y-96629322D01*
X152838073Y-96580500D01*
X156956636Y-96580500D01*
X157432500Y-96580500D01*
X158430500Y-96580500D01*
X159932500Y-96580500D01*
X160930500Y-96580500D01*
X162432500Y-96580500D01*
X163430500Y-96580500D01*
X164932500Y-96580500D01*
X165930500Y-96580500D01*
X167432500Y-96580500D01*
X168430500Y-96580500D01*
X169932500Y-96580500D01*
X170930500Y-96580500D01*
X171983500Y-96580500D01*
X171983500Y-95078500D01*
X170930500Y-95078500D01*
X170930500Y-96580500D01*
X169932500Y-96580500D01*
X169932500Y-95078500D01*
X168430500Y-95078500D01*
X168430500Y-96580500D01*
X167432500Y-96580500D01*
X167432500Y-95078500D01*
X165930500Y-95078500D01*
X165930500Y-96580500D01*
X164932500Y-96580500D01*
X164932500Y-95078500D01*
X163430500Y-95078500D01*
X163430500Y-96580500D01*
X162432500Y-96580500D01*
X162432500Y-95078500D01*
X160930500Y-95078500D01*
X160930500Y-96580500D01*
X159932500Y-96580500D01*
X159932500Y-95078500D01*
X158430500Y-95078500D01*
X158430500Y-96580500D01*
X157432500Y-96580500D01*
X157432500Y-95078500D01*
X157187293Y-95078500D01*
X157194485Y-95102208D01*
X157196109Y-95108074D01*
X157205055Y-95143788D01*
X157206388Y-95149726D01*
X157215949Y-95197791D01*
X157216989Y-95203785D01*
X157222394Y-95240216D01*
X157223140Y-95246260D01*
X157246295Y-95481365D01*
X157246743Y-95487434D01*
X157248550Y-95524212D01*
X157248699Y-95530297D01*
X157248699Y-95579303D01*
X157248550Y-95585388D01*
X157246743Y-95622166D01*
X157246295Y-95628235D01*
X157223140Y-95863340D01*
X157222394Y-95869384D01*
X157216989Y-95905815D01*
X157215949Y-95911809D01*
X157206388Y-95959874D01*
X157205055Y-95965812D01*
X157196109Y-96001526D01*
X157194485Y-96007392D01*
X157125910Y-96233451D01*
X157124002Y-96239229D01*
X157111601Y-96273888D01*
X157109411Y-96279563D01*
X157090659Y-96324838D01*
X157088192Y-96330405D01*
X157072444Y-96363702D01*
X157069707Y-96369139D01*
X156958345Y-96577484D01*
X156956636Y-96580500D01*
X152838073Y-96580500D01*
X152880568Y-96459055D01*
X152882056Y-96445848D01*
X152900765Y-96279803D01*
X152900765Y-96279796D01*
X152880569Y-96100550D01*
X152880568Y-96100545D01*
X152858474Y-96037403D01*
X152820989Y-95930278D01*
X152725016Y-95777538D01*
X152597462Y-95649984D01*
X152553190Y-95622166D01*
X152445979Y-95554800D01*
X154340501Y-95554800D01*
X154358852Y-95741131D01*
X154358853Y-95741133D01*
X154413204Y-95920302D01*
X154501462Y-96085423D01*
X154501464Y-96085426D01*
X154620242Y-96230157D01*
X154764973Y-96348935D01*
X154764976Y-96348937D01*
X154791487Y-96363107D01*
X154930099Y-96437196D01*
X155109266Y-96491546D01*
X155109268Y-96491547D01*
X155125974Y-96493192D01*
X155295600Y-96509899D01*
X155481931Y-96491547D01*
X155661101Y-96437196D01*
X155826225Y-96348936D01*
X155970957Y-96230157D01*
X156089736Y-96085425D01*
X156177996Y-95920301D01*
X156232347Y-95741131D01*
X156250699Y-95554800D01*
X156232347Y-95368469D01*
X156177996Y-95189299D01*
X156156844Y-95149726D01*
X156089737Y-95024176D01*
X156089735Y-95024173D01*
X155970957Y-94879442D01*
X155826226Y-94760664D01*
X155826223Y-94760662D01*
X155661102Y-94672404D01*
X155481933Y-94618053D01*
X155481931Y-94618052D01*
X155295600Y-94599701D01*
X155109268Y-94618052D01*
X155109266Y-94618053D01*
X154930097Y-94672404D01*
X154764976Y-94760662D01*
X154764973Y-94760664D01*
X154620242Y-94879442D01*
X154501464Y-95024173D01*
X154501462Y-95024176D01*
X154413204Y-95189297D01*
X154358853Y-95368466D01*
X154358852Y-95368468D01*
X154340501Y-95554800D01*
X152445979Y-95554800D01*
X152444723Y-95554011D01*
X152274454Y-95494431D01*
X152274449Y-95494430D01*
X152095204Y-95474235D01*
X152095196Y-95474235D01*
X151915950Y-95494430D01*
X151915945Y-95494431D01*
X151745676Y-95554011D01*
X151592937Y-95649984D01*
X151465384Y-95777537D01*
X151369411Y-95930276D01*
X151309831Y-96100545D01*
X151309830Y-96100550D01*
X151289635Y-96279796D01*
X149932500Y-96279796D01*
X149932500Y-96157762D01*
X149921835Y-96153345D01*
X149915488Y-96150505D01*
X149865021Y-96126201D01*
X149858841Y-96123008D01*
X149822010Y-96102652D01*
X149816020Y-96099119D01*
X149615852Y-95973344D01*
X149610067Y-95969478D01*
X149575739Y-95945120D01*
X149570182Y-95940938D01*
X149526390Y-95906014D01*
X149521076Y-95901527D01*
X149489700Y-95873487D01*
X149484647Y-95868709D01*
X149317491Y-95701553D01*
X149312713Y-95696500D01*
X149284673Y-95665124D01*
X149280186Y-95659810D01*
X149245262Y-95616018D01*
X149241080Y-95610461D01*
X149216722Y-95576133D01*
X149212856Y-95570348D01*
X149087081Y-95370180D01*
X149083548Y-95364190D01*
X149063192Y-95327359D01*
X149059999Y-95321179D01*
X149035695Y-95270712D01*
X149032855Y-95264365D01*
X149017708Y-95227800D01*
X148936004Y-95227800D01*
X148913219Y-95225689D01*
X148694613Y-95184825D01*
X148672604Y-95178563D01*
X148465228Y-95098225D01*
X148444745Y-95088025D01*
X148430500Y-95079204D01*
X148430500Y-96580500D01*
X147432500Y-96580500D01*
X147432500Y-95078500D01*
X145930500Y-95078500D01*
X145930500Y-96580500D01*
X144932500Y-96580500D01*
X144932500Y-95078500D01*
X143430500Y-95078500D01*
X143430500Y-96580500D01*
X141532356Y-96580500D01*
X141732166Y-96510584D01*
X141738793Y-96508472D01*
X141779242Y-96496819D01*
X141785979Y-96495081D01*
X141840589Y-96482618D01*
X141847409Y-96481262D01*
X141888893Y-96474214D01*
X141895780Y-96473242D01*
X142130692Y-96446775D01*
X142137621Y-96446190D01*
X142179639Y-96443830D01*
X142186593Y-96443635D01*
X142242607Y-96443635D01*
X142249561Y-96443830D01*
X142291579Y-96446190D01*
X142298508Y-96446775D01*
X142432500Y-96461871D01*
X142432500Y-95953009D01*
X142246981Y-95987689D01*
X142224196Y-95989800D01*
X142001804Y-95989800D01*
X141979019Y-95987689D01*
X141760413Y-95946825D01*
X141738404Y-95940563D01*
X141531028Y-95860225D01*
X141510544Y-95850025D01*
X141321462Y-95732950D01*
X141303202Y-95719160D01*
X141138852Y-95569335D01*
X141123436Y-95552425D01*
X140989414Y-95374952D01*
X140977368Y-95355497D01*
X140930500Y-95261373D01*
X140930500Y-96580500D01*
X139932500Y-96580500D01*
X139932500Y-95078500D01*
X138910152Y-95078500D01*
X134932500Y-95078500D01*
X133430500Y-95078500D01*
X133430500Y-96580500D01*
X132432500Y-96580500D01*
X132432500Y-95078500D01*
X130930500Y-95078500D01*
X130930500Y-96580500D01*
X129932500Y-96580500D01*
X129932500Y-95078500D01*
X128430500Y-95078500D01*
X128430500Y-96580500D01*
X126318500Y-96580500D01*
X126318499Y-95540128D01*
X126312091Y-95480517D01*
X126270299Y-95368468D01*
X126261797Y-95345671D01*
X126261793Y-95345664D01*
X126175547Y-95230455D01*
X126175544Y-95230452D01*
X126060335Y-95144206D01*
X126060328Y-95144202D01*
X125925482Y-95093908D01*
X125925483Y-95093908D01*
X125865883Y-95087501D01*
X125865881Y-95087500D01*
X125865873Y-95087500D01*
X125865864Y-95087500D01*
X124070129Y-95087500D01*
X124070123Y-95087501D01*
X124010516Y-95093908D01*
X123875671Y-95144202D01*
X123875664Y-95144206D01*
X123760455Y-95230452D01*
X123760452Y-95230455D01*
X123674206Y-95345664D01*
X123674202Y-95345671D01*
X123623908Y-95480517D01*
X123618036Y-95535138D01*
X123617501Y-95540123D01*
X123617500Y-95540135D01*
X123182500Y-95540135D01*
X123182500Y-94513396D01*
X149867235Y-94513396D01*
X149867235Y-94513403D01*
X149887430Y-94692649D01*
X149887431Y-94692654D01*
X149947011Y-94862923D01*
X150042984Y-95015662D01*
X150170538Y-95143216D01*
X150243879Y-95189299D01*
X150308050Y-95229621D01*
X150323278Y-95239189D01*
X150395227Y-95264365D01*
X150493545Y-95298768D01*
X150493550Y-95298769D01*
X150672796Y-95318965D01*
X150672800Y-95318965D01*
X150672804Y-95318965D01*
X150852049Y-95298769D01*
X150852052Y-95298768D01*
X150852055Y-95298768D01*
X151022322Y-95239189D01*
X151175062Y-95143216D01*
X151302616Y-95015662D01*
X151398589Y-94862922D01*
X151458168Y-94692655D01*
X151466574Y-94618052D01*
X151478365Y-94513403D01*
X151478365Y-94513396D01*
X151458169Y-94334150D01*
X151458168Y-94334145D01*
X151398588Y-94163876D01*
X151319239Y-94037593D01*
X151302616Y-94011138D01*
X151175062Y-93883584D01*
X151054488Y-93807822D01*
X151022323Y-93787611D01*
X150852054Y-93728031D01*
X150852049Y-93728030D01*
X150672804Y-93707835D01*
X150672796Y-93707835D01*
X150493550Y-93728030D01*
X150493545Y-93728031D01*
X150323276Y-93787611D01*
X150170537Y-93883584D01*
X150042984Y-94011137D01*
X149947011Y-94163876D01*
X149887431Y-94334145D01*
X149887430Y-94334150D01*
X149867235Y-94513396D01*
X123182500Y-94513396D01*
X123182500Y-94080500D01*
X124180500Y-94080500D01*
X124932500Y-94080500D01*
X125930500Y-94080500D01*
X127432500Y-94080500D01*
X127432500Y-93072000D01*
X125930500Y-93072000D01*
X125930500Y-94080500D01*
X124932500Y-94080500D01*
X124932500Y-93072000D01*
X124180500Y-93072000D01*
X124180500Y-94080500D01*
X123182500Y-94080500D01*
X123182500Y-92919876D01*
X128430500Y-92919876D01*
X128430500Y-94080500D01*
X129932500Y-94080500D01*
X130930500Y-94080500D01*
X132432500Y-94080500D01*
X133430500Y-94080500D01*
X134932500Y-94080500D01*
X135930500Y-94080500D01*
X137432500Y-94080500D01*
X138430500Y-94080500D01*
X139932500Y-94080500D01*
X143430500Y-94080500D01*
X144932500Y-94080500D01*
X145930500Y-94080500D01*
X147432500Y-94080500D01*
X147432500Y-92732555D01*
X150930500Y-92732555D01*
X150991620Y-92739442D01*
X150998507Y-92740414D01*
X151039991Y-92747462D01*
X151046811Y-92748818D01*
X151101421Y-92761281D01*
X151108158Y-92763019D01*
X151148607Y-92774672D01*
X151155234Y-92776784D01*
X151378378Y-92854865D01*
X151384879Y-92857347D01*
X151423765Y-92873455D01*
X151430112Y-92876295D01*
X151480579Y-92900599D01*
X151486759Y-92903792D01*
X151523590Y-92924148D01*
X151529580Y-92927681D01*
X151729748Y-93053456D01*
X151735533Y-93057322D01*
X151769861Y-93081680D01*
X151775418Y-93085862D01*
X151819210Y-93120786D01*
X151824524Y-93125273D01*
X151855900Y-93153313D01*
X151860953Y-93158091D01*
X152028109Y-93325247D01*
X152032887Y-93330300D01*
X152060927Y-93361676D01*
X152065414Y-93366990D01*
X152100338Y-93410782D01*
X152104520Y-93416339D01*
X152128878Y-93450667D01*
X152132744Y-93456452D01*
X152258519Y-93656620D01*
X152262052Y-93662610D01*
X152282408Y-93699441D01*
X152285601Y-93705621D01*
X152309905Y-93756088D01*
X152312745Y-93762435D01*
X152328853Y-93801321D01*
X152331335Y-93807822D01*
X152409416Y-94030966D01*
X152411528Y-94037593D01*
X152423181Y-94078042D01*
X152423815Y-94080500D01*
X152432500Y-94080500D01*
X153430500Y-94080500D01*
X154020601Y-94080500D01*
X154150794Y-93973653D01*
X154155593Y-93969908D01*
X154185176Y-93947968D01*
X154190154Y-93944462D01*
X154230904Y-93917235D01*
X154236045Y-93913980D01*
X154267622Y-93895054D01*
X154272916Y-93892055D01*
X154481261Y-93780693D01*
X154486698Y-93777956D01*
X154519995Y-93762208D01*
X154525562Y-93759741D01*
X154570837Y-93740989D01*
X154576512Y-93738799D01*
X154611171Y-93726398D01*
X154616949Y-93724490D01*
X154660700Y-93711218D01*
X155930500Y-93711218D01*
X155974251Y-93724490D01*
X155980029Y-93726398D01*
X156014688Y-93738799D01*
X156020363Y-93740989D01*
X156065638Y-93759741D01*
X156071205Y-93762208D01*
X156104502Y-93777956D01*
X156109939Y-93780693D01*
X156318284Y-93892055D01*
X156323578Y-93895054D01*
X156355155Y-93913980D01*
X156360296Y-93917235D01*
X156401046Y-93944462D01*
X156406024Y-93947968D01*
X156435607Y-93969908D01*
X156440406Y-93973653D01*
X156570599Y-94080500D01*
X157432500Y-94080500D01*
X158430500Y-94080500D01*
X159932500Y-94080500D01*
X160930500Y-94080500D01*
X162432500Y-94080500D01*
X163430500Y-94080500D01*
X164932500Y-94080500D01*
X165930500Y-94080500D01*
X167432500Y-94080500D01*
X168430500Y-94080500D01*
X169932500Y-94080500D01*
X170930500Y-94080500D01*
X171983500Y-94080500D01*
X171983500Y-93072000D01*
X170930500Y-93072000D01*
X170930500Y-94080500D01*
X169932500Y-94080500D01*
X169932500Y-93072000D01*
X168430500Y-93072000D01*
X168430500Y-94080500D01*
X167432500Y-94080500D01*
X167432500Y-92618876D01*
X167392124Y-92578500D01*
X165930500Y-92578500D01*
X165930500Y-94080500D01*
X164932500Y-94080500D01*
X164932500Y-92578500D01*
X163430500Y-92578500D01*
X163430500Y-94080500D01*
X162432500Y-94080500D01*
X162432500Y-92578500D01*
X160930500Y-92578500D01*
X160930500Y-94080500D01*
X159932500Y-94080500D01*
X159932500Y-92578500D01*
X158430500Y-92578500D01*
X158430500Y-94080500D01*
X157432500Y-94080500D01*
X157432500Y-92578500D01*
X155930500Y-92578500D01*
X155930500Y-93711218D01*
X154660700Y-93711218D01*
X154843008Y-93655915D01*
X154848874Y-93654291D01*
X154884588Y-93645345D01*
X154890526Y-93644012D01*
X154932500Y-93635662D01*
X154932500Y-92578500D01*
X153430500Y-92578500D01*
X153430500Y-94080500D01*
X152432500Y-94080500D01*
X152432500Y-92578500D01*
X150930500Y-92578500D01*
X150930500Y-92732555D01*
X147432500Y-92732555D01*
X147432500Y-92578500D01*
X145930500Y-92578500D01*
X145930500Y-94080500D01*
X144932500Y-94080500D01*
X144932500Y-92578500D01*
X143430500Y-92578500D01*
X143430500Y-94080500D01*
X139932500Y-94080500D01*
X139932500Y-94070226D01*
X140930500Y-94070226D01*
X140977368Y-93976103D01*
X140989414Y-93956648D01*
X141123436Y-93779175D01*
X141138852Y-93762265D01*
X141303202Y-93612440D01*
X141321462Y-93598650D01*
X141510544Y-93481575D01*
X141531028Y-93471375D01*
X141738404Y-93391037D01*
X141760413Y-93384775D01*
X141979019Y-93343911D01*
X142001804Y-93341800D01*
X142224196Y-93341800D01*
X142246981Y-93343911D01*
X142432500Y-93378590D01*
X142432500Y-92578500D01*
X140930500Y-92578500D01*
X140930500Y-94070226D01*
X139932500Y-94070226D01*
X139932500Y-92578500D01*
X138430500Y-92578500D01*
X138430500Y-94080500D01*
X137432500Y-94080500D01*
X137432500Y-92578500D01*
X135930500Y-92578500D01*
X135930500Y-94080500D01*
X134932500Y-94080500D01*
X134932500Y-92578500D01*
X133430500Y-92578500D01*
X133430500Y-94080500D01*
X132432500Y-94080500D01*
X132432500Y-92578500D01*
X130930500Y-92578500D01*
X130930500Y-94080500D01*
X129932500Y-94080500D01*
X129932500Y-92578500D01*
X128771876Y-92578500D01*
X128430500Y-92919876D01*
X123182500Y-92919876D01*
X123182500Y-92072000D01*
X123202185Y-92004961D01*
X123254989Y-91959206D01*
X123306500Y-91948000D01*
X127812800Y-91948000D01*
X127812800Y-91580500D01*
X128936800Y-91580500D01*
X129863002Y-91580500D01*
X129818823Y-91560323D01*
X129810909Y-91556362D01*
X129748319Y-91522185D01*
X129740705Y-91517667D01*
X129695638Y-91488703D01*
X129688368Y-91483655D01*
X129516184Y-91354757D01*
X129509293Y-91349204D01*
X129468808Y-91314124D01*
X129462329Y-91308092D01*
X129411908Y-91257671D01*
X129405876Y-91251192D01*
X129370796Y-91210707D01*
X129365243Y-91203816D01*
X129236345Y-91031632D01*
X129231297Y-91024362D01*
X129202333Y-90979295D01*
X129197815Y-90971681D01*
X129163638Y-90909091D01*
X129159677Y-90901177D01*
X129137419Y-90852441D01*
X129134030Y-90844261D01*
X129060421Y-90646904D01*
X129057942Y-90639564D01*
X129044332Y-90594695D01*
X129042315Y-90587212D01*
X129027972Y-90526501D01*
X129026428Y-90518916D01*
X129018522Y-90472738D01*
X129017455Y-90465069D01*
X129006289Y-90361217D01*
X129005977Y-90357905D01*
X129004364Y-90337856D01*
X129004142Y-90334542D01*
X129002713Y-90307855D01*
X129002580Y-90304539D01*
X129002044Y-90284491D01*
X129002000Y-90281177D01*
X129002000Y-90078500D01*
X128936800Y-90078500D01*
X128936800Y-91580500D01*
X127812800Y-91580500D01*
X127812800Y-88472155D01*
X130000000Y-88472155D01*
X130000000Y-89120000D01*
X130916988Y-89120000D01*
X130884075Y-89177007D01*
X130850000Y-89304174D01*
X130850000Y-89435826D01*
X130884075Y-89562993D01*
X130916988Y-89620000D01*
X130000000Y-89620000D01*
X130000000Y-90267844D01*
X130006401Y-90327372D01*
X130006403Y-90327379D01*
X130056645Y-90462086D01*
X130056649Y-90462093D01*
X130142809Y-90577187D01*
X130142812Y-90577190D01*
X130257906Y-90663350D01*
X130257913Y-90663354D01*
X130392620Y-90713596D01*
X130392627Y-90713598D01*
X130452155Y-90719999D01*
X130452172Y-90720000D01*
X131100000Y-90720000D01*
X131100000Y-89803012D01*
X131157007Y-89835925D01*
X131284174Y-89870000D01*
X131415826Y-89870000D01*
X131542993Y-89835925D01*
X131600000Y-89803012D01*
X131600000Y-90720000D01*
X132247828Y-90720000D01*
X132247844Y-90719999D01*
X132307372Y-90713598D01*
X132307379Y-90713596D01*
X132442086Y-90663354D01*
X132442093Y-90663350D01*
X132557187Y-90577190D01*
X132557190Y-90577187D01*
X132643350Y-90462093D01*
X132643354Y-90462086D01*
X132692422Y-90330529D01*
X132734293Y-90274595D01*
X132799757Y-90250178D01*
X132868030Y-90265030D01*
X132896285Y-90286181D01*
X133018599Y-90408495D01*
X133095135Y-90462086D01*
X133212165Y-90544032D01*
X133212167Y-90544033D01*
X133212170Y-90544035D01*
X133426337Y-90643903D01*
X133654592Y-90705063D01*
X133825319Y-90720000D01*
X133889999Y-90725659D01*
X133890000Y-90725659D01*
X133890001Y-90725659D01*
X133954681Y-90720000D01*
X134125408Y-90705063D01*
X134353663Y-90643903D01*
X134567830Y-90544035D01*
X134761401Y-90408495D01*
X134928495Y-90241401D01*
X135058425Y-90055842D01*
X135113002Y-90012217D01*
X135182500Y-90005023D01*
X135244855Y-90036546D01*
X135261575Y-90055842D01*
X135391500Y-90241395D01*
X135391505Y-90241401D01*
X135558599Y-90408495D01*
X135635135Y-90462086D01*
X135752165Y-90544032D01*
X135752167Y-90544033D01*
X135752170Y-90544035D01*
X135966337Y-90643903D01*
X136194592Y-90705063D01*
X136365319Y-90720000D01*
X136429999Y-90725659D01*
X136430000Y-90725659D01*
X136430001Y-90725659D01*
X136494681Y-90720000D01*
X136665408Y-90705063D01*
X136893663Y-90643903D01*
X137107830Y-90544035D01*
X137301401Y-90408495D01*
X137468495Y-90241401D01*
X137598425Y-90055842D01*
X137653002Y-90012217D01*
X137722500Y-90005023D01*
X137784855Y-90036546D01*
X137801575Y-90055842D01*
X137931500Y-90241395D01*
X137931505Y-90241401D01*
X138098599Y-90408495D01*
X138175135Y-90462086D01*
X138292165Y-90544032D01*
X138292167Y-90544033D01*
X138292170Y-90544035D01*
X138506337Y-90643903D01*
X138734592Y-90705063D01*
X138905319Y-90720000D01*
X138969999Y-90725659D01*
X138970000Y-90725659D01*
X138970001Y-90725659D01*
X139034681Y-90720000D01*
X139205408Y-90705063D01*
X139356416Y-90664601D01*
X140930500Y-90664601D01*
X140930500Y-91580500D01*
X142432500Y-91580500D01*
X143430500Y-91580500D01*
X144932500Y-91580500D01*
X145930500Y-91580500D01*
X147432500Y-91580500D01*
X148430500Y-91580500D01*
X149932500Y-91580500D01*
X150930500Y-91580500D01*
X152432500Y-91580500D01*
X153430500Y-91580500D01*
X154932500Y-91580500D01*
X155930500Y-91580500D01*
X156755002Y-91580500D01*
X156710823Y-91560323D01*
X156702909Y-91556362D01*
X156640319Y-91522185D01*
X156632705Y-91517667D01*
X156587638Y-91488703D01*
X156580368Y-91483655D01*
X156408184Y-91354757D01*
X156401293Y-91349204D01*
X156360808Y-91314124D01*
X156354329Y-91308092D01*
X156303908Y-91257671D01*
X156297876Y-91251192D01*
X156262796Y-91210707D01*
X156257243Y-91203816D01*
X156128345Y-91031632D01*
X156123297Y-91024362D01*
X156094333Y-90979295D01*
X156089815Y-90971681D01*
X156055638Y-90909091D01*
X156051677Y-90901177D01*
X156029419Y-90852441D01*
X156026030Y-90844261D01*
X155952421Y-90646904D01*
X155949942Y-90639564D01*
X155936332Y-90594695D01*
X155934315Y-90587212D01*
X155930500Y-90571063D01*
X155930500Y-91580500D01*
X154932500Y-91580500D01*
X154932500Y-90078500D01*
X153430500Y-90078500D01*
X153430500Y-91580500D01*
X152432500Y-91580500D01*
X152432500Y-90078500D01*
X150930500Y-90078500D01*
X150930500Y-91580500D01*
X149932500Y-91580500D01*
X149932500Y-90078500D01*
X148430500Y-90078500D01*
X148430500Y-91580500D01*
X147432500Y-91580500D01*
X147432500Y-90078500D01*
X145930500Y-90078500D01*
X145930500Y-91580500D01*
X144932500Y-91580500D01*
X144932500Y-90078500D01*
X143430500Y-90078500D01*
X143430500Y-91580500D01*
X142432500Y-91580500D01*
X142432500Y-90078500D01*
X141211505Y-90078500D01*
X141202259Y-90113008D01*
X141200744Y-90118205D01*
X141190895Y-90149440D01*
X141189154Y-90154568D01*
X141174253Y-90195500D01*
X141172295Y-90200535D01*
X141159777Y-90230756D01*
X141157598Y-90235708D01*
X141039328Y-90489337D01*
X141036936Y-90494188D01*
X141021829Y-90523209D01*
X141019229Y-90527949D01*
X140997451Y-90565673D01*
X140994642Y-90570302D01*
X140977050Y-90597916D01*
X140974044Y-90602415D01*
X140930500Y-90664601D01*
X139356416Y-90664601D01*
X139433663Y-90643903D01*
X139647830Y-90544035D01*
X139841401Y-90408495D01*
X140008495Y-90241401D01*
X140144035Y-90047830D01*
X140243903Y-89833663D01*
X140305063Y-89605408D01*
X140325659Y-89370000D01*
X140305063Y-89134592D01*
X140252884Y-88939854D01*
X140243905Y-88906344D01*
X140243904Y-88906343D01*
X140243903Y-88906337D01*
X140144035Y-88692171D01*
X140138425Y-88684158D01*
X140008494Y-88498597D01*
X139841402Y-88331506D01*
X139841395Y-88331501D01*
X139837109Y-88328500D01*
X141075624Y-88328500D01*
X141157598Y-88504292D01*
X141159777Y-88509244D01*
X141172295Y-88539465D01*
X141174253Y-88544500D01*
X141189154Y-88585432D01*
X141190895Y-88590560D01*
X141200744Y-88621795D01*
X141202259Y-88626992D01*
X141274695Y-88897334D01*
X141275981Y-88902588D01*
X141283066Y-88934546D01*
X141284121Y-88939854D01*
X141291684Y-88982749D01*
X141292507Y-88988096D01*
X141296778Y-89020539D01*
X141297367Y-89025915D01*
X141302143Y-89080500D01*
X142432500Y-89080500D01*
X143430500Y-89080500D01*
X144932500Y-89080500D01*
X145930500Y-89080500D01*
X147432500Y-89080500D01*
X148430500Y-89080500D01*
X149932500Y-89080500D01*
X150930500Y-89080500D01*
X152432500Y-89080500D01*
X153430500Y-89080500D01*
X154932500Y-89080500D01*
X154932500Y-88472155D01*
X156892000Y-88472155D01*
X156892000Y-89120000D01*
X157808988Y-89120000D01*
X157776075Y-89177007D01*
X157742000Y-89304174D01*
X157742000Y-89435826D01*
X157776075Y-89562993D01*
X157808988Y-89620000D01*
X156892000Y-89620000D01*
X156892000Y-90267844D01*
X156898401Y-90327372D01*
X156898403Y-90327379D01*
X156948645Y-90462086D01*
X156948649Y-90462093D01*
X157034809Y-90577187D01*
X157034812Y-90577190D01*
X157149906Y-90663350D01*
X157149913Y-90663354D01*
X157284620Y-90713596D01*
X157284627Y-90713598D01*
X157344155Y-90719999D01*
X157344172Y-90720000D01*
X157992000Y-90720000D01*
X157992000Y-89803012D01*
X158049007Y-89835925D01*
X158176174Y-89870000D01*
X158307826Y-89870000D01*
X158434993Y-89835925D01*
X158492000Y-89803012D01*
X158492000Y-90720000D01*
X159139828Y-90720000D01*
X159139844Y-90719999D01*
X159199372Y-90713598D01*
X159199379Y-90713596D01*
X159334086Y-90663354D01*
X159334093Y-90663350D01*
X159449187Y-90577190D01*
X159449190Y-90577187D01*
X159535350Y-90462093D01*
X159535354Y-90462086D01*
X159584422Y-90330529D01*
X159626293Y-90274595D01*
X159691757Y-90250178D01*
X159760030Y-90265030D01*
X159788285Y-90286181D01*
X159910599Y-90408495D01*
X159987135Y-90462086D01*
X160104165Y-90544032D01*
X160104167Y-90544033D01*
X160104170Y-90544035D01*
X160318337Y-90643903D01*
X160546592Y-90705063D01*
X160717319Y-90720000D01*
X160781999Y-90725659D01*
X160782000Y-90725659D01*
X160782001Y-90725659D01*
X160846681Y-90720000D01*
X161017408Y-90705063D01*
X161245663Y-90643903D01*
X161459830Y-90544035D01*
X161653401Y-90408495D01*
X161820495Y-90241401D01*
X161950425Y-90055842D01*
X162005002Y-90012217D01*
X162074500Y-90005023D01*
X162136855Y-90036546D01*
X162153575Y-90055842D01*
X162283500Y-90241395D01*
X162283505Y-90241401D01*
X162450599Y-90408495D01*
X162527135Y-90462086D01*
X162644165Y-90544032D01*
X162644167Y-90544033D01*
X162644170Y-90544035D01*
X162858337Y-90643903D01*
X163086592Y-90705063D01*
X163257319Y-90720000D01*
X163321999Y-90725659D01*
X163322000Y-90725659D01*
X163322001Y-90725659D01*
X163386681Y-90720000D01*
X163557408Y-90705063D01*
X163785663Y-90643903D01*
X163999830Y-90544035D01*
X164193401Y-90408495D01*
X164360495Y-90241401D01*
X164490425Y-90055842D01*
X164545002Y-90012217D01*
X164614500Y-90005023D01*
X164676855Y-90036546D01*
X164693575Y-90055842D01*
X164823500Y-90241395D01*
X164823505Y-90241401D01*
X164990599Y-90408495D01*
X165067135Y-90462086D01*
X165184165Y-90544032D01*
X165184167Y-90544033D01*
X165184170Y-90544035D01*
X165398337Y-90643903D01*
X165626592Y-90705063D01*
X165797319Y-90720000D01*
X165861999Y-90725659D01*
X165862000Y-90725659D01*
X165862001Y-90725659D01*
X165926681Y-90720000D01*
X166097408Y-90705063D01*
X166325663Y-90643903D01*
X166539830Y-90544035D01*
X166733401Y-90408495D01*
X166900495Y-90241401D01*
X167036035Y-90047830D01*
X167135903Y-89833663D01*
X167197063Y-89605408D01*
X167217659Y-89370000D01*
X167197063Y-89134592D01*
X167144884Y-88939854D01*
X167135905Y-88906344D01*
X167135904Y-88906343D01*
X167135903Y-88906337D01*
X167036035Y-88692171D01*
X167030425Y-88684158D01*
X166900494Y-88498597D01*
X166733402Y-88331506D01*
X166733395Y-88331501D01*
X166539834Y-88195967D01*
X166539830Y-88195965D01*
X166539828Y-88195964D01*
X166325663Y-88096097D01*
X166325659Y-88096096D01*
X166325655Y-88096094D01*
X166097413Y-88034938D01*
X166097403Y-88034936D01*
X165862001Y-88014341D01*
X165861999Y-88014341D01*
X165626596Y-88034936D01*
X165626586Y-88034938D01*
X165398344Y-88096094D01*
X165398335Y-88096098D01*
X165184171Y-88195964D01*
X165184169Y-88195965D01*
X164990597Y-88331505D01*
X164823505Y-88498597D01*
X164693575Y-88684158D01*
X164638998Y-88727783D01*
X164569500Y-88734977D01*
X164507145Y-88703454D01*
X164490425Y-88684158D01*
X164360494Y-88498597D01*
X164193402Y-88331506D01*
X164193395Y-88331501D01*
X163999834Y-88195967D01*
X163999830Y-88195965D01*
X163999828Y-88195964D01*
X163785663Y-88096097D01*
X163785659Y-88096096D01*
X163785655Y-88096094D01*
X163557413Y-88034938D01*
X163557403Y-88034936D01*
X163322001Y-88014341D01*
X163321999Y-88014341D01*
X163086596Y-88034936D01*
X163086586Y-88034938D01*
X162858344Y-88096094D01*
X162858335Y-88096098D01*
X162644171Y-88195964D01*
X162644169Y-88195965D01*
X162450597Y-88331505D01*
X162283505Y-88498597D01*
X162153575Y-88684158D01*
X162098998Y-88727783D01*
X162029500Y-88734977D01*
X161967145Y-88703454D01*
X161950425Y-88684158D01*
X161820494Y-88498597D01*
X161653402Y-88331506D01*
X161653395Y-88331501D01*
X161459834Y-88195967D01*
X161459830Y-88195965D01*
X161459828Y-88195964D01*
X161245663Y-88096097D01*
X161245659Y-88096096D01*
X161245655Y-88096094D01*
X161017413Y-88034938D01*
X161017403Y-88034936D01*
X160782001Y-88014341D01*
X160781999Y-88014341D01*
X160546596Y-88034936D01*
X160546586Y-88034938D01*
X160318344Y-88096094D01*
X160318335Y-88096098D01*
X160104171Y-88195964D01*
X160104169Y-88195965D01*
X159910600Y-88331503D01*
X159788284Y-88453819D01*
X159726961Y-88487303D01*
X159657269Y-88482319D01*
X159601336Y-88440447D01*
X159584421Y-88409470D01*
X159535354Y-88277913D01*
X159535350Y-88277906D01*
X159449190Y-88162812D01*
X159449187Y-88162809D01*
X159334093Y-88076649D01*
X159334086Y-88076645D01*
X159199379Y-88026403D01*
X159199372Y-88026401D01*
X159139844Y-88020000D01*
X158492000Y-88020000D01*
X158492000Y-88936988D01*
X158434993Y-88904075D01*
X158307826Y-88870000D01*
X158176174Y-88870000D01*
X158049007Y-88904075D01*
X157992000Y-88936988D01*
X157992000Y-88020000D01*
X157344155Y-88020000D01*
X157284627Y-88026401D01*
X157284620Y-88026403D01*
X157149913Y-88076645D01*
X157149906Y-88076649D01*
X157034812Y-88162809D01*
X157034809Y-88162812D01*
X156948649Y-88277906D01*
X156948645Y-88277913D01*
X156898403Y-88412620D01*
X156898401Y-88412627D01*
X156892000Y-88472155D01*
X154932500Y-88472155D01*
X154932500Y-88328500D01*
X153430500Y-88328500D01*
X153430500Y-89080500D01*
X152432500Y-89080500D01*
X152432500Y-88328500D01*
X150930500Y-88328500D01*
X150930500Y-89080500D01*
X149932500Y-89080500D01*
X149932500Y-88328500D01*
X148430500Y-88328500D01*
X148430500Y-89080500D01*
X147432500Y-89080500D01*
X147432500Y-88328500D01*
X145930500Y-88328500D01*
X145930500Y-89080500D01*
X144932500Y-89080500D01*
X144932500Y-88328500D01*
X143430500Y-88328500D01*
X143430500Y-89080500D01*
X142432500Y-89080500D01*
X142432500Y-88328500D01*
X141075624Y-88328500D01*
X139837109Y-88328500D01*
X139647834Y-88195967D01*
X139647830Y-88195965D01*
X139647828Y-88195964D01*
X139433663Y-88096097D01*
X139433659Y-88096096D01*
X139433655Y-88096094D01*
X139205413Y-88034938D01*
X139205403Y-88034936D01*
X138970001Y-88014341D01*
X138969999Y-88014341D01*
X138734596Y-88034936D01*
X138734586Y-88034938D01*
X138506344Y-88096094D01*
X138506335Y-88096098D01*
X138292171Y-88195964D01*
X138292169Y-88195965D01*
X138098597Y-88331505D01*
X137931505Y-88498597D01*
X137801575Y-88684158D01*
X137746998Y-88727783D01*
X137677500Y-88734977D01*
X137615145Y-88703454D01*
X137598425Y-88684158D01*
X137468494Y-88498597D01*
X137301402Y-88331506D01*
X137301395Y-88331501D01*
X137107834Y-88195967D01*
X137107830Y-88195965D01*
X137107828Y-88195964D01*
X136893663Y-88096097D01*
X136893659Y-88096096D01*
X136893655Y-88096094D01*
X136665413Y-88034938D01*
X136665403Y-88034936D01*
X136430001Y-88014341D01*
X136429999Y-88014341D01*
X136194596Y-88034936D01*
X136194586Y-88034938D01*
X135966344Y-88096094D01*
X135966335Y-88096098D01*
X135752171Y-88195964D01*
X135752169Y-88195965D01*
X135558597Y-88331505D01*
X135391505Y-88498597D01*
X135261575Y-88684158D01*
X135206998Y-88727783D01*
X135137500Y-88734977D01*
X135075145Y-88703454D01*
X135058425Y-88684158D01*
X134928494Y-88498597D01*
X134761402Y-88331506D01*
X134761395Y-88331501D01*
X134567834Y-88195967D01*
X134567830Y-88195965D01*
X134567828Y-88195964D01*
X134353663Y-88096097D01*
X134353659Y-88096096D01*
X134353655Y-88096094D01*
X134125413Y-88034938D01*
X134125403Y-88034936D01*
X133890001Y-88014341D01*
X133889999Y-88014341D01*
X133654596Y-88034936D01*
X133654586Y-88034938D01*
X133426344Y-88096094D01*
X133426335Y-88096098D01*
X133212171Y-88195964D01*
X133212169Y-88195965D01*
X133018600Y-88331503D01*
X132896284Y-88453819D01*
X132834961Y-88487303D01*
X132765269Y-88482319D01*
X132709336Y-88440447D01*
X132692421Y-88409470D01*
X132643354Y-88277913D01*
X132643350Y-88277906D01*
X132557190Y-88162812D01*
X132557187Y-88162809D01*
X132442093Y-88076649D01*
X132442086Y-88076645D01*
X132307379Y-88026403D01*
X132307372Y-88026401D01*
X132247844Y-88020000D01*
X131600000Y-88020000D01*
X131600000Y-88936988D01*
X131542993Y-88904075D01*
X131415826Y-88870000D01*
X131284174Y-88870000D01*
X131157007Y-88904075D01*
X131100000Y-88936988D01*
X131100000Y-88020000D01*
X130452155Y-88020000D01*
X130392627Y-88026401D01*
X130392620Y-88026403D01*
X130257913Y-88076645D01*
X130257906Y-88076649D01*
X130142812Y-88162809D01*
X130142809Y-88162812D01*
X130056649Y-88277906D01*
X130056645Y-88277913D01*
X130006403Y-88412620D01*
X130006401Y-88412627D01*
X130000000Y-88472155D01*
X127812800Y-88472155D01*
X127812800Y-87454500D01*
X127832485Y-87387461D01*
X127885289Y-87341706D01*
X127936800Y-87330500D01*
X168227200Y-87330500D01*
X168294239Y-87350185D01*
G37*
%TD.AperFunction*%
%TD*%
M02*
