%TF.GenerationSoftware,KiCad,Pcbnew,8.0.8*%
%TF.CreationDate,2025-02-04T21:51:42-04:00*%
%TF.ProjectId,ATMega328P-512K-Datalogger-4L,41544d65-6761-4333-9238-502d3531324b,1*%
%TF.SameCoordinates,Original*%
%TF.FileFunction,Copper,L3,Inr*%
%TF.FilePolarity,Positive*%
%FSLAX46Y46*%
G04 Gerber Fmt 4.6, Leading zero omitted, Abs format (unit mm)*
G04 Created by KiCad (PCBNEW 8.0.8) date 2025-02-04 21:51:42*
%MOMM*%
%LPD*%
G01*
G04 APERTURE LIST*
%TA.AperFunction,ComponentPad*%
%ADD10R,1.700000X1.700000*%
%TD*%
%TA.AperFunction,ComponentPad*%
%ADD11O,1.700000X1.700000*%
%TD*%
%TA.AperFunction,ViaPad*%
%ADD12C,0.600000*%
%TD*%
%TA.AperFunction,ViaPad*%
%ADD13C,0.900000*%
%TD*%
%TA.AperFunction,Conductor*%
%ADD14C,0.200000*%
%TD*%
G04 APERTURE END LIST*
D10*
%TO.N,/MISO*%
%TO.C,ICSP*%
X168402000Y-99530000D03*
D11*
%TO.N,/VCC*%
X170942000Y-99530000D03*
%TO.N,/SCK*%
X168402000Y-102070000D03*
%TO.N,/MOSI*%
X170942000Y-102070000D03*
%TO.N,/RESET*%
X168402000Y-104610000D03*
%TO.N,GND*%
X170942000Y-104610000D03*
%TD*%
D10*
%TO.N,/VCC*%
%TO.C,BT1*%
X124968000Y-96438000D03*
D11*
%TO.N,GND*%
X124968000Y-98978000D03*
%TD*%
D10*
%TO.N,GND*%
%TO.C,Serial*%
X158242000Y-89370000D03*
D11*
%TO.N,/VCC*%
X160782000Y-89370000D03*
%TO.N,/TX*%
X163322000Y-89370000D03*
%TO.N,/RX*%
X165862000Y-89370000D03*
%TD*%
D10*
%TO.N,/D2*%
%TO.C,GPIO*%
X139192000Y-114770000D03*
D11*
%TO.N,/D3*%
X141732000Y-114770000D03*
%TO.N,/D4*%
X144272000Y-114770000D03*
%TO.N,/D5*%
X146812000Y-114770000D03*
%TO.N,/D6*%
X149352000Y-114770000D03*
%TO.N,/D7*%
X151892000Y-114770000D03*
%TO.N,/D8*%
X154432000Y-114770000D03*
%TO.N,GND*%
X156972000Y-114770000D03*
%TO.N,/VCC*%
X159512000Y-114770000D03*
%TD*%
D10*
%TO.N,GND*%
%TO.C,I2C*%
X131350000Y-89370000D03*
D11*
%TO.N,/VCC*%
X133890000Y-89370000D03*
%TO.N,/SDA*%
X136430000Y-89370000D03*
%TO.N,/SCL*%
X138970000Y-89370000D03*
%TD*%
D12*
%TO.N,/RX*%
X147929600Y-99898200D03*
%TO.N,/TX*%
X146583400Y-99644200D03*
%TO.N,/SDA*%
X142214600Y-98247200D03*
%TO.N,Net-(U1-PB6)*%
X154178000Y-108915200D03*
%TO.N,Net-(U1-PB7)*%
X146888200Y-104927400D03*
%TO.N,Net-(U1-PB6)*%
X146913600Y-103225600D03*
%TO.N,Net-(U1-PB7)*%
X141249400Y-106908600D03*
%TO.N,Net-(U1-PB6)*%
X137312400Y-106807000D03*
%TO.N,/SDA*%
X152095200Y-96279800D03*
%TO.N,/MOSI*%
X155905200Y-108356400D03*
%TO.N,/MISO*%
X155473400Y-106299000D03*
%TO.N,/SDA*%
X162229800Y-102031800D03*
X131546600Y-113157000D03*
X136017000Y-105079800D03*
X135641429Y-97602215D03*
%TO.N,/SCL*%
X160934400Y-101955600D03*
X150672800Y-94513400D03*
X137388600Y-96037400D03*
X138201400Y-104518000D03*
D13*
%TO.N,/VCC*%
X155422600Y-104089200D03*
X150932614Y-112787400D03*
X155295600Y-95554800D03*
X139674600Y-99212400D03*
%TO.N,GND*%
X165227000Y-98475800D03*
X142113000Y-94665800D03*
X134747000Y-97155000D03*
X154254200Y-111912400D03*
X145516600Y-112293400D03*
X136347200Y-102793800D03*
X148691600Y-104521000D03*
X147447000Y-101295200D03*
X130048000Y-103860600D03*
X165328600Y-103733600D03*
X149047200Y-93903800D03*
D12*
%TO.N,/RESET*%
X148717000Y-107797600D03*
X149416600Y-102673409D03*
%TD*%
D14*
%TO.N,/RX*%
X166039800Y-89547800D02*
X165862000Y-89370000D01*
X161352301Y-104889200D02*
X166039800Y-100201701D01*
X155091229Y-104889200D02*
X161352301Y-104889200D01*
X150100229Y-99898200D02*
X155091229Y-104889200D01*
X147929600Y-99898200D02*
X150100229Y-99898200D01*
X166039800Y-100201701D02*
X166039800Y-89547800D01*
%TO.N,/TX*%
X154904800Y-103031800D02*
X162644015Y-103031800D01*
X163322000Y-102353815D02*
X163322000Y-89370000D01*
X151171200Y-99298200D02*
X154904800Y-103031800D01*
X162644015Y-103031800D02*
X163322000Y-102353815D01*
X146929400Y-99298200D02*
X151171200Y-99298200D01*
X146583400Y-99644200D02*
X146929400Y-99298200D01*
%TO.N,Net-(U1-PB6)*%
X149216329Y-101286529D02*
X148852671Y-101286529D01*
X154178000Y-108915200D02*
X154178000Y-106248200D01*
X154178000Y-106248200D02*
X149216329Y-101286529D01*
X148852671Y-101286529D02*
X146913600Y-103225600D01*
%TO.N,/RESET*%
X149491600Y-107023000D02*
X148717000Y-107797600D01*
X149416600Y-102673409D02*
X149491600Y-102748409D01*
X149491600Y-102748409D02*
X149491600Y-107023000D01*
%TO.N,/SDA*%
X150127800Y-98247200D02*
X152095200Y-96279800D01*
X142214600Y-98247200D02*
X150127800Y-98247200D01*
X141249400Y-97282000D02*
X142214600Y-98247200D01*
X139446346Y-88220000D02*
X141249400Y-90023054D01*
X137580000Y-88220000D02*
X139446346Y-88220000D01*
X136430000Y-89370000D02*
X137580000Y-88220000D01*
X141249400Y-90023054D02*
X141249400Y-97282000D01*
%TO.N,/RESET*%
X155270200Y-109093000D02*
X154482800Y-109880400D01*
X155270200Y-107871529D02*
X155270200Y-109093000D01*
X155820329Y-107321400D02*
X155270200Y-107871529D01*
X154482800Y-109880400D02*
X150799800Y-109880400D01*
X165690600Y-107321400D02*
X155820329Y-107321400D01*
X168402000Y-104610000D02*
X165690600Y-107321400D01*
X150799800Y-109880400D02*
X148717000Y-107797600D01*
%TO.N,/MOSI*%
X172142000Y-105107057D02*
X172142000Y-103270000D01*
X169527657Y-107721400D02*
X172142000Y-105107057D01*
X155905200Y-108356400D02*
X156540200Y-107721400D01*
X156540200Y-107721400D02*
X169527657Y-107721400D01*
X172142000Y-103270000D02*
X170942000Y-102070000D01*
%TO.N,Net-(U1-PB7)*%
X144907000Y-106908600D02*
X146888200Y-104927400D01*
X141249400Y-106908600D02*
X144907000Y-106908600D01*
%TO.N,Net-(U1-PB6)*%
X140893800Y-103225600D02*
X146913600Y-103225600D01*
X137312400Y-106807000D02*
X140893800Y-103225600D01*
%TO.N,/SCL*%
X161610600Y-102631800D02*
X160934400Y-101955600D01*
X162478329Y-102631800D02*
X161610600Y-102631800D01*
X162829800Y-102280329D02*
X162478329Y-102631800D01*
X154807529Y-93761000D02*
X162829800Y-101783271D01*
X151425200Y-93761000D02*
X154807529Y-93761000D01*
X162829800Y-101783271D02*
X162829800Y-102280329D01*
X150672800Y-94513400D02*
X151425200Y-93761000D01*
X137388600Y-96037400D02*
X137388600Y-103705200D01*
X137388600Y-103705200D02*
X138201400Y-104518000D01*
%TO.N,/SDA*%
X134289800Y-98953844D02*
X135641429Y-97602215D01*
X134289800Y-103352600D02*
X134289800Y-98953844D01*
X136017000Y-105079800D02*
X134289800Y-103352600D01*
X136017000Y-108686600D02*
X131546600Y-113157000D01*
X136017000Y-105079800D02*
X136017000Y-108686600D01*
X136423400Y-89376600D02*
X136430000Y-89370000D01*
X136423400Y-96820244D02*
X136423400Y-89376600D01*
X135641429Y-97602215D02*
X136423400Y-96820244D01*
%TO.N,/SCL*%
X138970000Y-94456000D02*
X137388600Y-96037400D01*
X138970000Y-89370000D02*
X138970000Y-94456000D01*
%TO.N,/MISO*%
X168638346Y-103460000D02*
X167577686Y-103460000D01*
X167577686Y-103460000D02*
X164738686Y-106299000D01*
X169792000Y-102306346D02*
X168638346Y-103460000D01*
X169792000Y-100920000D02*
X169792000Y-102306346D01*
X164738686Y-106299000D02*
X155473400Y-106299000D01*
X168402000Y-99530000D02*
X169792000Y-100920000D01*
%TO.N,/SDA*%
X152095200Y-96279800D02*
X152170200Y-96354800D01*
X152170200Y-96354800D02*
X156552800Y-96354800D01*
X156552800Y-96354800D02*
X162229800Y-102031800D01*
%TD*%
M02*
