%TF.GenerationSoftware,KiCad,Pcbnew,8.0.8*%
%TF.CreationDate,2025-02-04T21:51:42-04:00*%
%TF.ProjectId,ATMega328P-512K-Datalogger-4L,41544d65-6761-4333-9238-502d3531324b,1*%
%TF.SameCoordinates,Original*%
%TF.FileFunction,Copper,L1,Top*%
%TF.FilePolarity,Positive*%
%FSLAX46Y46*%
G04 Gerber Fmt 4.6, Leading zero omitted, Abs format (unit mm)*
G04 Created by KiCad (PCBNEW 8.0.8) date 2025-02-04 21:51:42*
%MOMM*%
%LPD*%
G01*
G04 APERTURE LIST*
G04 Aperture macros list*
%AMRoundRect*
0 Rectangle with rounded corners*
0 $1 Rounding radius*
0 $2 $3 $4 $5 $6 $7 $8 $9 X,Y pos of 4 corners*
0 Add a 4 corners polygon primitive as box body*
4,1,4,$2,$3,$4,$5,$6,$7,$8,$9,$2,$3,0*
0 Add four circle primitives for the rounded corners*
1,1,$1+$1,$2,$3*
1,1,$1+$1,$4,$5*
1,1,$1+$1,$6,$7*
1,1,$1+$1,$8,$9*
0 Add four rect primitives between the rounded corners*
20,1,$1+$1,$2,$3,$4,$5,0*
20,1,$1+$1,$4,$5,$6,$7,0*
20,1,$1+$1,$6,$7,$8,$9,0*
20,1,$1+$1,$8,$9,$2,$3,0*%
G04 Aperture macros list end*
%TA.AperFunction,SMDPad,CuDef*%
%ADD10RoundRect,0.150000X-0.650000X-0.150000X0.650000X-0.150000X0.650000X0.150000X-0.650000X0.150000X0*%
%TD*%
%TA.AperFunction,SMDPad,CuDef*%
%ADD11RoundRect,0.250000X0.450000X-0.262500X0.450000X0.262500X-0.450000X0.262500X-0.450000X-0.262500X0*%
%TD*%
%TA.AperFunction,SMDPad,CuDef*%
%ADD12RoundRect,0.250000X-0.262500X-0.450000X0.262500X-0.450000X0.262500X0.450000X-0.262500X0.450000X0*%
%TD*%
%TA.AperFunction,SMDPad,CuDef*%
%ADD13RoundRect,0.068750X-0.666250X-0.206250X0.666250X-0.206250X0.666250X0.206250X-0.666250X0.206250X0*%
%TD*%
%TA.AperFunction,SMDPad,CuDef*%
%ADD14RoundRect,0.068750X-0.206250X-0.666250X0.206250X-0.666250X0.206250X0.666250X-0.206250X0.666250X0*%
%TD*%
%TA.AperFunction,SMDPad,CuDef*%
%ADD15RoundRect,0.250000X0.475000X-0.250000X0.475000X0.250000X-0.475000X0.250000X-0.475000X-0.250000X0*%
%TD*%
%TA.AperFunction,SMDPad,CuDef*%
%ADD16RoundRect,0.250000X-0.475000X0.250000X-0.475000X-0.250000X0.475000X-0.250000X0.475000X0.250000X0*%
%TD*%
%TA.AperFunction,SMDPad,CuDef*%
%ADD17RoundRect,0.073750X0.221250X-0.911250X0.221250X0.911250X-0.221250X0.911250X-0.221250X-0.911250X0*%
%TD*%
%TA.AperFunction,SMDPad,CuDef*%
%ADD18R,3.500000X2.400000*%
%TD*%
%TA.AperFunction,ComponentPad*%
%ADD19R,1.700000X1.700000*%
%TD*%
%TA.AperFunction,ComponentPad*%
%ADD20O,1.700000X1.700000*%
%TD*%
%TA.AperFunction,SMDPad,CuDef*%
%ADD21RoundRect,0.243750X-0.456250X0.243750X-0.456250X-0.243750X0.456250X-0.243750X0.456250X0.243750X0*%
%TD*%
%TA.AperFunction,SMDPad,CuDef*%
%ADD22RoundRect,0.243750X-0.243750X-0.456250X0.243750X-0.456250X0.243750X0.456250X-0.243750X0.456250X0*%
%TD*%
%TA.AperFunction,SMDPad,CuDef*%
%ADD23RoundRect,0.250000X-0.450000X0.262500X-0.450000X-0.262500X0.450000X-0.262500X0.450000X0.262500X0*%
%TD*%
%TA.AperFunction,SMDPad,CuDef*%
%ADD24RoundRect,0.250000X-0.250000X-0.475000X0.250000X-0.475000X0.250000X0.475000X-0.250000X0.475000X0*%
%TD*%
%TA.AperFunction,ViaPad*%
%ADD25C,0.600000*%
%TD*%
%TA.AperFunction,ViaPad*%
%ADD26C,0.900000*%
%TD*%
%TA.AperFunction,Conductor*%
%ADD27C,0.200000*%
%TD*%
%TA.AperFunction,Conductor*%
%ADD28C,0.350000*%
%TD*%
G04 APERTURE END LIST*
D10*
%TO.P,U3,1,A0*%
%TO.N,/VCC*%
X132500000Y-93434000D03*
%TO.P,U3,2,A1*%
X132500000Y-94704000D03*
%TO.P,U3,3,A2*%
X132500000Y-95974000D03*
%TO.P,U3,4,GND*%
%TO.N,GND*%
X132500000Y-97244000D03*
%TO.P,U3,5,SDA*%
%TO.N,/SDA*%
X139700000Y-97244000D03*
%TO.P,U3,6,SCL*%
%TO.N,/SCL*%
X139700000Y-95974000D03*
%TO.P,U3,7,WP*%
%TO.N,GND*%
X139700000Y-94704000D03*
%TO.P,U3,8,VCC*%
%TO.N,/VCC*%
X139700000Y-93434000D03*
%TD*%
D11*
%TO.P,R1,1*%
%TO.N,GND*%
X149098000Y-92073500D03*
%TO.P,R1,2*%
%TO.N,Net-(D1-K)*%
X149098000Y-90248500D03*
%TD*%
D12*
%TO.P,R6,1*%
%TO.N,/VCC*%
X128223000Y-107286000D03*
%TO.P,R6,2*%
%TO.N,/SCL*%
X130048000Y-107286000D03*
%TD*%
D13*
%TO.P,U1,1,PD3*%
%TO.N,/D3*%
X144928000Y-99308000D03*
%TO.P,U1,2,PD4*%
%TO.N,/D4*%
X144928000Y-100108000D03*
%TO.P,U1,3,GND*%
%TO.N,GND*%
X144928000Y-100908000D03*
%TO.P,U1,4,VCC*%
%TO.N,unconnected-(U1-VCC-Pad4)*%
X144928000Y-101708000D03*
%TO.P,U1,5,GND*%
%TO.N,GND*%
X144928000Y-102508000D03*
%TO.P,U1,6,VCC*%
%TO.N,unconnected-(U1-VCC-Pad6)*%
X144928000Y-103308000D03*
%TO.P,U1,7,PB6*%
%TO.N,Net-(U1-PB6)*%
X144928000Y-104108000D03*
%TO.P,U1,8,PB7*%
%TO.N,Net-(U1-PB7)*%
X144928000Y-104908000D03*
D14*
%TO.P,U1,9,PD5*%
%TO.N,/D5*%
X146298000Y-106278000D03*
%TO.P,U1,10,PD6*%
%TO.N,/D6*%
X147098000Y-106278000D03*
%TO.P,U1,11,PD7*%
%TO.N,/D7*%
X147898000Y-106278000D03*
%TO.P,U1,12,PB0*%
%TO.N,/D8*%
X148698000Y-106278000D03*
%TO.P,U1,13,PB1*%
%TO.N,unconnected-(U1-PB1-Pad13)*%
X149498000Y-106278000D03*
%TO.P,U1,14,PB2*%
%TO.N,unconnected-(U1-PB2-Pad14)*%
X150298000Y-106278000D03*
%TO.P,U1,15,PB3*%
%TO.N,/MOSI*%
X151098000Y-106278000D03*
%TO.P,U1,16,PB4*%
%TO.N,/MISO*%
X151898000Y-106278000D03*
D13*
%TO.P,U1,17,PB5*%
%TO.N,/SCK*%
X153268000Y-104908000D03*
%TO.P,U1,18,AVCC*%
%TO.N,/VCC*%
X153268000Y-104108000D03*
%TO.P,U1,19,ADC6*%
%TO.N,unconnected-(U1-ADC6-Pad19)*%
X153268000Y-103308000D03*
%TO.P,U1,20,AREF*%
%TO.N,Net-(U1-AREF)*%
X153268000Y-102508000D03*
%TO.P,U1,21,GND*%
%TO.N,GND*%
X153268000Y-101708000D03*
%TO.P,U1,22,ADC7*%
%TO.N,unconnected-(U1-ADC7-Pad22)*%
X153268000Y-100908000D03*
%TO.P,U1,23,PC0*%
%TO.N,unconnected-(U1-PC0-Pad23)*%
X153268000Y-100108000D03*
%TO.P,U1,24,PC1*%
%TO.N,unconnected-(U1-PC1-Pad24)*%
X153268000Y-99308000D03*
D14*
%TO.P,U1,25,PC2*%
%TO.N,unconnected-(U1-PC2-Pad25)*%
X151898000Y-97938000D03*
%TO.P,U1,26,PC3*%
%TO.N,unconnected-(U1-PC3-Pad26)*%
X151098000Y-97938000D03*
%TO.P,U1,27,PC4*%
%TO.N,/SDA*%
X150298000Y-97938000D03*
%TO.P,U1,28,PC5*%
%TO.N,/SCL*%
X149498000Y-97938000D03*
%TO.P,U1,29,PC6/~{RESET}*%
%TO.N,/RESET*%
X148698000Y-97938000D03*
%TO.P,U1,30,PD0*%
%TO.N,/RX*%
X147898000Y-97938000D03*
%TO.P,U1,31,PD1*%
%TO.N,/TX*%
X147098000Y-97938000D03*
%TO.P,U1,32,PD2*%
%TO.N,/D2*%
X146298000Y-97938000D03*
%TD*%
D15*
%TO.P,C1,1*%
%TO.N,GND*%
X145288000Y-92148500D03*
%TO.P,C1,2*%
%TO.N,Net-(U1-AREF)*%
X145288000Y-90248500D03*
%TD*%
D10*
%TO.P,U4,1,A0*%
%TO.N,/VCC*%
X132500000Y-101308000D03*
%TO.P,U4,2,A1*%
X132500000Y-102578000D03*
%TO.P,U4,3,A2*%
%TO.N,GND*%
X132500000Y-103848000D03*
%TO.P,U4,4,GND*%
X132500000Y-105118000D03*
%TO.P,U4,5,SDA*%
%TO.N,/SDA*%
X139700000Y-105118000D03*
%TO.P,U4,6,SCL*%
%TO.N,/SCL*%
X139700000Y-103848000D03*
%TO.P,U4,7,WP*%
%TO.N,GND*%
X139700000Y-102578000D03*
%TO.P,U4,8,VCC*%
%TO.N,/VCC*%
X139700000Y-101308000D03*
%TD*%
D16*
%TO.P,C5,1*%
%TO.N,/VCC*%
X165354000Y-94450000D03*
%TO.P,C5,2*%
%TO.N,GND*%
X165354000Y-96350000D03*
%TD*%
D17*
%TO.P,U2,1,X1*%
%TO.N,Net-(U2-X1)*%
X159131000Y-104545000D03*
%TO.P,U2,2,X2*%
%TO.N,Net-(U2-X2)*%
X160401000Y-104545000D03*
%TO.P,U2,3,~{INTA}*%
%TO.N,Net-(U2-~{INTA})*%
X161671000Y-104545000D03*
%TO.P,U2,4,GND*%
%TO.N,GND*%
X162941000Y-104545000D03*
%TO.P,U2,5,SDA*%
%TO.N,/SDA*%
X162941000Y-99595000D03*
%TO.P,U2,6,SCL*%
%TO.N,/SCL*%
X161671000Y-99595000D03*
%TO.P,U2,7,SQW/~INT*%
%TO.N,Net-(U2-SQW{slash}~INT)*%
X160401000Y-99595000D03*
%TO.P,U2,8,VCC*%
%TO.N,/VCC*%
X159131000Y-99595000D03*
%TD*%
D18*
%TO.P,Y2,1,1*%
%TO.N,Net-(U2-X2)*%
X163636000Y-109182000D03*
%TO.P,Y2,2,2*%
%TO.N,Net-(U2-X1)*%
X158436000Y-109182000D03*
%TD*%
D19*
%TO.P,ICSP,1,Pin_1*%
%TO.N,/MISO*%
X168402000Y-99530000D03*
D20*
%TO.P,ICSP,2,Pin_2*%
%TO.N,/VCC*%
X170942000Y-99530000D03*
%TO.P,ICSP,3,Pin_3*%
%TO.N,/SCK*%
X168402000Y-102070000D03*
%TO.P,ICSP,4,Pin_4*%
%TO.N,/MOSI*%
X170942000Y-102070000D03*
%TO.P,ICSP,5,Pin_5*%
%TO.N,/RESET*%
X168402000Y-104610000D03*
%TO.P,ICSP,6,Pin_6*%
%TO.N,GND*%
X170942000Y-104610000D03*
%TD*%
D15*
%TO.P,C2,1*%
%TO.N,GND*%
X152273000Y-110871000D03*
%TO.P,C2,2*%
%TO.N,Net-(U1-PB6)*%
X152273000Y-108971000D03*
%TD*%
D21*
%TO.P,D1,1,K*%
%TO.N,Net-(D1-K)*%
X152654000Y-90248500D03*
%TO.P,D1,2,A*%
%TO.N,/SCK*%
X152654000Y-92123500D03*
%TD*%
D22*
%TO.P,D2,1,K*%
%TO.N,Net-(D2-K)*%
X128198000Y-98298000D03*
%TO.P,D2,2,A*%
%TO.N,/VCC*%
X130073000Y-98298000D03*
%TD*%
D18*
%TO.P,Y1,1,1*%
%TO.N,Net-(U1-PB7)*%
X138684000Y-109182000D03*
%TO.P,Y1,2,2*%
%TO.N,Net-(U1-PB6)*%
X133484000Y-109182000D03*
%TD*%
D23*
%TO.P,R5,1*%
%TO.N,/VCC*%
X161798000Y-94450000D03*
%TO.P,R5,2*%
%TO.N,Net-(U2-SQW{slash}~INT)*%
X161798000Y-96275000D03*
%TD*%
D19*
%TO.P,BT1,1,+*%
%TO.N,/VCC*%
X124968000Y-96438000D03*
D20*
%TO.P,BT1,2,-*%
%TO.N,GND*%
X124968000Y-98978000D03*
%TD*%
D19*
%TO.P,Serial,1,Pin_1*%
%TO.N,GND*%
X158242000Y-89370000D03*
D20*
%TO.P,Serial,2,Pin_2*%
%TO.N,/VCC*%
X160782000Y-89370000D03*
%TO.P,Serial,3,Pin_3*%
%TO.N,/TX*%
X163322000Y-89370000D03*
%TO.P,Serial,4,Pin_4*%
%TO.N,/RX*%
X165862000Y-89370000D03*
%TD*%
D24*
%TO.P,C4,1*%
%TO.N,/VCC*%
X128165500Y-101854000D03*
%TO.P,C4,2*%
%TO.N,GND*%
X130065500Y-101854000D03*
%TD*%
D12*
%TO.P,R3,1*%
%TO.N,Net-(D2-K)*%
X128223000Y-94742000D03*
%TO.P,R3,2*%
%TO.N,GND*%
X130048000Y-94742000D03*
%TD*%
D19*
%TO.P,GPIO,1,Pin_1*%
%TO.N,/D2*%
X139192000Y-114770000D03*
D20*
%TO.P,GPIO,2,Pin_2*%
%TO.N,/D3*%
X141732000Y-114770000D03*
%TO.P,GPIO,3,Pin_3*%
%TO.N,/D4*%
X144272000Y-114770000D03*
%TO.P,GPIO,4,Pin_4*%
%TO.N,/D5*%
X146812000Y-114770000D03*
%TO.P,GPIO,5,Pin_5*%
%TO.N,/D6*%
X149352000Y-114770000D03*
%TO.P,GPIO,6,Pin_6*%
%TO.N,/D7*%
X151892000Y-114770000D03*
%TO.P,GPIO,7,Pin_7*%
%TO.N,/D8*%
X154432000Y-114770000D03*
%TO.P,GPIO,8,Pin_8*%
%TO.N,GND*%
X156972000Y-114770000D03*
%TO.P,GPIO,9,Pin_9*%
%TO.N,/VCC*%
X159512000Y-114770000D03*
%TD*%
D12*
%TO.P,R7,1*%
%TO.N,/VCC*%
X128223000Y-110998000D03*
%TO.P,R7,2*%
%TO.N,/SDA*%
X130048000Y-110998000D03*
%TD*%
D19*
%TO.P,I2C,1,Pin_1*%
%TO.N,GND*%
X131350000Y-89370000D03*
D20*
%TO.P,I2C,2,Pin_2*%
%TO.N,/VCC*%
X133890000Y-89370000D03*
%TO.P,I2C,3,Pin_3*%
%TO.N,/SDA*%
X136430000Y-89370000D03*
%TO.P,I2C,4,Pin_4*%
%TO.N,/SCL*%
X138970000Y-89370000D03*
%TD*%
D23*
%TO.P,R4,1*%
%TO.N,/VCC*%
X158242000Y-94450000D03*
%TO.P,R4,2*%
%TO.N,Net-(U2-~{INTA})*%
X158242000Y-96275000D03*
%TD*%
D15*
%TO.P,C3,1*%
%TO.N,GND*%
X145542000Y-110871000D03*
%TO.P,C3,2*%
%TO.N,Net-(U1-PB7)*%
X145542000Y-108971000D03*
%TD*%
D11*
%TO.P,R2,1*%
%TO.N,/VCC*%
X148971000Y-110813500D03*
%TO.P,R2,2*%
%TO.N,/RESET*%
X148971000Y-108988500D03*
%TD*%
D25*
%TO.N,/RX*%
X147929600Y-99898200D03*
%TO.N,/TX*%
X146583400Y-99644200D03*
%TO.N,/SDA*%
X142214600Y-98247200D03*
%TO.N,Net-(U1-PB6)*%
X154178000Y-108915200D03*
%TO.N,Net-(U1-PB7)*%
X146888200Y-104927400D03*
%TO.N,Net-(U1-PB6)*%
X146913600Y-103225600D03*
%TO.N,Net-(U1-PB7)*%
X141249400Y-106908600D03*
%TO.N,Net-(U1-PB6)*%
X137312400Y-106807000D03*
%TO.N,/SDA*%
X152095200Y-96279800D03*
%TO.N,/MOSI*%
X155905200Y-108356400D03*
%TO.N,/MISO*%
X155473400Y-106299000D03*
%TO.N,/SDA*%
X162229800Y-102031800D03*
X131546600Y-113157000D03*
X136017000Y-105079800D03*
X135641429Y-97602215D03*
%TO.N,/SCL*%
X160934400Y-101955600D03*
X150672800Y-94513400D03*
X137388600Y-96037400D03*
X138201400Y-104518000D03*
D26*
%TO.N,/VCC*%
X155422600Y-104089200D03*
X150932614Y-112787400D03*
X155295600Y-95554800D03*
X139674600Y-99212400D03*
%TO.N,GND*%
X165227000Y-98475800D03*
X142113000Y-94665800D03*
X134747000Y-97155000D03*
X154254200Y-111912400D03*
X145516600Y-112293400D03*
X136347200Y-102793800D03*
X148691600Y-104521000D03*
X147447000Y-101295200D03*
X130048000Y-103860600D03*
X165328600Y-103733600D03*
X149047200Y-93903800D03*
D25*
%TO.N,/RESET*%
X148717000Y-107797600D03*
X149416600Y-102673409D03*
%TD*%
D27*
%TO.N,/RX*%
X147898000Y-99866600D02*
X147929600Y-99898200D01*
X147898000Y-97938000D02*
X147898000Y-99866600D01*
%TO.N,/TX*%
X147098000Y-99129600D02*
X146583400Y-99644200D01*
X147098000Y-97938000D02*
X147098000Y-99129600D01*
%TO.N,/RESET*%
X149416600Y-102673409D02*
X148698000Y-101954809D01*
X148698000Y-101954809D02*
X148698000Y-97938000D01*
D28*
%TO.N,GND*%
X151504600Y-101708000D02*
X153268000Y-101708000D01*
X148691600Y-104521000D02*
X151504600Y-101708000D01*
D27*
%TO.N,/SCK*%
X156222600Y-98437600D02*
X156222600Y-97993200D01*
X160996000Y-105533106D02*
X160996000Y-103211000D01*
X164592000Y-105880000D02*
X161342894Y-105880000D01*
X168402000Y-102070000D02*
X164592000Y-105880000D01*
X161342894Y-105880000D02*
X160996000Y-105533106D01*
X156222600Y-97993200D02*
X156222600Y-97904200D01*
X160996000Y-103211000D02*
X156222600Y-98437600D01*
X156222600Y-104420571D02*
X156222600Y-97993200D01*
%TO.N,/SDA*%
X141211400Y-97244000D02*
X139700000Y-97244000D01*
X142214600Y-98247200D02*
X141211400Y-97244000D01*
%TO.N,Net-(U1-AREF)*%
X154313896Y-102508000D02*
X153268000Y-102508000D01*
X154355800Y-102466096D02*
X154313896Y-102508000D01*
X150921329Y-93913400D02*
X154355800Y-97347871D01*
X150424271Y-93913400D02*
X150921329Y-93913400D01*
X149002214Y-95335457D02*
X150424271Y-93913400D01*
X146894501Y-95335457D02*
X149002214Y-95335457D01*
X144213000Y-92653956D02*
X146894501Y-95335457D01*
X144213000Y-91323500D02*
X144213000Y-92653956D01*
X145288000Y-90248500D02*
X144213000Y-91323500D01*
X154355800Y-97347871D02*
X154355800Y-102466096D01*
%TO.N,/MOSI*%
X151806400Y-107721400D02*
X151098000Y-107013000D01*
X151098000Y-107013000D02*
X151098000Y-106278000D01*
X155270200Y-107721400D02*
X151806400Y-107721400D01*
X155905200Y-108356400D02*
X155270200Y-107721400D01*
%TO.N,Net-(U1-PB6)*%
X154122200Y-108971000D02*
X154178000Y-108915200D01*
X152273000Y-108971000D02*
X154122200Y-108971000D01*
%TO.N,Net-(U1-PB7)*%
X144947400Y-104927400D02*
X144928000Y-104908000D01*
X146888200Y-104927400D02*
X144947400Y-104927400D01*
%TO.N,Net-(U1-PB6)*%
X146913600Y-103225600D02*
X146031200Y-104108000D01*
X146031200Y-104108000D02*
X144928000Y-104108000D01*
%TO.N,Net-(U1-PB7)*%
X140957400Y-106908600D02*
X141249400Y-106908600D01*
X138684000Y-109182000D02*
X140957400Y-106908600D01*
%TO.N,Net-(U1-PB6)*%
X135859000Y-106807000D02*
X137312400Y-106807000D01*
X133484000Y-109182000D02*
X135859000Y-106807000D01*
%TO.N,/SCL*%
X150672800Y-96028200D02*
X149498000Y-97203000D01*
X150672800Y-94513400D02*
X150672800Y-96028200D01*
X149498000Y-97203000D02*
X149498000Y-97938000D01*
X149212200Y-95974000D02*
X139700000Y-95974000D01*
X150672800Y-94513400D02*
X149212200Y-95974000D01*
%TO.N,/SCK*%
X156222600Y-97904200D02*
X152679400Y-94361000D01*
X153268000Y-104908000D02*
X155735171Y-104908000D01*
X155735171Y-104908000D02*
X156222600Y-104420571D01*
D28*
%TO.N,GND*%
X136563000Y-102578000D02*
X139700000Y-102578000D01*
X136347200Y-102793800D02*
X136563000Y-102578000D01*
D27*
%TO.N,/SDA*%
X136017000Y-105079800D02*
X136055200Y-105118000D01*
X136055200Y-105118000D02*
X139700000Y-105118000D01*
%TO.N,/SCL*%
X138201400Y-104518000D02*
X137531400Y-103848000D01*
X137531400Y-103848000D02*
X135281262Y-103848000D01*
%TO.N,/SDA*%
X135999644Y-97244000D02*
X139700000Y-97244000D01*
X135641429Y-97602215D02*
X135999644Y-97244000D01*
%TO.N,/SCK*%
X152654000Y-94335600D02*
X152679400Y-94361000D01*
X152654000Y-92123500D02*
X152654000Y-94335600D01*
%TO.N,/MISO*%
X155452400Y-106278000D02*
X155473400Y-106299000D01*
X151898000Y-106278000D02*
X155452400Y-106278000D01*
%TO.N,/SDA*%
X162941000Y-101320600D02*
X162229800Y-102031800D01*
X162941000Y-99595000D02*
X162941000Y-101320600D01*
X130048000Y-111658400D02*
X131546600Y-113157000D01*
X130048000Y-110998000D02*
X130048000Y-111658400D01*
%TO.N,/SCL*%
X137452000Y-95974000D02*
X139700000Y-95974000D01*
X137388600Y-96037400D02*
X137452000Y-95974000D01*
X161671000Y-101219000D02*
X160934400Y-101955600D01*
X161671000Y-99595000D02*
X161671000Y-101219000D01*
X135281262Y-103848000D02*
X131843262Y-107286000D01*
X139700000Y-103848000D02*
X135281262Y-103848000D01*
X131843262Y-107286000D02*
X130048000Y-107286000D01*
D28*
%TO.N,/VCC*%
X155403800Y-104108000D02*
X155422600Y-104089200D01*
X153268000Y-104108000D02*
X155403800Y-104108000D01*
X150932614Y-112787400D02*
X150932614Y-112775114D01*
X150932614Y-112775114D02*
X148971000Y-110813500D01*
D27*
%TO.N,/D7*%
X151041200Y-114770000D02*
X147898000Y-111626800D01*
X151892000Y-114770000D02*
X151041200Y-114770000D01*
X147898000Y-111626800D02*
X147898000Y-106278000D01*
%TO.N,/D8*%
X149137104Y-107313000D02*
X148698000Y-106873896D01*
X150010400Y-107313000D02*
X149137104Y-107313000D01*
X148698000Y-106873896D02*
X148698000Y-106278000D01*
X150442200Y-110640400D02*
X150442200Y-107744800D01*
X154432000Y-114630200D02*
X150442200Y-110640400D01*
X150442200Y-107744800D02*
X150010400Y-107313000D01*
X154432000Y-114770000D02*
X154432000Y-114630200D01*
D28*
%TO.N,/VCC*%
X155315800Y-95575000D02*
X155295600Y-95554800D01*
X157117000Y-95575000D02*
X155315800Y-95575000D01*
X139700000Y-99237800D02*
X139674600Y-99212400D01*
X139700000Y-101308000D02*
X139700000Y-99237800D01*
%TO.N,GND*%
X165354000Y-98348800D02*
X165354000Y-96350000D01*
X165227000Y-98475800D02*
X165354000Y-98348800D01*
X134658000Y-97244000D02*
X134747000Y-97155000D01*
X132500000Y-97244000D02*
X134658000Y-97244000D01*
X142074800Y-94704000D02*
X142113000Y-94665800D01*
X139700000Y-94704000D02*
X142074800Y-94704000D01*
X131850000Y-97244000D02*
X132500000Y-97244000D01*
X130048000Y-95442000D02*
X131850000Y-97244000D01*
X130048000Y-94742000D02*
X130048000Y-95442000D01*
X153212800Y-110871000D02*
X154254200Y-111912400D01*
X152273000Y-110871000D02*
X153212800Y-110871000D01*
X145542000Y-112268000D02*
X145516600Y-112293400D01*
X145542000Y-110871000D02*
X145542000Y-112268000D01*
X147446872Y-101295328D02*
X147447000Y-101295200D01*
X146088000Y-101295328D02*
X147446872Y-101295328D01*
X164517200Y-104545000D02*
X165328600Y-103733600D01*
X162941000Y-104545000D02*
X164517200Y-104545000D01*
X131305400Y-105118000D02*
X130048000Y-103860600D01*
X132500000Y-105118000D02*
X131305400Y-105118000D01*
X130060600Y-103848000D02*
X130048000Y-103860600D01*
X130065500Y-103843100D02*
X130048000Y-103860600D01*
X130065500Y-101854000D02*
X130065500Y-103843100D01*
X144928000Y-100908000D02*
X145700672Y-100908000D01*
X149098000Y-92073500D02*
X149098000Y-93853000D01*
X149098000Y-93853000D02*
X149047200Y-93903800D01*
X145288000Y-92148500D02*
X149023000Y-92148500D01*
X146088000Y-102197000D02*
X145777000Y-102508000D01*
X132500000Y-105118000D02*
X132500000Y-103848000D01*
X146088000Y-101295328D02*
X146088000Y-102197000D01*
X165354000Y-103708200D02*
X165328600Y-103733600D01*
X145700672Y-100908000D02*
X146088000Y-101295328D01*
X149023000Y-92148500D02*
X149098000Y-92073500D01*
X145777000Y-102508000D02*
X144928000Y-102508000D01*
D27*
%TO.N,Net-(U1-AREF)*%
X145288000Y-90248500D02*
X145604396Y-90248500D01*
%TO.N,Net-(U1-PB7)*%
X144928000Y-108357000D02*
X144928000Y-104908000D01*
X145542000Y-108971000D02*
X144928000Y-108357000D01*
D28*
%TO.N,/VCC*%
X165862000Y-94450000D02*
X165354000Y-94450000D01*
X128223000Y-107286000D02*
X128223000Y-101911500D01*
X132500000Y-93434000D02*
X133890000Y-92044000D01*
X128223000Y-101911500D02*
X128165500Y-101854000D01*
X124968000Y-95238000D02*
X127004000Y-93202000D01*
X132500000Y-100725000D02*
X132500000Y-101308000D01*
X132500000Y-95974000D02*
X132500000Y-94704000D01*
X132500000Y-101308000D02*
X132500000Y-102578000D01*
X130073000Y-98298000D02*
X132500000Y-100725000D01*
X159131000Y-99595000D02*
X157117000Y-97581000D01*
X128223000Y-110998000D02*
X128223000Y-107286000D01*
X160782000Y-89370000D02*
X160782000Y-93434000D01*
X127004000Y-93202000D02*
X130058000Y-93202000D01*
X139700000Y-101308000D02*
X132500000Y-101308000D01*
X124968000Y-97174877D02*
X124968000Y-96438000D01*
X128165500Y-100205500D02*
X128165500Y-100372377D01*
X130058000Y-93202000D02*
X133890000Y-89370000D01*
X130073000Y-98298000D02*
X128165500Y-100205500D01*
X133890000Y-92044000D02*
X133890000Y-89370000D01*
X132500000Y-93434000D02*
X132500000Y-94704000D01*
X170942000Y-99530000D02*
X165862000Y-94450000D01*
X139700000Y-93434000D02*
X132500000Y-93434000D01*
X160782000Y-93434000D02*
X161798000Y-94450000D01*
X128165500Y-101854000D02*
X128165500Y-100372377D01*
X158242000Y-94450000D02*
X161798000Y-94450000D01*
X157117000Y-95575000D02*
X158242000Y-94450000D01*
X157117000Y-97581000D02*
X157117000Y-95575000D01*
X165354000Y-94450000D02*
X161798000Y-94450000D01*
X124968000Y-96438000D02*
X124968000Y-95238000D01*
X128165500Y-100372377D02*
X124968000Y-97174877D01*
D27*
%TO.N,Net-(D1-K)*%
X149098000Y-90248500D02*
X152654000Y-90248500D01*
%TO.N,Net-(D2-K)*%
X128223000Y-98273000D02*
X128198000Y-98298000D01*
X128223000Y-94742000D02*
X128223000Y-98273000D01*
%TO.N,/D5*%
X146812000Y-114770000D02*
X146812000Y-107387896D01*
X146812000Y-107387896D02*
X146298000Y-106873896D01*
X146298000Y-106873896D02*
X146298000Y-106278000D01*
%TO.N,/D2*%
X141986000Y-111976000D02*
X141986000Y-100854104D01*
X144902104Y-97938000D02*
X146298000Y-97938000D01*
X141986000Y-100854104D02*
X144902104Y-97938000D01*
X139192000Y-114770000D02*
X141986000Y-111976000D01*
%TO.N,/D4*%
X144261394Y-100108000D02*
X144928000Y-100108000D01*
X143422000Y-100947394D02*
X144261394Y-100108000D01*
X144272000Y-114770000D02*
X143422000Y-113920000D01*
X143422000Y-113920000D02*
X143422000Y-100947394D01*
%TO.N,/D3*%
X141732000Y-114770000D02*
X142582000Y-113920000D01*
X144193000Y-99308000D02*
X144928000Y-99308000D01*
X142582000Y-113920000D02*
X142582000Y-100919000D01*
X142582000Y-100919000D02*
X144193000Y-99308000D01*
%TO.N,/D6*%
X147323000Y-112741000D02*
X147323000Y-106503000D01*
X149352000Y-114770000D02*
X147323000Y-112741000D01*
X147323000Y-106503000D02*
X147098000Y-106278000D01*
%TO.N,/RESET*%
X148717000Y-107797600D02*
X148717000Y-108734500D01*
X148717000Y-108734500D02*
X148971000Y-108988500D01*
%TO.N,Net-(U2-~{INTA})*%
X161671000Y-103555800D02*
X161671000Y-104545000D01*
X158242000Y-96275000D02*
X159054500Y-95462500D01*
X163586000Y-96565756D02*
X163586000Y-101640800D01*
X159054500Y-95462500D02*
X162482744Y-95462500D01*
X162482744Y-95462500D02*
X163586000Y-96565756D01*
X163586000Y-101640800D02*
X161671000Y-103555800D01*
%TO.N,Net-(U2-SQW{slash}~INT)*%
X160401000Y-97672000D02*
X160401000Y-99595000D01*
X161798000Y-96275000D02*
X160401000Y-97672000D01*
%TO.N,Net-(U2-X1)*%
X158436000Y-105240000D02*
X159131000Y-104545000D01*
X158436000Y-109182000D02*
X158436000Y-105240000D01*
%TO.N,Net-(U2-X2)*%
X160401000Y-105947000D02*
X160401000Y-104545000D01*
X163636000Y-109182000D02*
X160401000Y-105947000D01*
%TO.N,/SDA*%
X150298000Y-97938000D02*
X150298000Y-97203000D01*
X150298000Y-97203000D02*
X151221200Y-96279800D01*
X151221200Y-96279800D02*
X152095200Y-96279800D01*
%TD*%
M02*
